<?xml version="1.0" standalone="no"?>
<!DOCTYPE svg PUBLIC "-//W3C//DTD SVG 1.1//EN" "http://www.w3.org/Graphics/SVG/1.1/DTD/svg11.dtd" >
<svg>
<metadata>
Created by FontForge 20090914 at Sun Sep 22 22:56:02 2019
 By www-data
Copyright (c) 2018 by www.fontiran.com (Moslem Ebrahimi). All rights reserved.
</metadata>
<defs>
<font id="IRANSansDN" horiz-adv-x="0" >
  <font-face 
    font-family="IRANSansDN"
    font-weight="400"
    font-stretch="normal"
    units-per-em="2300"
    panose-1="2 11 5 6 3 8 4 2 2 4"
    ascent="1840"
    descent="-460"
    x-height="1215"
    cap-height="1635"
    bbox="-1106 -1192 3165 2704.75"
    underline-thickness="100"
    underline-position="-550"
    unicode-range="U+001D-U+FEFF"
  />
<missing-glyph horiz-adv-x="1229" 
d="M102 -362v1806h1024v-1806h-1024zM217 -248h795v1577h-795v-1577z" />
    <glyph glyph-name="allah" unicode="&#xfedf;&#xfee0;&#x651;&#x64e;&#xfeea;" horiz-adv-x="2052" arabic-form="isolated" 
d="M1290 1718c-14 0.666992 -25.667 6.33203 -35 16.999c-10 10 -14.333 22.333 -13 37c3.33301 70 -2 138 -16 204c-3.33301 14 -1 27 7 39c7.33301 11.333 18 18.666 32 21.999c14 2.66699 27 0.333984 39 -6.99902c12 -8 19.333 -19 22 -33
c16 -74.667 22 -151.667 18 -231c-0.666992 -13.333 -6 -24.666 -16 -33.999s-21.667 -14 -35 -14h-3zM1885 1045c47.333 -252 73.3301 -431.676 77.9971 -539.009c7.33301 -178 -23 -308 -91 -390c-60 -72 -143.667 -108 -251 -108c-101.333 0 -189.666 39 -264.999 117
c-56 -72.667 -133.667 -113.667 -233 -123c-12 -1.33301 -24 -2 -36 -2c-82 0 -154.667 23 -218 69c-64 46 -110.667 107.333 -140 184c-11.333 29.333 -20.666 63.333 -27.999 102l-9 52l-7 50l-3 17c-1.33301 10.667 -3.33301 27.667 -6 51l-1 13l-2 13l-3 29
c-3.33301 22 -7 41 -11 57c-10.667 42.667 -25.334 68 -44.001 76c-20 9.33301 -54.333 0.333008 -103 -27c-24 -14 -50 -31.667 -78 -53c-20 -15.333 -43.333 -35 -70 -59c-34 -30.667 -60 -64 -78 -100c-23.333 -47.333 -24.666 -87.666 -3.99902 -120.999
s59.334 -52.666 116.001 -57.999c42 -3.33301 100.667 1.33398 176 14.001c26.667 4 51 -1.66699 73 -17c22 -16 35.333 -37.667 40 -65c4.66699 -26.667 -1 -51 -17 -73c-16 -22.667 -37.333 -36 -64 -40l-17 -3l-18 -3c-14.667 -2 -28.334 -3.66699 -41.001 -5
c-34 -4 -66 -6 -96 -6c-151.333 0 -258 50.667 -320 152c-51.333 84 -58.333 175.667 -21 275c27.333 73.333 74 139.333 140 198c31.333 28 59.333 51.333 84 70c34 26 66.333 48 97 66c106.667 60 200.334 72 281.001 36c64.667 -28 111.334 -80 140.001 -156
c10.667 -28.667 19.334 -61.667 26.001 -99c2.66699 -14.667 5 -30.667 7 -48l3 -23l2 -22c2 -21.333 3.66699 -36.333 5 -45l3 -17c10 -75.333 20.333 -127.666 31 -156.999c14.667 -40.667 39 -73.334 73 -98.001c32 -23.333 69.667 -33.666 113 -30.999
c46 2.66699 80.667 19.334 104 50.001c24 32.667 37.667 75 41 127c-1.33301 15.333 -2.33301 30.333 -3 45c0 8.66699 1 17 3 25c-0.666992 14.667 -2.33398 36.667 -5.00098 66l-2 35l-3 35c-4.66699 94 -11.667 204.333 -21 331c-3.33301 40 -6.33301 79.333 -9 118
c-1.33301 12 -2.33301 23.333 -3 34l-1 10v2v1c-2 27.333 5.66699 51.333 23 72c18 21.333 40.333 33 67 35c27.333 2 51.333 -5.66699 72 -23c21.333 -18 33 -40.667 35 -68v-1v-2l1 -10c0.666992 -10.667 1.66699 -22 3 -34c2.66699 -39.333 5.66699 -79 9 -119
c9.33301 -128.667 16.666 -240.667 21.999 -336c0.666992 -14 2 -35.333 4 -64l3 -35l2 -35c1.33301 -27.333 1.66602 -51.666 0.999023 -72.999c9.33301 -56.667 33.333 -101.667 72 -135c33.333 -29.333 69.333 -44 108 -44c27.333 0 49.666 4.33301 66.999 13
c12.667 5.33301 23.334 13.333 32.001 24c16 19.333 28 48.333 36 87c10 50.667 12.667 115.667 8 195c-4 64 -13.333 141.667 -28 233c-6 36.667 -13.333 78.334 -22 125.001l-23 127l-29 154c-4.66699 26.667 1 51.334 17 74.001c15.333 22 36.333 35.333 63 40
c27.333 5.33301 52 0 74 -16c22.667 -15.333 36.334 -36.666 41.001 -63.999zM1576 1506.99c5.33301 -36.667 2.33398 -71.335 -8.99902 -104.002c-10.667 -33.333 -28.667 -60.333 -54 -81c-30 -25.333 -65.333 -38 -106 -38c-20.667 0 -40 3.66699 -58 11
c-22 8.66699 -41.667 21.667 -59 39c-13.333 -16 -28.333 -29.333 -45 -40c-28.667 -18 -59.334 -27 -92.001 -27c-25.333 0 -48.666 5.33301 -69.999 16c-50 26 -79 69.333 -87 130c-6 44.667 2.66699 91 26 139c6 12.667 15.667 21.334 29 26.001s26.333 4 39 -2
c13.333 -6 22.333 -15.667 27 -29s3.66699 -26.666 -3 -39.999c-6 -12 -10.333 -24 -13 -36c-4 -16 -5 -30.667 -3 -44c3.33301 -25.333 14 -42.666 32 -51.999c18.667 -9.33301 38.667 -7.33301 60 6s36.666 35 45.999 65c8.66699 25.333 12.334 58 11.001 98
c-0.666992 14 3.66602 26.333 12.999 37c10 10 22 15.333 36 16s26.333 -4 37 -14c10.667 -9.33301 16 -21.333 16 -36c1.33301 -36.667 -0.666992 -69 -6 -97l3 -10c3.33301 -24 16.333 -40.333 39 -49c23.333 -8.66699 44.333 -5.33398 63 9.99902c24 20 33 50.333 27 91
c-4.66699 31.333 -22 71 -52 119c-7.33301 12 -9.33301 24.667 -6 38c3.33301 14 11 24.667 23 32c12 8 24.667 10.333 38 7c14 -3.33301 24.667 -11 32 -23c38 -60 60 -112.667 66 -158z" />
    <glyph glyph-name="riyal" unicode="&#x631;&#xfef3;&#xfe8e;&#x644;" horiz-adv-x="3248" arabic-form="isolated" 
d="M707 -659c-159.333 0 -291 41.001 -395 123.001c-140.667 111.333 -212.334 266.333 -215.001 465v13c0 78 11 160.333 33 247c18 70 42.333 140.333 73 211c10.667 25.333 28.667 43 54 53c12 4.66699 24.333 7 37 7s25.334 -2.66699 38.001 -8
c25.333 -10.667 43 -28.667 53 -54c4.66699 -12 7 -24.333 7 -37s-2.66699 -25.667 -8 -39c-20.667 -48.667 -38 -97.334 -52 -146.001c-20 -67.333 -32 -131 -36 -191c-1.33301 -15.333 -2 -30.333 -2 -45c0 -140 46.667 -247 140 -321c68.667 -53.333 158.667 -80 270 -80
h24c122.667 4 223.667 36.667 303 98c77.333 60 123.666 155.667 138.999 287c4 36 6 76 6 120c0 20 -0.333008 40.667 -1 62c-1.33301 28 -3.33301 59.333 -6 94l-3 46l-4 46c-5.33301 58.667 -8.66602 102 -9.99902 130c-8.66699 146 -23.667 366 -45 660l-21 283
c-2 30.667 -4 59.667 -6 87c-0.666992 8.66699 -1.33398 16.667 -2.00098 24v8l-1 1v8c0 24 8 45.333 24 64c18 20.667 40.667 32 68 34h8c23.333 0 44.333 -8 63 -24c20.667 -17.333 32.334 -39.666 35.001 -66.999v-9c0.666992 -7.33301 1.33398 -15.333 2.00098 -24
l6 -87l21 -284c21.333 -295.333 36.333 -516.333 45 -663c1.33301 -26 4.66602 -67.333 9.99902 -124l4 -51l4 -52c2.66699 -39.333 4.66699 -75 6 -107c0.666992 -19.333 1 -38 1 -56c0 -58.667 -3.33301 -112.334 -10 -161.001c-24 -176 -94.667 -309.667 -212 -401
c-112.667 -87.333 -251.667 -134 -417 -140h-28zM1942 29.001c-19.333 19.333 -29.001 42.666 -29.001 69.999s9.66699 50.666 29 69.999s42.666 29 69.999 29c119.333 0 206.666 5.66699 262 17c77.333 16.667 131 49.334 161 98.001c12.667 21.333 19 51.333 19 90
c0 30 -3.66699 65.333 -11 106c-18 92.667 -51.333 190 -100 292c-6.66699 14 -10 28.667 -10 44c0 10.667 1.66699 21.334 5 32.001c9.33301 25.333 26 44 50 56c14 6.66699 28 10 42 10c11.333 0 22.666 -2 34 -6c26 -8.66699 44.667 -25.334 56 -50.001
c56.667 -116.667 95.334 -229.667 116 -339c10 -52 15 -100 15 -144c0 -78 -16 -143 -48 -195c-56.667 -93.333 -147.334 -154.666 -272 -183.999c-71.333 -16.667 -177.666 -25 -318.999 -25c-27.333 0 -50.666 9.66699 -69.999 29zM2388 -670.999
c-8 15.333 -11.999 30.668 -11.999 46.001c0 10 1.66699 20 5 30c8 26 24 45.333 48 58c179.333 95.333 309.333 215.666 390 360.999c98.667 177.333 148 423.333 148 738c0 27.333 9.66699 50.666 29 69.999s42.666 29 70 29c27.333 0 50.666 -9.66699 70 -29
c19.333 -19.333 29 -42.666 29 -69.999c0 -340 -54.667 -612.333 -164 -817c-101.333 -188 -261 -340 -479 -456c-14.667 -8 -30.334 -12 -47.001 -12c-39.333 0 -68.333 17.333 -87 52zM1957 0.00292969c-19.333 0.666992 -37 2.00195 -53 4.00195
c-36 4 -70.667 13 -104 27c-100 40 -163.667 117.667 -191 233c-12 52.667 -18 201.667 -18 447v231c-0.666992 72 -1.66699 135.667 -3 191c-4 140.667 -12 250.667 -24 330c-0.666992 5.33301 -1 10.666 -1 15.999c0 21.333 6.33301 40.666 19 57.999
c16.667 22 38.334 35 65.001 39c5.33301 0.666992 10.666 1 15.999 1c21.333 0 40.666 -6.33301 57.999 -19c22 -16.667 35 -38.334 39 -65.001c12.667 -86.667 21 -203 25 -349c2 -57.333 3 -123 3 -197v-336c0.666992 -50.667 1.33398 -93.667 2.00098 -129
c1.33301 -88.667 5.33301 -146.334 12 -173.001c11.333 -46.667 34 -77.667 68 -93c20 -12 61.667 -18 125 -18c27.333 0 50.666 -9.66699 69.999 -29s29 -42.666 29 -69.999s-9.66699 -50.666 -29 -69.999s-42.666 -29 -69.999 -29h-38zM1704 -396.995
c-12 24 -14.0029 49 -6.00293 75s23.667 45.333 47 58c118.667 62 246.334 91 383.001 87c46.667 -1.33301 92.334 -6.33301 137 -15c16.667 -3.33301 32.334 -7 47 -11c6 -2 11.667 -3.66699 17 -5l12 -4c24.667 -8 43.334 -24.333 56 -49c12 -24 14 -49 6 -75
s-23.667 -45.333 -47 -58s-47.666 -14.667 -73 -6h-1l-3 1l-4 1c-3.33301 1.33301 -6.66602 2.33301 -10 3l-33 8c-33.333 6.66699 -67.666 10.667 -103 12c-107.333 4.66699 -206.333 -17 -297 -65c-13.333 -7.33301 -27.666 -11 -42.999 -11
c-39.333 0 -67.666 18 -84.999 54z" />
    <glyph glyph-name="uni06440622.isol" unicode="&#xfedf;&#xfe82;" horiz-adv-x="1373" arabic-form="isolated" 
d="M766 110c110.667 0 196.333 12.6689 257 38.002c-4.66699 15.333 -11.667 33.666 -21 54.999c-12.667 29.333 -29.667 62.666 -51 99.999c-60 -56 -146.667 -119.667 -260 -191c26 -1.33301 51 -2 75 -2zM750.999 -86.998c-154 0.666992 -275.669 17 -365.002 49
c-37.333 13.333 -59 39.666 -65 78.999c-0.666992 5.33301 -1 10.666 -1 15.999c0 32.667 14 58.667 42 78c26.667 19.333 57 40 91 62l90 56c144 89.333 244 163.333 300 222c-34 50 -72.333 103.667 -115 161c-84 114 -173.333 227.333 -268 340
c-86 102.667 -157.333 182.334 -214 239.001c-19.333 19.333 -29 42.666 -29 69.999s9.66699 50.666 29 69.999s42.666 29 69.999 29s50.666 -9.66699 69.999 -29c60.667 -61.333 136.334 -145.666 227.001 -252.999c99.333 -119.333 193 -238.666 281 -357.999l67 -93
c45.333 102.667 68 231.334 68 386.001c0 118.667 -13.333 252.334 -40 401.001c-1.33301 6 -2 12 -2 18c0 20 6 38.667 18 56c16 22 37.333 35.333 64 40c6.66699 1.33301 13.334 2 20.001 2c19.333 0 37.333 -6 54 -18c22.667 -15.333 36.334 -36.333 41.001 -63
c28.667 -158.667 43 -303.334 43 -434.001c0 -212.667 -38 -388.667 -114 -528l-28 -47l41 -69c65.333 -116 98 -206.333 98 -271c0 -7.33301 -0.333008 -14.333 -1 -21c-6 -48.667 -28.667 -85 -68 -109c-48.667 -30 -113 -52 -193 -66
c-61.333 -10 -129.666 -15 -204.999 -15h-6zM44.9971 1463c-18 12 -28.999 28.667 -32.999 50c-4.66699 22 -1 42 11 60l10 14l10 15c8 12 16 22.667 24 32c19.333 24 39.666 44 60.999 60c56.667 42.667 122.667 57.334 198 44.001c22.667 -4 49 -10.333 79 -19l41 -12
l41 -14l49 -16l48 -14c34.667 -9.33301 63 -14.666 85 -15.999c76.667 -4 141.334 30.667 194.001 104c12.667 18 30 28.667 52 32c21.333 3.33301 41 -1.33398 59 -14.001c17.333 -12.667 27.666 -30 30.999 -52c4 -21.333 -0.666992 -40.666 -14 -57.999
c-86.667 -120.667 -196.667 -177.334 -330 -170.001c-31.333 2 -68 8.33301 -110 19c-16.667 4.66699 -35.667 10.334 -57 17.001l-57 18c-66 22 -112 35 -138 39c-28.667 5.33301 -52.667 1.66602 -72 -11.001c-18.667 -12.667 -42.667 -41.334 -72 -86.001
c-15.333 -23.333 -37.333 -35 -66 -35c-16 0 -30.667 4.33301 -44 13z" />
    <glyph glyph-name="uni06440622.fina" unicode="&#xfee0;&#xfe82;" horiz-adv-x="1478" arabic-form="final" 
d="M635 167c-24 0 -44.999 7.33691 -62.999 22.0039c-18.667 16 -30 35.667 -34 59c-52 291.333 -150 601.333 -294 930c-6 13.333 -9 26.666 -9 39.999c0 11.333 2.33301 23 7 35c10 26 27.333 44.333 52 55c13.333 6 26.666 9 39.999 9c12 0 24 -2.33301 36 -7
c25.333 -10 43.666 -27.667 54.999 -53c150 -342.667 252.333 -667.334 307 -974.001c1.33301 -6.66699 2 -13.334 2 -20.001c0 -18.667 -6 -36.667 -18 -54c-15.333 -22.667 -36.666 -36.334 -63.999 -41.001c-5.33301 -0.666992 -11 -1 -17 -1zM1477 198.004
c27.333 0 50.667 -9.66602 70 -28.999s29 -42.666 29 -69.999s-9.66699 -50.666 -29 -69.999s-42.666 -29 -69.999 -29c-57.333 0 -110.666 13 -159.999 39c-65.333 34 -120.333 89 -165 165c-8.66699 15.333 -17.334 32 -26.001 50
c-22.667 -37.333 -49.334 -71.666 -80.001 -102.999c-140.667 -144.667 -352.667 -217 -636 -217c-27.333 0 -50.666 9.66699 -69.999 29s-29 42.666 -29 69.999s9.66699 50.666 29 69.999s42.666 29 69.999 29c228 0 393 52.333 495 157c82 84.667 123 206 123 364v22
c-2 78 -29 320 -81 726l-7 57c-0.666992 4.66699 -1 9 -1 13c0 21.333 7 41.333 21 60c16.667 21.333 38.667 33.666 66 36.999c4.66699 0.666992 9 1 13 1c21.333 0 41.333 -7 60 -21c21.333 -16.667 33.666 -38.334 36.999 -65.001l7 -57c52.667 -411.333 80 -659 82 -743
c14 -166 46.667 -292.333 98 -379c24.667 -42 52.334 -71.333 83.001 -88c21.333 -12 45 -18 71 -18zM45.002 1423c-18 12 -28.999 28.667 -32.999 50c-4.66699 22 -1 42 11 60l10 14l10 15c8 12 16 22.667 24 32c19.333 24 39.666 44 60.999 60
c56.667 42.667 122.667 57.334 198 44.001c22.667 -4 49 -10.333 79 -19l41 -12l41 -14l49 -16l48 -14c34.667 -9.33301 63 -14.666 85 -15.999c76.667 -4 141.334 30.667 194.001 104c12.667 18 30 28.667 52 32c21.333 3.33301 41 -1.33398 59 -14.001
c17.333 -12.667 27.666 -30 30.999 -52c4 -21.333 -0.666992 -40.666 -14 -57.999c-86.667 -120.667 -196.667 -177.334 -330 -170.001c-31.333 2 -68 8.33301 -110 19c-16.667 4.66699 -35.667 10.334 -57 17.001l-57 18c-66 22 -112 35 -138 39
c-28.667 5.33301 -52.667 1.66602 -72 -11.001c-18.667 -12.667 -42.667 -41.334 -72 -86.001c-15.333 -23.333 -37.333 -35 -66 -35c-16 0 -30.667 4.33301 -44 13z" />
    <glyph glyph-name="uni06440623.isol" unicode="&#xfedf;&#xfe84;" horiz-adv-x="1270" arabic-form="isolated" 
d="M657 110c110.667 0 196.333 12.6689 257 38.002c-4.66699 15.333 -11.667 33.666 -21 54.999c-12.667 29.333 -29.667 62.666 -51 99.999c-60 -56 -146.667 -119.667 -260 -191c26 -1.33301 51 -2 75 -2zM641.999 -86.998c-154 0.666992 -275.669 17 -365.002 49
c-37.333 13.333 -59 39.666 -65 78.999c-0.666992 5.33301 -1 10.666 -1 15.999c0 32.667 14 58.667 42 78c26.667 19.333 57 40 91 62l90 56c144 89.333 244 163.333 300 222c-34 50 -72.333 103.667 -115 161c-84 114 -173.333 227.333 -268 340
c-86 102.667 -157.333 182.334 -214 239.001c-19.333 19.333 -29 42.666 -29 69.999s9.66699 50.666 29 69.999s42.666 29 69.999 29s50.666 -9.66699 69.999 -29c60.667 -61.333 136.334 -145.666 227.001 -252.999c99.333 -119.333 193 -238.666 281 -357.999l67 -93
c45.333 102.667 68 231.334 68 386.001c0 118.667 -13.333 252.334 -40 401.001c-1.33301 6 -2 12 -2 18c0 20 6 38.667 18 56c16 22 37.333 35.333 64 40c6.66699 1.33301 13.334 2 20.001 2c19.333 0 37.333 -6 54 -18c22.667 -15.333 36.334 -36.333 41.001 -63
c28.667 -158.667 43 -303.334 43 -434.001c0 -212.667 -38 -388.667 -114 -528l-28 -47l41 -69c65.333 -116 98 -206.333 98 -271c0 -7.33301 -0.333008 -14.333 -1 -21c-6 -48.667 -28.667 -85 -68 -109c-48.667 -30 -113 -52 -193 -66
c-61.333 -10 -129.666 -15 -204.999 -15h-6zM17.9971 1467c-7.33301 12 -9.00195 25 -5.00195 39c4 13.333 12 23.666 24 30.999l157 90c-11.333 4 -21.666 9 -30.999 15c-32 19.333 -56.667 47 -74 83c-17.333 35.333 -24.333 72.333 -21 111c4 36 16.333 69.667 37 101
s47.334 56.333 80.001 75c62.667 35.333 130.667 42.666 204 21.999c13.333 -4 23.666 -12.333 30.999 -25c6.66699 -12 8 -25 4 -39c-4 -13.333 -12 -23.333 -24 -30c-12.667 -7.33301 -25.667 -9 -39 -5c-46 13.333 -87.667 9 -125 -13c-39.333 -22 -61 -54 -65 -96
c-4.66699 -43.333 10.333 -75.333 45 -96c15.333 -9.33301 33.666 -14.666 54.999 -15.999c8 0 16.333 0.333008 25 1c6.66699 0.666992 13.334 1.66699 20.001 3c18 4 38 10.667 60 20l30 13l30 14c12.667 6 25.334 7 38.001 3c13.333 -4.66699 23.333 -13 30 -25
c6 -12 7.33301 -24.667 4 -38c-4 -13.333 -12 -23.666 -24 -30.999l-396 -226c-8 -4.66699 -16.333 -7 -25 -7c-20 0 -35 8.66699 -45 26z" />
    <glyph glyph-name="uni06440623.fina" unicode="&#xfee0;&#xfe84;" horiz-adv-x="1399" arabic-form="final" 
d="M556 167c-24 0 -44.999 7.33691 -62.999 22.0039c-18.667 16 -30 35.667 -34 59c-52 291.333 -150 601.333 -294 930c-6 13.333 -9 26.666 -9 39.999c0 11.333 2.33301 23 7 35c10 26 27.333 44.333 52 55c13.333 6 26.666 9 39.999 9c12 0 24 -2.33301 36 -7
c25.333 -10 43.666 -27.667 54.999 -53c150 -342.667 252.333 -667.334 307 -974.001c1.33301 -6.66699 2 -13.334 2 -20.001c0 -18.667 -6 -36.667 -18 -54c-15.333 -22.667 -36.666 -36.334 -63.999 -41.001c-5.33301 -0.666992 -11 -1 -17 -1zM1398 198.004
c27.333 0 50.667 -9.66602 70 -28.999s29 -42.666 29 -69.999s-9.66699 -50.666 -29 -69.999s-42.666 -29 -69.999 -29c-57.333 0 -110.666 13 -159.999 39c-65.333 34 -120.333 89 -165 165c-8.66699 15.333 -17.334 32 -26.001 50
c-22.667 -37.333 -49.334 -71.666 -80.001 -102.999c-140.667 -144.667 -352.667 -217 -636 -217c-27.333 0 -50.666 9.66699 -69.999 29s-29 42.666 -29 69.999s9.66699 50.666 29 69.999s42.666 29 69.999 29c228 0 393 52.333 495 157c82 84.667 123 206 123 364v22
c-2 78 -29 320 -81 726l-7 57c-0.666992 4.66699 -1 9 -1 13c0 21.333 7 41.333 21 60c16.667 21.333 38.667 33.666 66 36.999c4.66699 0.666992 9 1 13 1c21.333 0 41.333 -7 60 -21c21.333 -16.667 33.666 -38.334 36.999 -65.001l7 -57c52.667 -411.333 80 -659 82 -743
c14 -166 46.667 -292.333 98 -379c24.667 -42 52.334 -71.333 83.001 -88c21.333 -12 45 -18 71 -18zM8.00195 1437c-7.33301 12 -9.00195 25 -5.00195 39c4 13.333 12 23.666 24 30.999l157 90c-11.333 4 -21.666 9 -30.999 15c-32 19.333 -56.667 47 -74 83
c-17.333 35.333 -24.333 72.333 -21 111c4 36 16.333 69.667 37 101s47.334 56.333 80.001 75c62.667 35.333 130.667 42.666 204 21.999c13.333 -4 23.666 -12.333 30.999 -25c6.66699 -12 8 -25 4 -39c-4 -13.333 -12 -23.333 -24 -30c-12.667 -7.33301 -25.667 -9 -39 -5
c-46 13.333 -87.667 9 -125 -13c-39.333 -22 -61 -54 -65 -96c-4.66699 -43.333 10.333 -75.333 45 -96c15.333 -9.33301 33.666 -14.666 54.999 -15.999c8 0 16.333 0.333008 25 1c6.66699 0.666992 13.334 1.66699 20.001 3c18 4 38 10.667 60 20l30 13l30 14
c12.667 6 25.334 7 38.001 3c13.333 -4.66699 23.333 -13 30 -25c6 -12 7.33301 -24.667 4 -38c-4 -13.333 -12 -23.666 -24 -30.999l-396 -226c-8 -4.66699 -16.333 -7 -25 -7c-20 0 -35 8.66699 -45 26z" />
    <glyph glyph-name="uni06440625.isol" unicode="&#xfedf;&#xfe88;" horiz-adv-x="1270" arabic-form="isolated" 
d="M657 110c110.667 0 196.333 12.6689 257 38.002c-4.66699 15.333 -11.667 33.666 -21 54.999c-12.667 29.333 -29.667 62.666 -51 99.999c-60 -56 -146.667 -119.667 -260 -191c26 -1.33301 51 -2 75 -2zM641.999 -86.998c-154 0.666992 -275.669 17 -365.002 49
c-37.333 13.333 -59 39.666 -65 78.999c-0.666992 5.33301 -1 10.666 -1 15.999c0 32.667 14 58.667 42 78c26.667 19.333 57 40 91 62l90 56c144 89.333 244 163.333 300 222c-34 50 -72.333 103.667 -115 161c-84 114 -173.333 227.333 -268 340
c-86 102.667 -157.333 182.334 -214 239.001c-19.333 19.333 -29 42.666 -29 69.999s9.66699 50.666 29 69.999s42.666 29 69.999 29s50.666 -9.66699 69.999 -29c60.667 -61.333 136.334 -145.666 227.001 -252.999c99.333 -119.333 193 -238.666 281 -357.999l67 -93
c45.333 102.667 68 231.334 68 386.001c0 118.667 -13.333 252.334 -40 401.001c-1.33301 6 -2 12 -2 18c0 20 6 38.667 18 56c16 22 37.333 35.333 64 40c6.66699 1.33301 13.334 2 20.001 2c19.333 0 37.333 -6 54 -18c22.667 -15.333 36.334 -36.333 41.001 -63
c28.667 -158.667 43 -303.334 43 -434.001c0 -212.667 -38 -388.667 -114 -528l-28 -47l41 -69c65.333 -116 98 -206.333 98 -271c0 -7.33301 -0.333008 -14.333 -1 -21c-6 -48.667 -28.667 -85 -68 -109c-48.667 -30 -113 -52 -193 -66
c-61.333 -10 -129.666 -15 -204.999 -15h-6zM134.997 -738.998c-7.33301 12 -9.00195 25 -5.00195 39c4 13.333 12 23.666 24 30.999l157 90c-11.333 4 -21.666 9 -30.999 15c-32 19.333 -56.667 47 -74 83c-17.333 35.333 -24.333 72.333 -21 111
c4 36 16.333 69.667 37 101s47.334 56.333 80.001 75c62.667 35.333 130.667 42.666 204 21.999c13.333 -4 23.666 -12.333 30.999 -25c6.66699 -12 8 -25 4 -39c-4 -13.333 -12 -23.333 -24 -30c-12.667 -7.33301 -25.667 -9 -39 -5c-46 13.333 -87.667 9 -125 -13
c-39.333 -22 -61 -54 -65 -96c-4.66699 -43.333 10.333 -75.333 45 -96c15.333 -9.33301 33.666 -14.666 54.999 -15.999c8 0 16.333 0.333008 25 1c6.66699 0.666992 13.334 1.66699 20.001 3c18 4 38 10.667 60 20l30 13l30 14c12.667 6 25.334 7 38.001 3
c13.333 -4.66699 23.333 -13 30 -25c6 -12 7.33301 -24.667 4 -38c-4 -13.333 -12 -23.666 -24 -30.999l-396 -226c-8 -4.66699 -16.333 -7 -25 -7c-20 0 -35 8.66699 -45 26z" />
    <glyph glyph-name="uni06440625.fina" unicode="&#xfee0;&#xfe88;" horiz-adv-x="1399" arabic-form="final" 
d="M556 167c-24 0 -44.999 7.33691 -62.999 22.0039c-18.667 16 -30 35.667 -34 59c-52 291.333 -150 601.333 -294 930c-6 13.333 -9 26.666 -9 39.999c0 11.333 2.33301 23 7 35c10 26 27.333 44.333 52 55c13.333 6 26.666 9 39.999 9c12 0 24 -2.33301 36 -7
c25.333 -10 43.666 -27.667 54.999 -53c150 -342.667 252.333 -667.334 307 -974.001c1.33301 -6.66699 2 -13.334 2 -20.001c0 -18.667 -6 -36.667 -18 -54c-15.333 -22.667 -36.666 -36.334 -63.999 -41.001c-5.33301 -0.666992 -11 -1 -17 -1zM1398 198.004
c27.333 0 50.667 -9.66602 70 -28.999s29 -42.666 29 -69.999s-9.66699 -50.666 -29 -69.999s-42.666 -29 -69.999 -29c-57.333 0 -110.666 13 -159.999 39c-65.333 34 -120.333 89 -165 165c-8.66699 15.333 -17.334 32 -26.001 50
c-22.667 -37.333 -49.334 -71.666 -80.001 -102.999c-140.667 -144.667 -352.667 -217 -636 -217c-27.333 0 -50.666 9.66699 -69.999 29s-29 42.666 -29 69.999s9.66699 50.666 29 69.999s42.666 29 69.999 29c228 0 393 52.333 495 157c82 84.667 123 206 123 364v22
c-2 78 -29 320 -81 726l-7 57c-0.666992 4.66699 -1 9 -1 13c0 21.333 7 41.333 21 60c16.667 21.333 38.667 33.666 66 36.999c4.66699 0.666992 9 1 13 1c21.333 0 41.333 -7 60 -21c21.333 -16.667 33.666 -38.334 36.999 -65.001l7 -57c52.667 -411.333 80 -659 82 -743
c14 -166 46.667 -292.333 98 -379c24.667 -42 52.334 -71.333 83.001 -88c21.333 -12 45 -18 71 -18zM135.002 -738.995c-7.33301 12 -9.00195 25 -5.00195 39c4 13.333 12 23.666 24 30.999l157 90c-11.333 4 -21.666 9 -30.999 15c-32 19.333 -56.667 47 -74 83
c-17.333 35.333 -24.333 72.333 -21 111c4 36 16.333 69.667 37 101s47.334 56.333 80.001 75c62.667 35.333 130.667 42.666 204 21.999c13.333 -4 23.666 -12.333 30.999 -25c6.66699 -12 8 -25 4 -39c-4 -13.333 -12 -23.333 -24 -30c-12.667 -7.33301 -25.667 -9 -39 -5
c-46 13.333 -87.667 9 -125 -13c-39.333 -22 -61 -54 -65 -96c-4.66699 -43.333 10.333 -75.333 45 -96c15.333 -9.33301 33.666 -14.666 54.999 -15.999c8 0 16.333 0.333008 25 1c6.66699 0.666992 13.334 1.66699 20.001 3c18 4 38 10.667 60 20l30 13l30 14
c12.667 6 25.334 7 38.001 3c13.333 -4.66699 23.333 -13 30 -25c6 -12 7.33301 -24.667 4 -38c-4 -13.333 -12 -23.666 -24 -30.999l-396 -226c-8 -4.66699 -16.333 -7 -25 -7c-20 0 -35 8.66699 -45 26z" />
    <glyph glyph-name="uni06440627.isol" unicode="&#xfedf;&#xfe8e;" horiz-adv-x="1264" arabic-form="isolated" 
d="M657 110c110.667 0 196.333 12.6689 257 38.002c-4.66699 15.333 -11.667 33.666 -21 54.999c-12.667 29.333 -29.667 62.666 -51 99.999c-60 -56 -146.667 -119.667 -260 -191c26 -1.33301 51 -2 75 -2zM641.999 -86.998c-154 0.666992 -275.669 17 -365.002 49
c-37.333 13.333 -59 39.666 -65 78.999c-0.666992 5.33301 -1 10.666 -1 15.999c0 32.667 14 58.667 42 78c26.667 19.333 57 40 91 62l90 56c144 89.333 244 163.333 300 222c-34 50 -72.333 103.667 -115 161c-84 114 -173.333 227.333 -268 340
c-86 102.667 -157.333 182.334 -214 239.001c-19.333 19.333 -29 42.666 -29 69.999s9.66699 50.666 29 69.999s42.666 29 69.999 29s50.666 -9.66699 69.999 -29c60.667 -61.333 136.334 -145.666 227.001 -252.999c99.333 -119.333 193 -238.666 281 -357.999l67 -93
c45.333 102.667 68 231.334 68 386.001c0 118.667 -13.333 252.334 -40 401.001c-1.33301 6 -2 12 -2 18c0 20 6 38.667 18 56c16 22 37.333 35.333 64 40c6.66699 1.33301 13.334 2 20.001 2c19.333 0 37.333 -6 54 -18c22.667 -15.333 36.334 -36.333 41.001 -63
c28.667 -158.667 43 -303.334 43 -434.001c0 -212.667 -38 -388.667 -114 -528l-28 -47l41 -69c65.333 -116 98 -206.333 98 -271c0 -7.33301 -0.333008 -14.333 -1 -21c-6 -48.667 -28.667 -85 -68 -109c-48.667 -30 -113 -52 -193 -66
c-61.333 -10 -129.666 -15 -204.999 -15h-6z" />
    <glyph glyph-name="uni06440627.fina" unicode="&#xfee0;&#xfe8e;" horiz-adv-x="1399" arabic-form="final" 
d="M556 167c-24 0 -44.999 7.33691 -62.999 22.0039c-18.667 16 -30 35.667 -34 59c-52 291.333 -150 601.333 -294 930c-6 13.333 -9 26.666 -9 39.999c0 11.333 2.33301 23 7 35c10 26 27.333 44.333 52 55c13.333 6 26.666 9 39.999 9c12 0 24 -2.33301 36 -7
c25.333 -10 43.666 -27.667 54.999 -53c150 -342.667 252.333 -667.334 307 -974.001c1.33301 -6.66699 2 -13.334 2 -20.001c0 -18.667 -6 -36.667 -18 -54c-15.333 -22.667 -36.666 -36.334 -63.999 -41.001c-5.33301 -0.666992 -11 -1 -17 -1zM1398 198.004
c27.333 0 50.667 -9.66602 70 -28.999s29 -42.666 29 -69.999s-9.66699 -50.666 -29 -69.999s-42.666 -29 -69.999 -29c-57.333 0 -110.666 13 -159.999 39c-65.333 34 -120.333 89 -165 165c-8.66699 15.333 -17.334 32 -26.001 50
c-22.667 -37.333 -49.334 -71.666 -80.001 -102.999c-140.667 -144.667 -352.667 -217 -636 -217c-27.333 0 -50.666 9.66699 -69.999 29s-29 42.666 -29 69.999s9.66699 50.666 29 69.999s42.666 29 69.999 29c228 0 393 52.333 495 157c82 84.667 123 206 123 364v22
c-2 78 -29 320 -81 726l-7 57c-0.666992 4.66699 -1 9 -1 13c0 21.333 7 41.333 21 60c16.667 21.333 38.667 33.666 66 36.999c4.66699 0.666992 9 1 13 1c21.333 0 41.333 -7 60 -21c21.333 -16.667 33.666 -38.334 36.999 -65.001l7 -57c52.667 -411.333 80 -659 82 -743
c14 -166 46.667 -292.333 98 -379c24.667 -42 52.334 -71.333 83.001 -88c21.333 -12 45 -18 71 -18z" />
    <glyph glyph-name="uni06440671.isol" unicode="&#xfedf;&#xfb51;" horiz-adv-x="1264" 
d="M657 110c110.667 0 196.333 12.6689 257 38.002c-4.66699 15.333 -11.667 33.666 -21 54.999c-12.667 29.333 -29.667 62.666 -51 99.999c-60 -56 -146.667 -119.667 -260 -191c26 -1.33301 51 -2 75 -2zM641.999 -86.998c-154 0.666992 -275.669 17 -365.002 49
c-37.333 13.333 -59 39.666 -65 78.999c-0.666992 5.33301 -1 10.666 -1 15.999c0 32.667 14 58.667 42 78c26.667 19.333 57 40 91 62l90 56c144 89.333 244 163.333 300 222c-34 50 -72.333 103.667 -115 161c-84 114 -173.333 227.333 -268 340
c-86 102.667 -157.333 182.334 -214 239.001c-19.333 19.333 -29 42.666 -29 69.999s9.66699 50.666 29 69.999s42.666 29 69.999 29s50.666 -9.66699 69.999 -29c60.667 -61.333 136.334 -145.666 227.001 -252.999c99.333 -119.333 193 -238.666 281 -357.999l67 -93
c45.333 102.667 68 231.334 68 386.001c0 118.667 -13.333 252.334 -40 401.001c-1.33301 6 -2 12 -2 18c0 20 6 38.667 18 56c16 22 37.333 35.333 64 40c6.66699 1.33301 13.334 2 20.001 2c19.333 0 37.333 -6 54 -18c22.667 -15.333 36.334 -36.333 41.001 -63
c28.667 -158.667 43 -303.334 43 -434.001c0 -212.667 -38 -388.667 -114 -528l-28 -47l41 -69c65.333 -116 98 -206.333 98 -271c0 -7.33301 -0.333008 -14.333 -1 -21c-6 -48.667 -28.667 -85 -68 -109c-48.667 -30 -113 -52 -193 -66
c-61.333 -10 -129.666 -15 -204.999 -15h-6zM472.997 1612c18.667 0 35.667 2 51 6c20.667 4.66699 37.667 12.667 51 24c11.333 8.66699 19.333 19.667 24 33s5 25.333 1 36c-3.33301 9.33301 -9.66602 16.333 -18.999 21c-8.66699 4.66699 -20.667 6.66699 -36 6
c-50.667 -2 -96.334 -27.667 -137.001 -77c-9.33301 -11.333 -18 -24 -26 -38c30.667 -8 61 -11.667 91 -11zM257.997 1463c-13.333 4.66699 -22.9961 13.333 -28.9961 26c-6 13.333 -6.66699 26.666 -2 39.999l13 33c-18.667 6 -37 10 -55 12
c-19.333 2.66699 -40 -3.66602 -62 -18.999c-6.66699 -4.66699 -13.334 -9.66699 -20.001 -15c-2 -2 -3.66699 -4 -5 -6l-2 -1v-1c-9.33301 -10.667 -21 -16.667 -35 -18c-14.667 -1.33301 -27.334 2.66699 -38.001 12s-16.667 21 -18 35s2.66699 26.667 12 38h1l1 1
c0.666992 1.33301 1.66699 2.33301 3 3c3.33301 4 6.66602 7.66699 9.99902 11c12 11.333 24.667 21 38 29c42 27.333 84.667 38.333 128 33c27.333 -3.33301 55.333 -9.66602 84 -18.999c14.667 25.333 30.334 48.333 47.001 69c60 73.333 130.667 111.666 212 114.999
c33.333 1.33301 62.666 -5 87.999 -19c31.333 -16 53.666 -40.333 66.999 -73c12 -31.333 13 -64.333 3 -99c-10 -35.333 -29.667 -64.666 -59 -87.999c-42 -34.667 -97.667 -52.334 -167 -53.001c-44.667 -0.666992 -90 6 -136 20l-13 -35c-8 -22.667 -24 -34 -48 -34
c-6 0 -12 1 -18 3z" />
    <glyph glyph-name="uni06440671.fina" unicode="&#xfee0;&#xfb51;" horiz-adv-x="1476" 
d="M633 167c-24 0 -44.999 7.33691 -62.999 22.0039c-18.667 16 -30 35.667 -34 59c-52 291.333 -150 601.333 -294 930c-6 13.333 -9 26.666 -9 39.999c0 11.333 2.33301 23 7 35c10 26 27.333 44.333 52 55c13.333 6 26.666 9 39.999 9c12 0 24 -2.33301 36 -7
c25.333 -10 43.666 -27.667 54.999 -53c150 -342.667 252.333 -667.334 307 -974.001c1.33301 -6.66699 2 -13.334 2 -20.001c0 -18.667 -6 -36.667 -18 -54c-15.333 -22.667 -36.666 -36.334 -63.999 -41.001c-5.33301 -0.666992 -11 -1 -17 -1zM1475 198.004
c27.333 0 50.667 -9.66602 70 -28.999s29 -42.666 29 -69.999s-9.66699 -50.666 -29 -69.999s-42.666 -29 -69.999 -29c-57.333 0 -110.666 13 -159.999 39c-65.333 34 -120.333 89 -165 165c-8.66699 15.333 -17.334 32 -26.001 50
c-22.667 -37.333 -49.334 -71.666 -80.001 -102.999c-140.667 -144.667 -352.667 -217 -636 -217c-27.333 0 -50.666 9.66699 -69.999 29s-29 42.666 -29 69.999s9.66699 50.666 29 69.999s42.666 29 69.999 29c228 0 393 52.333 495 157c82 84.667 123 206 123 364v22
c-2 78 -29 320 -81 726l-7 57c-0.666992 4.66699 -1 9 -1 13c0 21.333 7 41.333 21 60c16.667 21.333 38.667 33.666 66 36.999c4.66699 0.666992 9 1 13 1c21.333 0 41.333 -7 60 -21c21.333 -16.667 33.666 -38.334 36.999 -65.001l7 -57c52.667 -411.333 80 -659 82 -743
c14 -166 46.667 -292.333 98 -379c24.667 -42 52.334 -71.333 83.001 -88c21.333 -12 45 -18 71 -18zM470.002 1552c18.667 0 35.667 2 51 6c20.667 4.66699 37.667 12.667 51 24c11.333 8.66699 19.333 19.667 24 33s5 25.333 1 36
c-3.33301 9.33301 -9.66602 16.333 -18.999 21c-8.66699 4.66699 -20.667 6.66699 -36 6c-50.667 -2 -96.334 -27.667 -137.001 -77c-9.33301 -11.333 -18 -24 -26 -38c30.667 -8 61 -11.667 91 -11zM255.002 1403c-13.333 4.66699 -22.9961 13.333 -28.9961 26
c-6 13.333 -6.66699 26.666 -2 39.999l13 33c-18.667 6 -37 10 -55 12c-19.333 2.66699 -40 -3.66602 -62 -18.999c-6.66699 -4.66699 -13.334 -9.66699 -20.001 -15c-2 -2 -3.66699 -4 -5 -6l-2 -1v-1c-9.33301 -10.667 -21 -16.667 -35 -18
c-14.667 -1.33301 -27.334 2.66699 -38.001 12s-16.667 21 -18 35s2.66699 26.667 12 38h1l1 1c0.666992 1.33301 1.66699 2.33301 3 3c3.33301 4 6.66602 7.66699 9.99902 11c12 11.333 24.667 21 38 29c42 27.333 84.667 38.333 128 33
c27.333 -3.33301 55.333 -9.66602 84 -18.999c14.667 25.333 30.334 48.333 47.001 69c60 73.333 130.667 111.666 212 114.999c33.333 1.33301 62.666 -5 87.999 -19c31.333 -16 53.666 -40.333 66.999 -73c12 -31.333 13 -64.333 3 -99
c-10 -35.333 -29.667 -64.666 -59 -87.999c-42 -34.667 -97.667 -52.334 -167 -53.001c-44.667 -0.666992 -90 6 -136 20l-13 -35c-8 -22.667 -24 -34 -48 -34c-6 0 -12 1 -18 3z" />
    <glyph glyph-name="yeye" unicode="&#xfbff;&#xfbff;" horiz-adv-x="1728" 
d="M1731 198c27.333 0 50.668 -9.66895 70.001 -29.002s29 -42.666 29 -69.999s-9.66699 -50.666 -29 -69.999s-42.666 -29 -69.999 -29c-54.667 -0 -104.667 9.33301 -150 28c-57.333 23.333 -105.666 61.333 -144.999 114l-8 -9c-48 -53.333 -113.667 -90 -197 -110
c-62 -15.333 -180 -23 -354 -23c-27.333 0 -50.666 9.66699 -69.999 29s-29 42.666 -29 69.999s9.66699 50.666 29 69.999s42.666 29 69.999 29c228.667 0 363.667 22.333 405 67c28.667 32 43 84.667 43 158c0 22 -1.33301 45.333 -4 70
c-2.66699 20.667 -5.33398 43.667 -8.00098 69l-2 33l-3 32c-2 28.667 -3.66699 49.667 -5 63c-0.666992 3.33301 -1 7 -1 11c0 22 7.66699 42.333 23 61c17.333 20.667 39.666 32.334 66.999 35.001c3.33301 0.666992 7 1 11 1c22.667 0 43 -7.66699 61 -23
c21.333 -17.333 33.333 -39.666 36 -66.999c1.33301 -14 3 -35.667 5 -65l3 -40l4 -41c3.33301 -31.333 6.66602 -59.333 9.99902 -84c9.33301 -64.667 22.333 -117 39 -157c34 -82 90.667 -123 170 -123zM849.002 197.998c27.333 0 50.668 -9.66895 70.001 -29.002
s29 -42.666 29 -69.999s-9.66699 -50.666 -29 -69.999s-42.666 -29 -69.999 -29c-54.667 0 -104.667 9.33301 -150 28c-57.333 23.333 -105.666 61.333 -144.999 114l-8 -9c-48 -53.333 -113.667 -90 -197 -110c-62 -15.333 -180 -23 -354 -23
c-27.333 0 -50.666 9.66699 -69.999 29s-29 42.666 -29 69.999s9.66699 50.666 29 69.999s42.666 29 69.999 29c228.667 0 363.667 22.333 405 67c28.667 32 43 84.667 43 158c0 22 -1.33301 45.333 -4 70c-2.66699 20.667 -5.33398 43.667 -8.00098 69l-2 33l-3 32
c-2 28.667 -3.66699 49.667 -5 63c-0.666992 3.33301 -1 7 -1 11c0 22 7.66699 42.333 23 61c17.333 20.667 39.666 32.334 66.999 35.001c3.33301 0.666992 7 1 11 1c22.667 0 43 -7.66699 61 -23c21.333 -17.333 33.333 -39.666 36 -66.999c1.33301 -14 3 -35.667 5 -65
l3 -40l4 -41c3.33301 -31.333 6.66602 -59.333 9.99902 -84c9.33301 -64.667 22.333 -117 39 -157c34 -82 90.667 -123 170 -123zM981.004 -408.004c-12 24 -14.0088 49 -6.00879 75s23.667 45.333 47 58c118.667 62 246.334 91 383.001 87
c46.667 -1.33301 92.334 -6.33301 137.001 -15c16.667 -3.33301 32.334 -7 47.001 -11c6 -2 11.667 -3.66699 17 -5l12 -4c24.667 -8 43.334 -24.333 56.001 -49c12 -24 14 -49 6 -75s-23.667 -45.333 -47 -58s-47.666 -14.667 -72.999 -6h-1l-3 1l-4 1
c-3.33301 1.33301 -6.66602 2.33301 -9.99902 3l-33 8c-33.333 6.66699 -67.666 10.667 -102.999 12c-107.333 4.66699 -206.333 -17 -297 -65c-13.333 -7.33301 -27.666 -11 -42.999 -11c-39.333 0 -67.666 18 -84.999 54zM37.9951 -474.004
c-12 24 -14.0088 49 -6.00879 75s23.667 45.333 47 58c118.667 62 246.334 91 383.001 87c46.667 -1.33301 92.334 -6.33301 137.001 -15c16.667 -3.33301 32.334 -7 47.001 -11c6 -2 11.667 -3.66699 17 -5l12 -4c24.667 -8 43.334 -24.333 56.001 -49c12 -24 14 -49 6 -75
s-23.667 -45.333 -47 -58s-47.666 -14.667 -72.999 -6h-1l-3 1l-4 1c-3.33301 1.33301 -6.66602 2.33301 -9.99902 3l-33 8c-33.333 6.66699 -67.666 10.667 -102.999 12c-107.333 4.66699 -206.333 -17 -297 -65c-13.333 -7.33301 -27.666 -11 -42.999 -11
c-39.333 0 -67.666 18 -84.999 54z" />
    <glyph glyph-name="yeye1" unicode="&#xfbfe;&#xfbff;" horiz-adv-x="1708" 
d="M819 29c-19.333 19.333 -28.999 42.666 -28.999 69.999s9.66699 50.666 29 69.999s42.666 29 69.999 29c119.333 0 206.666 5.66699 261.999 17c77.333 16.667 131 49.334 161 98.001c12.667 21.333 19 51.333 19 90c0 30 -3.66699 65.333 -11 106
c-18 92.667 -51.333 190 -100 292c-6.66699 14 -10 28.667 -10 44c0 10.667 1.66699 21.334 5 32.001c9.33301 25.333 26 44 50 56c14 6.66699 28 10 42 10c11.333 0 22.666 -2 33.999 -6c26 -8.66699 44.667 -25.334 56 -50.001
c56.667 -116.667 95.334 -229.667 116.001 -339c10 -52 15 -100 15 -144c0 -78 -16 -143 -48 -195c-56.667 -93.333 -147.334 -154.666 -272.001 -183.999c-71.333 -16.667 -177.666 -25 -318.999 -25c-27.333 0 -50.666 9.66699 -69.999 29zM863.001 198
c27.333 0 50.668 -9.66895 70.001 -29.002s29 -42.666 29 -69.999s-9.66699 -50.666 -29 -69.999s-42.666 -29 -69.999 -29c-54.667 -0 -104.667 9.33301 -150 28c-57.333 23.333 -105.666 61.333 -144.999 114l-8 -9c-48 -53.333 -113.667 -90 -197 -110
c-62 -15.333 -180 -23 -354 -23c-27.333 0 -50.666 9.66699 -69.999 29s-29 42.666 -29 69.999s9.66699 50.666 29 69.999s42.666 29 69.999 29c228.667 0 363.667 22.333 405 67c28.667 32 43 84.667 43 158c0 22 -1.33301 45.333 -4 70
c-2.66699 20.667 -5.33398 43.667 -8.00098 69l-2 33l-3 32c-2 28.667 -3.66699 49.667 -5 63c-0.666992 3.33301 -1 7 -1 11c0 22 7.66699 42.333 23 61c17.333 20.667 39.666 32.334 66.999 35.001c3.33301 0.666992 7 1 11 1c22.667 0 43 -7.66699 61 -23
c21.333 -17.333 33.333 -39.666 36 -66.999c1.33301 -14 3 -35.667 5 -65l3 -40l4 -41c3.33301 -31.333 6.66602 -59.333 9.99902 -84c9.33301 -64.667 22.333 -117 39 -157c34 -82 90.667 -123 170 -123zM896.003 -435.002c-12 24 -14.0088 49 -6.00879 75
s23.667 45.333 47 58c118.667 62 246.334 91 383.001 87c46.667 -1.33301 92.334 -6.33301 137.001 -15c16.667 -3.33301 32.334 -7 47.001 -11c6 -2 11.667 -3.66699 17 -5l12 -4c24.667 -8 43.334 -24.333 56.001 -49c12 -24 14 -49 6 -75s-23.667 -45.333 -47 -58
s-47.666 -14.667 -72.999 -6h-1l-3 1l-4 1c-3.33301 1.33301 -6.66602 2.33301 -9.99902 3l-33 8c-33.333 6.66699 -67.666 10.667 -102.999 12c-107.333 4.66699 -206.333 -17 -297 -65c-13.333 -7.33301 -27.666 -11 -42.999 -11c-39.333 0 -67.666 18 -84.999 54z
M16.9941 -489.002c-12 24 -14.0088 49 -6.00879 75s23.667 45.333 47 58c118.667 62 246.334 91 383.001 87c46.667 -1.33301 92.334 -6.33301 137.001 -15c16.667 -3.33301 32.334 -7 47.001 -11c6 -2 11.667 -3.66699 17 -5l12 -4c24.667 -8 43.334 -24.333 56.001 -49
c12 -24 14 -49 6 -75s-23.667 -45.333 -47 -58s-47.666 -14.667 -72.999 -6h-1l-3 1l-4 1c-3.33301 1.33301 -6.66602 2.33301 -9.99902 3l-33 8c-33.333 6.66699 -67.666 10.667 -102.999 12c-107.333 4.66699 -206.333 -17 -297 -65
c-13.333 -7.33301 -27.666 -11 -42.999 -11c-39.333 0 -67.666 18 -84.999 54z" />
    <glyph glyph-name="uni0621" unicode="&#x621;" horiz-adv-x="1019" arabic-form="isolated" 
d="M122 -110c-6.66699 11.333 -9.99805 23.332 -9.99805 35.999c0 6 0.666992 12 2 18c5.33301 18.667 16.333 33 33 43c38 22.667 77 44.667 117 66c50.667 27.333 101 53 151 77c-101.333 56.667 -158.333 139 -171 247c-1.33301 13.333 -2 26.333 -2 39
c0 54.667 14 106.334 42 155.001c34 58 82.667 101.667 146 131c40.667 18.667 82.667 28 126 28c26.667 0 53.667 -3.33301 81 -10c73.333 -18 130.666 -55.333 171.999 -112c9.33301 -12.667 14 -26.667 14 -42c0 -3.33301 -0.333008 -7 -1 -11
c-3.33301 -19.333 -13 -35 -29 -47c-12.667 -9.33301 -26.334 -14 -41.001 -14c-3.33301 0 -7 0.333008 -11 1c-20 3.33301 -35.667 13 -47 29c-22 29.333 -52.667 49 -92 59c-14.667 3.33301 -29 5 -43 5c-24 0 -47 -5 -69 -15c-36 -17.333 -63.667 -42 -83 -74
c-15.333 -26.667 -23 -55 -23 -85c0 -6.66699 0.333008 -13.334 1 -20.001c9.33301 -77.333 58 -131 146 -161c22 -7.33301 42.333 -11 61 -11c4 0 8 0.333008 12 1c18 1.33301 47.667 8.33301 89 21c36 12.667 71 23.667 105 33c6.66699 2 13.334 3 20.001 3
c12 0 23.333 -3.33301 34 -10c17.333 -9.33301 28.666 -23.333 33.999 -42c2 -6.66699 3 -13.334 3 -20.001c0 -11.333 -3 -22.666 -9 -33.999c-10 -17.333 -24.333 -28.666 -43 -33.999c-12.667 -4 -26.334 -8 -41.001 -12l-37 -12l-23 -7
c-93.333 -32 -192.333 -73.667 -297 -125c-40.667 -20 -81.667 -41.333 -123 -64l-96 -55c-11.333 -6.66699 -23.666 -10 -36.999 -10c-26.667 0 -47 11.667 -61 35z" />
    <glyph glyph-name="uni0622" unicode="&#x622;" horiz-adv-x="994" arabic-form="isolated" 
d="M45 1490c-18 12 -28.999 28.667 -32.999 50c-4.66699 22 -1 42 11 60l10 14l10 15c8 12 16 22.667 24 32c19.333 24 39.666 44 60.999 60c56.667 42.667 122.667 57.334 198 44.001c22.667 -4 49 -10.333 79 -19l41 -12l41 -14l49 -16l48 -14
c34.667 -9.33301 63 -14.666 85 -15.999c76.667 -4 141.334 30.667 194.001 104c12.667 18 30 28.667 52 32c21.333 3.33301 41 -1.33398 59 -14.001c17.333 -12.667 27.666 -30 30.999 -52c4 -21.333 -0.666992 -40.666 -14 -57.999
c-86.667 -120.667 -196.667 -177.334 -330 -170.001c-31.333 2 -68 8.33301 -110 19c-16.667 4.66699 -35.667 10.334 -57 17.001l-57 18c-66 22 -112 35 -138 39c-28.667 5.33301 -52.667 1.66602 -72 -11.001c-18.667 -12.667 -42.667 -41.334 -72 -86.001
c-15.333 -23.333 -37.333 -35 -66 -35c-16 0 -30.667 4.33301 -44 13zM515.001 -50c-27.333 2 -49.668 12.667 -67.001 32c-14.667 16.667 -22 35.334 -22 56.001c0 2.66699 0.333008 6 1 10c14 118 21 255 21 411c0 250.667 -18.333 549 -55 895
c-0.666992 3.33301 -1 6.66602 -1 9.99902c0 20.667 7.66699 39.334 23 56.001c17.333 18.667 39.333 29 66 31c3.33301 0.666992 7 1 11 1c22.667 0 43.334 -7 62.001 -21c20.667 -15.333 32.334 -35.333 35.001 -60c38 -350.667 57 -654.667 57 -912
c0 -162.667 -7.66699 -306.334 -23 -431.001c-2.66699 -22.667 -13.334 -41.667 -32.001 -57c-18.667 -14.667 -40.667 -22 -66 -22z" />
    <glyph glyph-name="uni0623" unicode="&#x623;" horiz-adv-x="543" arabic-form="isolated" 
d="M298 -50c-27.333 2 -49.668 12.667 -67.001 32c-14.667 16.667 -22 35.334 -22 56.001c0 2.66699 0.333008 6 1 10c14 118 21 255 21 411c0 250.667 -18.333 549 -55 895c-0.666992 3.33301 -1 6.66602 -1 9.99902c0 20.667 7.66699 39.334 23 56.001
c17.333 18.667 39.333 29 66 31c3.33301 0.666992 7 1 11 1c22.667 0 43.334 -7 62.001 -21c20.667 -15.333 32.334 -35.333 35.001 -60c38 -350.667 57 -654.667 57 -912c0 -162.667 -7.66699 -306.334 -23 -431.001c-2.66699 -22.667 -13.334 -41.667 -32.001 -57
c-18.667 -14.667 -40.667 -22 -66 -22zM10.998 1481c-7.33301 12 -9.00195 24.999 -5.00195 38.999c4 13.333 12 23.666 24 30.999l157 90c-11.333 4 -21.666 9 -30.999 15c-32 19.333 -56.667 47 -74 83c-17.333 35.333 -24.333 72.333 -21 111c4 36 16.333 69.667 37 101
s47.334 56.333 80.001 75c62.667 35.333 130.667 42.666 204 22c13.333 -4 23.666 -12.333 30.999 -25c6.66699 -12 8 -25 4 -39c-4 -13.333 -12 -23.333 -24 -30c-12.667 -7.33301 -25.667 -9 -39 -5c-46 13.333 -87.667 9 -125 -13c-39.333 -22 -61 -54 -65 -96
c-4.66699 -43.333 10.333 -75.333 45 -96c15.333 -9.33301 33.666 -14.666 54.999 -15.999c8 0 16.333 0.333008 25 1c6.66699 0.666992 13.334 1.66699 20.001 3c18 4 38 10.667 60 20l30 13l30 14c12.667 6 25.334 7 38.001 3c13.333 -4.66699 23.333 -13 30 -25
c6 -12 7.33301 -24.667 4 -38c-4 -13.333 -12 -23.666 -24 -30.999l-396 -226c-8 -4.66699 -16.333 -7 -25 -7c-20 0 -35 8.66699 -45 26z" />
    <glyph glyph-name="uni0624" unicode="&#x624;" horiz-adv-x="1068" arabic-form="isolated" 
d="M132 -657c-18.667 14.667 -30.332 33.332 -34.999 55.999c-2 8 -3 15.667 -3 23c0 18 5.33301 35.333 16 52c14 22.667 34.333 37 61 43c161.333 36 300.666 114 417.999 234c130 132.667 195 283.334 195 452.001c0 94 -24.333 188.667 -73 284
c-58 112.667 -128.667 169 -212 169c-23.333 0 -45.666 -5.33301 -66.999 -16c-16 -8.66699 -31 -20 -45 -34c-50 -50.667 -75 -120.334 -75 -209.001v-10c1.33301 -51.333 22.333 -94 63 -128c50.667 -43.333 117 -65 199 -65c26.667 0 55 2.33301 85 7
c5.33301 0.666992 10.666 1 15.999 1c20.667 0 39.667 -6.33301 57 -19c22 -16 35 -37.667 39 -65c0.666992 -5.33301 1 -10.666 1 -15.999c0 -20.667 -6.33301 -39.667 -19 -57c-16 -22 -37.667 -35 -65 -39c-36.667 -6 -72.334 -9 -107.001 -9
c-47.333 0 -93 5.33301 -137 16c-76.667 18 -142.334 49.667 -197.001 95c-86 72 -130 163.333 -132 274v16c0 142 43.667 257.667 131 347c71.333 72.667 155.666 109 252.999 109c76 0 146.333 -22 211 -66s119.667 -107 165 -189
c36.667 -65.333 64.334 -136.666 83.001 -213.999c16 -65.333 24 -126 24 -182c0 -216.667 -79.333 -409.334 -238 -578.001c-145.333 -154 -321.666 -254.333 -528.999 -301c-7.33301 -1.33301 -14.666 -2 -21.999 -2c-22.667 0 -43 7 -61 21zM200.002 925.998
c-7.33301 12 -9.00195 25 -5.00195 39c4 13.333 12 23.666 24 30.999l157 90c-11.333 4 -21.666 9 -30.999 15c-32 19.333 -56.667 47 -74 83c-17.333 35.333 -24.333 72.333 -21 111c4 36 16.333 69.667 37 101s47.334 56.333 80.001 75
c62.667 35.333 130.667 42.666 204 21.999c13.333 -4 23.666 -12.333 30.999 -25c6.66699 -12 8 -25 4 -39c-4 -13.333 -12 -23.333 -24 -30c-12.667 -7.33301 -25.667 -9 -39 -5c-46 13.333 -87.667 9 -125 -13c-39.333 -22 -61 -54 -65 -96
c-4.66699 -43.333 10.333 -75.333 45 -96c15.333 -9.33301 33.666 -14.666 54.999 -15.999c8 0 16.333 0.333008 25 1c6.66699 0.666992 13.334 1.66699 20.001 3c18 4 38 10.667 60 20l30 13l30 14c12.667 6 25.334 7 38.001 3c13.333 -4.66699 23.333 -13 30 -25
c6 -12 7.33301 -24.667 4 -38c-4 -13.333 -12 -23.666 -24 -30.999l-396 -226c-8 -4.66699 -16.333 -7 -25 -7c-20 0 -35 8.66699 -45 26z" />
    <glyph glyph-name="uni0625" unicode="&#x625;" horiz-adv-x="509" arabic-form="isolated" 
d="M280 -50c-27.333 2 -49.668 12.667 -67.001 32c-14.667 16.667 -22 35.334 -22 56.001c0 2.66699 0.333008 6 1 10c14 118 21 255 21 411c0 250.667 -18.333 549 -55 895c-0.666992 3.33301 -1 6.66602 -1 9.99902c0 20.667 7.66699 39.334 23 56.001
c17.333 18.667 39.333 29 66 31c3.33301 0.666992 7 1 11 1c22.667 0 43.334 -7 62.001 -21c20.667 -15.333 32.334 -35.333 35.001 -60c38 -350.667 57 -654.667 57 -912c0 -162.667 -7.66699 -306.334 -23 -431.001c-2.66699 -22.667 -13.334 -41.667 -32.001 -57
c-18.667 -14.667 -40.667 -22 -66 -22zM7.99805 -689c-7.33301 12 -9.00195 25 -5.00195 39c4 13.333 12 23.666 24 30.999l157 90c-11.333 4 -21.666 9 -30.999 15c-32 19.333 -56.667 47 -74 83c-17.333 35.333 -24.333 72.333 -21 111c4 36 16.333 69.667 37 101
s47.334 56.333 80.001 75c62.667 35.333 130.667 42.666 204 21.999c13.333 -4 23.666 -12.333 30.999 -25c6.66699 -12 8 -25 4 -39c-4 -13.333 -12 -23.333 -24 -30c-12.667 -7.33301 -25.667 -9 -39 -5c-46 13.333 -87.667 9 -125 -13c-39.333 -22 -61 -54 -65 -96
c-4.66699 -43.333 10.333 -75.333 45 -96c15.333 -9.33301 33.666 -14.666 54.999 -15.999c8 0 16.333 0.333008 25 1c6.66699 0.666992 13.334 1.66699 20.001 3c18 4 38 10.667 60 20l30 13l30 14c12.667 6 25.334 7 38.001 3c13.333 -4.66699 23.333 -13 30 -25
c6 -12 7.33301 -24.667 4 -38c-4 -13.333 -12 -23.666 -24 -30.999l-396 -226c-8 -4.66699 -16.333 -7 -25 -7c-20 0 -35 8.66699 -45 26z" />
    <glyph glyph-name="uni0626" unicode="&#x626;" horiz-adv-x="1776" arabic-form="isolated" 
d="M413 -625c-219.333 111.333 -333.999 291.662 -343.999 540.995c-0.666992 12.667 -1 25.334 -1 38.001c0 92.667 15 191.334 45 296.001c26 90.667 62 182 108 274c12.667 24.667 31.667 41.334 57 50.001c10.667 3.33301 21 5 31 5c15.333 0 30.333 -3.66699 45 -11
c24 -12 40.333 -31 49 -57c3.33301 -10.667 5 -21.334 5 -32.001c0 -14.667 -3.33301 -29 -10 -43c-88.667 -178 -133 -339.333 -133 -484c0 -9.33301 0.333008 -18.666 1 -27.999c7.33301 -172 86.333 -296.333 237 -373c82.667 -42 174.334 -63 275.001 -63
c58 0 118.667 7 182 21c174.667 38.667 305.667 115.334 393 230.001c11.333 14.667 21 28.334 29 41.001c6 10 10.667 19 14 27c-14 4.66699 -36 9.66699 -66 15c-11.333 1.33301 -24 3 -38 5l-18 3l-17 2l-30 4l-31 4c-22.667 3.33301 -43.334 7 -62.001 11
c-46 8.66699 -85.333 20.334 -118 35.001c-104.667 46 -157 122 -157 228v8c2.66699 91.333 25.667 181 69 269c44 88.667 104.333 167.667 181 237c77.333 69.333 162.333 121.666 255 156.999c77.333 30 153 45 227 45c13.333 0 27 -0.666992 41 -2
c27.333 -2 49.666 -13.667 66.999 -35c16 -18 24 -38.667 24 -62c0 -3.33301 -0.333008 -6.66602 -1 -9.99902c-2 -26.667 -13.333 -49 -34 -67c-18.667 -15.333 -40 -23 -64 -23h-8c-8.66699 0.666992 -17.334 1 -26.001 1c-51.333 0 -105.666 -11.333 -162.999 -34
c-66.667 -27.333 -128.334 -66.333 -185.001 -117c-120 -108 -181.667 -229.333 -185 -364v-2c0 -20.667 13 -36.667 39 -48c20.667 -9.33301 49 -17.333 85 -24c14 -2.66699 30.667 -5.33398 50 -8.00098l51 -7l48 -6l47 -8c34 -6 63.333 -13.333 88 -22
c60.667 -22 101 -57 121 -105c8.66699 -20.667 13 -42.667 13 -66c0 -25.333 -5.33301 -52 -16 -80c-14 -36.667 -38.333 -77.667 -73 -123c-117.333 -153.333 -286.333 -254 -507 -302c-72 -16 -144.333 -24 -217 -24c-139.333 0 -263.666 27.667 -372.999 83z
M361.001 713.996c-7.33301 12 -9.00195 25 -5.00195 39c4 13.333 12 23.666 24 30.999l157 90c-11.333 4 -21.666 9 -30.999 15c-32 19.333 -56.667 47 -74 83c-17.333 35.333 -24.333 72.333 -21 111c4 36 16.333 69.667 37 101s47.334 56.333 80.001 75
c62.667 35.333 130.667 42.666 204 21.999c13.333 -4 23.666 -12.333 30.999 -25c6.66699 -12 8 -25 4 -39c-4 -13.333 -12 -23.333 -24 -30c-12.667 -7.33301 -25.667 -9 -39 -5c-46 13.333 -87.667 9 -125 -13c-39.333 -22 -61 -54 -65 -96
c-4.66699 -43.333 10.333 -75.333 45 -96c15.333 -9.33301 33.666 -14.666 54.999 -15.999c8 0 16.333 0.333008 25 1c6.66699 0.666992 13.334 1.66699 20.001 3c18 4 38 10.667 60 20l30 13l30 14c12.667 6 25.334 7 38.001 3c13.333 -4.66699 23.333 -13 30 -25
c6 -12 7.33301 -24.667 4 -38c-4 -13.333 -12 -23.666 -24 -30.999l-396 -226c-8 -4.66699 -16.333 -7 -25 -7c-20 0 -35 8.66699 -45 26z" />
    <glyph glyph-name="uni0627" unicode="&#x627;" horiz-adv-x="536" arabic-form="isolated" 
d="M270 -50c-27.333 2.66699 -49.668 14.6621 -67.001 35.9951c-14.667 18.667 -22 39.334 -22 62.001c0 3.33301 0.333008 7 1 11c14 132 21 285 21 459c0 279.333 -18.333 612 -55 998c-0.666992 3.33301 -1 7 -1 11c0 22.667 7.66699 43.334 23 62.001
c17.333 20.667 39.333 32.334 66 35.001c3.33301 0.666992 7 1 11 1c22.667 0 43.334 -7.66699 62.001 -23c20.667 -17.333 32.334 -39.666 35.001 -66.999c38 -391.333 57 -730.333 57 -1017c0 -181.333 -7.66699 -341.666 -23 -480.999
c-2.66699 -25.333 -13.334 -46.333 -32.001 -63s-40.667 -25 -66 -25z" />
    <glyph glyph-name="uni0628" unicode="&#x628;" horiz-adv-x="2013" arabic-form="isolated" 
d="M505 37c-150 36.667 -261.333 100.334 -334 191.001c-67.333 84 -101 174 -101 270c0 10.667 0.333008 21.667 1 33c8.66699 108.667 58.667 214.334 150 317.001c18 20.667 40.667 32 68 34h6c24.667 0 46.667 -8.33301 66 -25c20 -18 31 -40.667 33 -68v-6
c0 -24.667 -8.33301 -46.667 -25 -66c-67.333 -76.667 -101 -149.334 -101 -218.001c0 -8 0.333008 -16 1 -24c2.66699 -26.667 11 -52.334 25 -77.001c4.66699 -9.33301 10.334 -18.666 17.001 -27.999l8 -10l3 -5l3 -4c52.667 -66 148.334 -110.667 287.001 -134
c48.667 -8.66699 102 -14.334 160 -17.001c21.333 -1.33301 43.333 -2 66 -2h51c217.333 0 397.333 19 540 57c142.667 38.667 231 92 265 160c10.667 20.667 16 44 16 70c0 30.667 -7.33301 65 -22 103c-20 53.333 -53.667 112 -101 176c-12.667 17.333 -19 36.333 -19 57
c0 5.33301 0.333008 10.666 1 15.999c4 27.333 17 49 39 65c17.333 12.667 36.333 19 57 19c5.33301 0 10.666 -0.333008 15.999 -1c27.333 -4 49 -17 65 -39c108 -146.667 162 -278.667 162 -396c0 -56 -12.333 -109 -37 -159c-64 -126 -204.667 -215.667 -422 -269
c-86.667 -21.333 -185.334 -36.666 -296.001 -45.999c-84 -7.33301 -172 -11 -264 -11c-153.333 -0 -281.333 12.333 -384 37zM983 -233c6.66699 0.666992 12.999 0.999023 18.999 0.999023c32 0 59.667 -11.667 83 -35c20 -20 31.333 -45 34 -75c0.666992 -4 1 -8 1 -12
c0 -24.667 -7.66699 -47 -23 -67c-3.33301 -5.33301 -7.66602 -10.333 -12.999 -15c-20.667 -19.333 -45 -31 -73 -35c-8 -1.33301 -15.667 -2 -23 -2c-20 0 -39 4.33301 -57 13c-25.333 12 -45.333 30 -60 54c-13.333 22.667 -20 46.334 -20 71.001v7c2 35.333 18 62 48 80
c18.667 11.333 39 17 61 17c8 0 15.667 -0.666992 23 -2z" />
    <glyph glyph-name="uni0629" unicode="&#x629;" horiz-adv-x="990" arabic-form="isolated" 
d="M214 94c-80 69.333 -119.993 159.669 -119.993 271.002c0 66.667 18.333 136 55 208c13.333 27.333 29.666 55.333 48.999 84c7.33301 11.333 15.666 23.333 24.999 36l12 17l11 15l27 37c15.333 22.667 36.333 36.667 63 42c7.33301 2 14.666 3 21.999 3
c18.667 0 36 -5.66699 52 -17c22.667 -15.333 36.667 -36.333 42 -63c1.33301 -7.33301 2 -14.333 2 -21c0 -18.667 -5.33301 -36.334 -16 -53.001l-33 -46l-9 -12l-9 -13l-20 -27c-14.667 -22 -27 -42 -37 -60c-25.333 -48 -38 -91.333 -38 -130
c0 -54.667 19.667 -97.334 59 -128.001c34.667 -26.667 77.667 -40 129 -40c23.333 0 48 3.33301 74 10c31.333 8 58.666 19.333 81.999 34c47.333 30.667 71 71.667 71 123c0 82.667 -45.333 182.334 -136 299.001c-40.667 52.667 -85.334 101 -134.001 145
c-43.333 39.333 -82 68.666 -116 87.999c-24 13.333 -39.333 33.333 -46 60c-2.66699 9.33301 -4 18.333 -4 27c0 16.667 4.33301 32.667 13 48c13.333 23.333 33.333 38.666 60 45.999c9.33301 2.66699 18.333 4 27 4c16.667 0 32.667 -4.33301 48 -13
c106 -60.667 208.667 -155 308 -283c50 -64.667 89.667 -128 119 -190c39.333 -82.667 59 -159.667 59 -231c0 -123.333 -54 -219.666 -162 -288.999c-78.667 -50.667 -166.334 -76 -263.001 -76c-104.667 0 -193.334 31.667 -266.001 95zM111.007 1263
c-12 24 -14.0088 49 -6.00879 75s23.667 45.333 47 58c118.667 62 246.334 91 383.001 87c46.667 -1.33301 92.334 -6.33301 137.001 -15c16.667 -3.33301 32.334 -7 47.001 -11c6 -2 11.667 -3.66699 17 -5l12 -4c24.667 -8 43.334 -24.333 56.001 -49c12 -24 14 -49 6 -75
s-23.667 -45.333 -47 -58s-47.666 -14.667 -72.999 -6h-1l-3 1l-4 1c-3.33301 1.33301 -6.66602 2.33301 -9.99902 3l-33 8c-33.333 6.66699 -67.666 10.667 -102.999 12c-107.333 4.66699 -206.333 -17 -297 -65c-13.333 -7.33301 -27.666 -11 -42.999 -11
c-39.333 0 -67.666 18 -84.999 54z" />
    <glyph glyph-name="uni062A" unicode="&#x62a;" horiz-adv-x="2013" arabic-form="isolated" 
d="M505 37c-150 36.667 -261.333 100.334 -334 191.001c-67.333 84 -101 174 -101 270c0 10.667 0.333008 21.667 1 33c8.66699 108.667 58.667 214.334 150 317.001c18 20.667 40.667 32 68 34h6c24.667 0 46.667 -8.33301 66 -25c20 -18 31 -40.667 33 -68v-6
c0 -24.667 -8.33301 -46.667 -25 -66c-67.333 -76.667 -101 -149.334 -101 -218.001c0 -8 0.333008 -16 1 -24c2.66699 -26.667 11 -52.334 25 -77.001c4.66699 -9.33301 10.334 -18.666 17.001 -27.999l8 -10l3 -5l3 -4c52.667 -66 148.334 -110.667 287.001 -134
c48.667 -8.66699 102 -14.334 160 -17.001c21.333 -1.33301 43.333 -2 66 -2h51c217.333 0 397.333 19 540 57c142.667 38.667 231 92 265 160c10.667 20.667 16 44 16 70c0 30.667 -7.33301 65 -22 103c-20 53.333 -53.667 112 -101 176c-12.667 17.333 -19 36.333 -19 57
c0 5.33301 0.333008 10.666 1 15.999c4 27.333 17 49 39 65c17.333 12.667 36.333 19 57 19c5.33301 0 10.666 -0.333008 15.999 -1c27.333 -4 49 -17 65 -39c108 -146.667 162 -278.667 162 -396c0 -56 -12.333 -109 -37 -159c-64 -126 -204.667 -215.667 -422 -269
c-86.667 -21.333 -185.334 -36.666 -296.001 -45.999c-84 -7.33301 -172 -11 -264 -11c-153.333 -0 -281.333 12.333 -384 37zM652 902c-12 24 -14.0088 49 -6.00879 75s23.667 45.333 47 58c118.667 62 246.334 91 383.001 87c46.667 -1.33301 92.334 -6.33301 137.001 -15
c16.667 -3.33301 32.334 -7 47.001 -11c6 -2 11.667 -3.66699 17 -5l12 -4c24.667 -8 43.334 -24.333 56.001 -49c12 -24 14 -49 6 -75s-23.667 -45.333 -47 -58s-47.666 -14.667 -72.999 -6h-1l-3 1l-4 1c-3.33301 1.33301 -6.66602 2.33301 -9.99902 3l-33 8
c-33.333 6.66699 -67.666 10.667 -102.999 12c-107.333 4.66699 -206.333 -17 -297 -65c-13.333 -7.33301 -27.666 -11 -42.999 -11c-39.333 0 -67.666 18 -84.999 54z" />
    <glyph glyph-name="uni062B" unicode="&#x62b;" horiz-adv-x="2013" arabic-form="isolated" 
d="M505 37c-150 36.667 -261.333 100.334 -334 191.001c-67.333 84 -101 174 -101 270c0 10.667 0.333008 21.667 1 33c8.66699 108.667 58.667 214.334 150 317.001c18 20.667 40.667 32 68 34h6c24.667 0 46.667 -8.33301 66 -25c20 -18 31 -40.667 33 -68v-6
c0 -24.667 -8.33301 -46.667 -25 -66c-67.333 -76.667 -101 -149.334 -101 -218.001c0 -8 0.333008 -16 1 -24c2.66699 -26.667 11 -52.334 25 -77.001c4.66699 -9.33301 10.334 -18.666 17.001 -27.999l8 -10l3 -5l3 -4c52.667 -66 148.334 -110.667 287.001 -134
c48.667 -8.66699 102 -14.334 160 -17.001c21.333 -1.33301 43.333 -2 66 -2h51c217.333 0 397.333 19 540 57c142.667 38.667 231 92 265 160c10.667 20.667 16 44 16 70c0 30.667 -7.33301 65 -22 103c-20 53.333 -53.667 112 -101 176c-12.667 17.333 -19 36.333 -19 57
c0 5.33301 0.333008 10.666 1 15.999c4 27.333 17 49 39 65c17.333 12.667 36.333 19 57 19c5.33301 0 10.666 -0.333008 15.999 -1c27.333 -4 49 -17 65 -39c108 -146.667 162 -278.667 162 -396c0 -56 -12.333 -109 -37 -159c-64 -126 -204.667 -215.667 -422 -269
c-86.667 -21.333 -185.334 -36.666 -296.001 -45.999c-84 -7.33301 -172 -11 -264 -11c-153.333 -0 -281.333 12.333 -384 37zM950 1197c-6.66699 -0.666992 -13 -0.999023 -19 -0.999023c-32 0 -59.667 11.667 -83 35c-20.667 20.667 -32 45.667 -34 75
c-0.666992 4 -1 8 -1 12c0 24.667 7.33301 47 22 67c4 5.33301 8.66699 10.333 14 15c20 19.333 44.333 31 73 35c8 1.33301 15.667 2 23 2c20 0 39 -4.33301 57 -13c25.333 -11.333 45.333 -29.333 60 -54c13.333 -22.667 20 -46.334 20 -71.001v-7
c-2 -35.333 -18 -62 -48 -80c-18.667 -11.333 -39 -17 -61 -17c-8 0 -15.667 0.666992 -23 2zM643 867.001c-12 24 -14.0088 49 -6.00879 75s23.667 45.333 47 58c118.667 62 246.334 91 383.001 87c46.667 -1.33301 92.334 -6.33301 137.001 -15
c16.667 -3.33301 32.334 -7 47.001 -11c6 -2 11.667 -3.66699 17 -5l12 -4c24.667 -8 43.334 -24.333 56.001 -49c12 -24 14 -49 6 -75s-23.667 -45.333 -47 -58s-47.666 -14.667 -72.999 -6h-1l-3 1l-4 1c-3.33301 1.33301 -6.66602 2.33301 -9.99902 3l-33 8
c-33.333 6.66699 -67.666 10.667 -102.999 12c-107.333 4.66699 -206.333 -17 -297 -65c-13.333 -7.33301 -27.666 -11 -42.999 -11c-39.333 0 -67.666 18 -84.999 54z" />
    <glyph glyph-name="uni062C" unicode="&#x62c;" horiz-adv-x="1647" arabic-form="isolated" 
d="M729 -794c-159.333 3.33301 -304.002 53.9961 -434.002 151.996c-146 109.333 -225 245.333 -237 408c-1.33301 18.667 -2 37.334 -2 56.001c0 142.667 40.667 271.667 122 387c78 111.333 191.667 207 341 287c148.667 80 327.667 142.667 537 188
c-114 50 -209 88 -285 114c-102.667 34 -182.334 51 -239.001 51c-100.667 0 -166.667 -54.333 -198 -163c-7.33301 -26 -23 -45.667 -47 -59c-15.333 -8.66699 -31 -13 -47 -13c-9.33301 0 -18.666 1.33301 -27.999 4c-26 8 -45.667 23.667 -59 47
c-8.66699 15.333 -13 31.333 -13 48c0 9.33301 1.33301 18.666 4 27.999c28.667 98.667 76.334 174.334 143.001 227.001s148.334 79 245.001 79c88 0 206.333 -27 355 -81c57.333 -20.667 122.666 -46.667 195.999 -78l97 -42l47 -21l45 -21
c78.667 -35.333 134.334 -59.666 167.001 -72.999c20.667 -8.66699 36.667 -23 48 -43c8.66699 -14.667 13 -30.667 13 -48c0 -4.66699 -0.333008 -9.66699 -1 -15c-3.33301 -22 -13 -41 -29 -57c-16.667 -15.333 -36 -24.333 -58 -27c-55.333 -6 -110.333 -13.333 -165 -22
c-70 -11.333 -137.667 -25 -203 -41c-169.333 -40.667 -313.333 -92.667 -432 -156c-238.667 -128.667 -358 -296.334 -358 -503.001c0 -12.667 0.333008 -25.667 1 -39c8 -105.333 62.333 -195 163 -269c94.667 -69.333 199.667 -105 315 -107h16
c98.667 0 196.667 17.333 294 52c116 42 206.333 101.667 271 179c17.333 20.667 39.666 32.334 66.999 35.001h8c24 0 45.333 -7.66699 64 -23c21.333 -17.333 33 -39.666 35 -66.999c0.666992 -3.33301 1 -6.66602 1 -9.99902c0 -23.333 -8 -44 -24 -62
c-77.333 -92 -181 -165.333 -311 -220c-129.333 -54.667 -264.666 -82 -405.999 -82h-19zM1054 -76.0039c0 -34.667 -13.332 -66.001 -39.999 -94.001c-27.333 -27.333 -57 -41 -89 -41c-33.333 0 -69 13.333 -107 40c-26.667 28.667 -40 60.334 -40 95.001
c0 30.667 14.333 60.667 43 90c29.333 30 60.333 45 93 45c33.333 0 64.666 -13.667 93.999 -41c30.667 -28.667 46 -60 46 -94z" />
    <glyph glyph-name="uni062D" unicode="&#x62d;" horiz-adv-x="1647" arabic-form="isolated" 
d="M729 -794c-159.333 3.33301 -304.002 53.9961 -434.002 151.996c-146 109.333 -225 245.333 -237 408c-1.33301 18.667 -2 37.334 -2 56.001c0 142.667 40.667 271.667 122 387c78 111.333 191.667 207 341 287c148.667 80 327.667 142.667 537 188
c-114 50 -209 88 -285 114c-102.667 34 -182.334 51 -239.001 51c-100.667 0 -166.667 -54.333 -198 -163c-7.33301 -26 -23 -45.667 -47 -59c-15.333 -8.66699 -31 -13 -47 -13c-9.33301 0 -18.666 1.33301 -27.999 4c-26 8 -45.667 23.667 -59 47
c-8.66699 15.333 -13 31.333 -13 48c0 9.33301 1.33301 18.666 4 27.999c28.667 98.667 76.334 174.334 143.001 227.001s148.334 79 245.001 79c88 0 206.333 -27 355 -81c57.333 -20.667 122.666 -46.667 195.999 -78l97 -42l47 -21l45 -21
c78.667 -35.333 134.334 -59.666 167.001 -72.999c20.667 -8.66699 36.667 -23 48 -43c8.66699 -14.667 13 -30.667 13 -48c0 -4.66699 -0.333008 -9.66699 -1 -15c-3.33301 -22 -13 -41 -29 -57c-16.667 -15.333 -36 -24.333 -58 -27c-55.333 -6 -110.333 -13.333 -165 -22
c-70 -11.333 -137.667 -25 -203 -41c-169.333 -40.667 -313.333 -92.667 -432 -156c-238.667 -128.667 -358 -296.334 -358 -503.001c0 -12.667 0.333008 -25.667 1 -39c8 -105.333 62.333 -195 163 -269c94.667 -69.333 199.667 -105 315 -107h16
c98.667 0 196.667 17.333 294 52c116 42 206.333 101.667 271 179c17.333 20.667 39.666 32.334 66.999 35.001h8c24 0 45.333 -7.66699 64 -23c21.333 -17.333 33 -39.666 35 -66.999c0.666992 -3.33301 1 -6.66602 1 -9.99902c0 -23.333 -8 -44 -24 -62
c-77.333 -92 -181 -165.333 -311 -220c-129.333 -54.667 -264.666 -82 -405.999 -82h-19z" />
    <glyph glyph-name="uni062E" unicode="&#x62e;" horiz-adv-x="1647" arabic-form="isolated" 
d="M729 -794c-159.333 3.33301 -304.002 53.9961 -434.002 151.996c-146 109.333 -225 245.333 -237 408c-1.33301 18.667 -2 37.334 -2 56.001c0 142.667 40.667 271.667 122 387c78 111.333 191.667 207 341 287c148.667 80 327.667 142.667 537 188
c-114 50 -209 88 -285 114c-102.667 34 -182.334 51 -239.001 51c-100.667 0 -166.667 -54.333 -198 -163c-7.33301 -26 -23 -45.667 -47 -59c-15.333 -8.66699 -31 -13 -47 -13c-9.33301 0 -18.666 1.33301 -27.999 4c-26 8 -45.667 23.667 -59 47
c-8.66699 15.333 -13 31.333 -13 48c0 9.33301 1.33301 18.666 4 27.999c28.667 98.667 76.334 174.334 143.001 227.001s148.334 79 245.001 79c88 0 206.333 -27 355 -81c57.333 -20.667 122.666 -46.667 195.999 -78l97 -42l47 -21l45 -21
c78.667 -35.333 134.334 -59.666 167.001 -72.999c20.667 -8.66699 36.667 -23 48 -43c8.66699 -14.667 13 -30.667 13 -48c0 -4.66699 -0.333008 -9.66699 -1 -15c-3.33301 -22 -13 -41 -29 -57c-16.667 -15.333 -36 -24.333 -58 -27c-55.333 -6 -110.333 -13.333 -165 -22
c-70 -11.333 -137.667 -25 -203 -41c-169.333 -40.667 -313.333 -92.667 -432 -156c-238.667 -128.667 -358 -296.334 -358 -503.001c0 -12.667 0.333008 -25.667 1 -39c8 -105.333 62.333 -195 163 -269c94.667 -69.333 199.667 -105 315 -107h16
c98.667 0 196.667 17.333 294 52c116 42 206.333 101.667 271 179c17.333 20.667 39.666 32.334 66.999 35.001h8c24 0 45.333 -7.66699 64 -23c21.333 -17.333 33 -39.666 35 -66.999c0.666992 -3.33301 1 -6.66602 1 -9.99902c0 -23.333 -8 -44 -24 -62
c-77.333 -92 -181 -165.333 -311 -220c-129.333 -54.667 -264.666 -82 -405.999 -82h-19zM758.998 1428c0 -34.667 -13.332 -66.001 -39.999 -94.001c-27.333 -27.333 -57 -41 -89 -41c-33.333 0 -69 13.333 -107 40c-26.667 28.667 -40 60.334 -40 95.001
c0 30.667 14.333 60.667 43 90c29.333 30 60.333 45 93 45c33.333 0 64.666 -13.667 93.999 -41c30.667 -28.667 46 -60 46 -94z" />
    <glyph glyph-name="uni062F" unicode="&#x62f;" horiz-adv-x="1127" arabic-form="isolated" 
d="M180 51c-26 8 -45.3311 24 -57.998 48c-8 14.667 -12 29.667 -12 45c0 10 1.66699 20 5 30c7.33301 26 23.333 45.667 48 59c14.667 8 29.667 12 45 12c10 0 20 -1.66699 30 -5c95.333 -28.667 183.666 -43 264.999 -43c45.333 0 88.333 4.33301 129 13
c107.333 23.333 177.666 75.666 210.999 156.999c1.33301 2.66699 2 6 2 10c0 3.33301 -0.333008 7 -1 11c-1.33301 12.667 -5 27.667 -11 45c-16.667 48 -46.667 103 -90 165c-94.667 134.667 -212 251.334 -352 350.001c-22 16 -35.333 37.333 -40 64
c-1.33301 6.66699 -2 13 -2 19c0 20 6 38.333 18 55c16 22.667 37.333 36 64 40c6.66699 1.33301 13 2 19 2c20 0 38.333 -6 55 -18c160 -113.333 293.667 -247 401 -401c52 -74 89 -142.667 111 -206c16.667 -46 25 -88.333 25 -127c0 -30.667 -5.33301 -59 -16 -85
c-60 -144.667 -177.333 -236 -352 -274c-52 -11.333 -108 -17 -168 -17c-105.333 0 -214 17 -326 51z" />
    <glyph glyph-name="uni0630" unicode="&#x630;" horiz-adv-x="1127" arabic-form="isolated" 
d="M180 51c-26 8 -45.3311 24 -57.998 48c-8 14.667 -12 29.667 -12 45c0 10 1.66699 20 5 30c7.33301 26 23.333 45.667 48 59c14.667 8 29.667 12 45 12c10 0 20 -1.66699 30 -5c95.333 -28.667 183.666 -43 264.999 -43c45.333 0 88.333 4.33301 129 13
c107.333 23.333 177.666 75.666 210.999 156.999c1.33301 2.66699 2 6 2 10c0 3.33301 -0.333008 7 -1 11c-1.33301 12.667 -5 27.667 -11 45c-16.667 48 -46.667 103 -90 165c-94.667 134.667 -212 251.334 -352 350.001c-22 16 -35.333 37.333 -40 64
c-1.33301 6.66699 -2 13 -2 19c0 20 6 38.333 18 55c16 22.667 37.333 36 64 40c6.66699 1.33301 13 2 19 2c20 0 38.333 -6 55 -18c160 -113.333 293.667 -247 401 -401c52 -74 89 -142.667 111 -206c16.667 -46 25 -88.333 25 -127c0 -30.667 -5.33301 -59 -16 -85
c-60 -144.667 -177.333 -236 -352 -274c-52 -11.333 -108 -17 -168 -17c-105.333 0 -214 17 -326 51zM599.002 1488c0 -34.667 -13.332 -66.001 -39.999 -94.001c-27.333 -27.333 -57 -41 -89 -41c-33.333 0 -69 13.333 -107 40c-26.667 28.667 -40 60.334 -40 95.001
c0 30.667 14.333 60.667 43 90c29.333 30 60.333 45 93 45c33.333 0 64.666 -13.667 93.999 -41c30.667 -28.667 46 -60 46 -94z" />
    <glyph glyph-name="uni0631" unicode="&#x631;" horiz-adv-x="922" arabic-form="isolated" 
d="M27 -671c-8 15.333 -11.9971 30.668 -11.9971 46.001c0 10 1.66699 20 5 30c8 26 24 45.333 48 58c179.333 95.333 309.333 215.666 390 360.999c98.667 177.333 148 423.333 148 738c0 27.333 9.66699 50.666 29 69.999s42.666 29 69.999 29s50.666 -9.66699 69.999 -29
s29 -42.666 29 -69.999c0 -340 -54.667 -612.333 -164 -817c-101.333 -188 -261 -340 -479 -456c-14.667 -8 -30.334 -12 -47.001 -12c-39.333 0 -68.333 17.333 -87 52z" />
    <glyph glyph-name="uni0632" unicode="&#x632;" horiz-adv-x="922" arabic-form="isolated" 
d="M27 -671c-8 15.333 -11.9971 30.668 -11.9971 46.001c0 10 1.66699 20 5 30c8 26 24 45.333 48 58c179.333 95.333 309.333 215.666 390 360.999c98.667 177.333 148 423.333 148 738c0 27.333 9.66699 50.666 29 69.999s42.666 29 69.999 29s50.666 -9.66699 69.999 -29
s29 -42.666 29 -69.999c0 -340 -54.667 -612.333 -164 -817c-101.333 -188 -261 -340 -479 -456c-14.667 -8 -30.334 -12 -47.001 -12c-39.333 0 -68.333 17.333 -87 52zM835.003 1079c0 -34.667 -13.332 -66.001 -39.999 -94.001c-27.333 -27.333 -57 -41 -89 -41
c-33.333 0 -69 13.333 -107 40c-26.667 28.667 -40 60.334 -40 95.001c0 30.667 14.333 60.667 43 90c29.333 30 60.333 45 93 45c33.333 0 64.666 -13.667 93.999 -41c30.667 -28.667 46 -60 46 -94z" />
    <glyph glyph-name="uni0633" unicode="&#x633;" horiz-adv-x="2692" arabic-form="isolated" 
d="M483 -616c-96 38 -176.997 91.3389 -242.997 160.006c-112 116 -168 258.333 -168 427c0 10 0.333008 20.333 1 31c5.33301 158 74 340 206 546c14.667 22.667 35.334 37 62.001 43c8 2 15.667 3 23 3c18 0 35 -5.33301 51 -16c23.333 -14.667 38 -35.334 44 -62.001
c1.33301 -7.33301 2 -14.333 2 -21c0 -18.667 -5.33301 -36.334 -16 -53.001c-112 -176 -170.333 -325 -175 -447v-21c0 -117.333 37.667 -215 113 -293c99.333 -103.333 235.333 -155 408 -155c80.667 0 157.667 16 231 48c87.333 38.667 154.666 94.667 201.999 168
c50.667 79.333 76 173.333 76 282c0 148.667 -47 325 -141 529c-6.66699 13.333 -10 27 -10 41c0 11.333 2.33301 22.666 7 33.999c9.33301 25.333 26.333 44 51 56c13.333 6 27 9 41 9c11.333 0 22.666 -2 33.999 -6c26 -9.33301 44.667 -26.333 56 -51l5 -12l7 -13l13 -29
l33 -66c29.333 -56 58 -104.333 86 -145c80 -116.667 156 -175 228 -175c58.667 0 96.667 21.667 114 65c18 44 27.333 138.667 28 284v51c0.666992 27.333 10.667 50.666 30 69.999c19.333 18.667 42.666 28 69.999 28c27.333 -0.666992 50.666 -10.334 69.999 -29.001
c18.667 -19.333 28 -42.666 28 -69.999v-13c0 -178 28.667 -296 86 -354c20.667 -20.667 46.334 -31 77 -31c36 0 64.667 5.66699 86 17c15.333 7.33301 27.666 18 37 32c21.333 30.667 32 75 32 133c0 23.333 -1.66699 49 -5 77c-10 86 -33.333 177 -70 273
c-4.66699 12 -7 23.667 -7 35c0 13.333 3 26.666 9 39.999c11.333 25.333 29.666 42.666 55 51.999c12 4.66699 24 7 36 7c13.333 0 26.666 -3 40 -9c24.667 -10.667 42 -29 52 -55c16.667 -43.333 31.334 -87.666 44 -132.999c17.333 -61.333 29.666 -120 37 -176
c4.66699 -36.667 7 -71.334 7 -104.001c0 -103.333 -22.333 -187.333 -67 -252c-26 -38 -59 -68 -99 -90c-52.667 -30 -115 -45 -187 -45c-86 0 -158.333 30 -217 90c-9.33301 8.66699 -18 18.334 -26 29.001c-57.333 -80 -144 -120 -260 -120
c-74.667 0 -146.667 24.667 -216 74l1 -21v-28c0 -148 -35 -277 -105 -387c-67.333 -104.667 -161 -184.334 -281 -239.001c-101.333 -46 -207.333 -69 -318 -69c-109.333 0 -212 18.667 -308 56z" />
    <glyph glyph-name="uni0634" unicode="&#x634;" horiz-adv-x="2692" arabic-form="isolated" 
d="M483 -616c-96 38 -176.997 91.3389 -242.997 160.006c-112 116 -168 258.333 -168 427c0 10 0.333008 20.333 1 31c5.33301 158 74 340 206 546c14.667 22.667 35.334 37 62.001 43c8 2 15.667 3 23 3c18 0 35 -5.33301 51 -16c23.333 -14.667 38 -35.334 44 -62.001
c1.33301 -7.33301 2 -14.333 2 -21c0 -18.667 -5.33301 -36.334 -16 -53.001c-112 -176 -170.333 -325 -175 -447v-21c0 -117.333 37.667 -215 113 -293c99.333 -103.333 235.333 -155 408 -155c80.667 0 157.667 16 231 48c87.333 38.667 154.666 94.667 201.999 168
c50.667 79.333 76 173.333 76 282c0 148.667 -47 325 -141 529c-6.66699 13.333 -10 27 -10 41c0 11.333 2.33301 22.666 7 33.999c9.33301 25.333 26.333 44 51 56c13.333 6 27 9 41 9c11.333 0 22.666 -2 33.999 -6c26 -9.33301 44.667 -26.333 56 -51l5 -12l7 -13l13 -29
l33 -66c29.333 -56 58 -104.333 86 -145c80 -116.667 156 -175 228 -175c58.667 0 96.667 21.667 114 65c18 44 27.333 138.667 28 284v51c0.666992 27.333 10.667 50.666 30 69.999c19.333 18.667 42.666 28 69.999 28c27.333 -0.666992 50.666 -10.334 69.999 -29.001
c18.667 -19.333 28 -42.666 28 -69.999v-13c0 -178 28.667 -296 86 -354c20.667 -20.667 46.334 -31 77 -31c36 0 64.667 5.66699 86 17c15.333 7.33301 27.666 18 37 32c21.333 30.667 32 75 32 133c0 23.333 -1.66699 49 -5 77c-10 86 -33.333 177 -70 273
c-4.66699 12 -7 23.667 -7 35c0 13.333 3 26.666 9 39.999c11.333 25.333 29.666 42.666 55 51.999c12 4.66699 24 7 36 7c13.333 0 26.666 -3 40 -9c24.667 -10.667 42 -29 52 -55c16.667 -43.333 31.334 -87.666 44 -132.999c17.333 -61.333 29.666 -120 37 -176
c4.66699 -36.667 7 -71.334 7 -104.001c0 -103.333 -22.333 -187.333 -67 -252c-26 -38 -59 -68 -99 -90c-52.667 -30 -115 -45 -187 -45c-86 0 -158.333 30 -217 90c-9.33301 8.66699 -18 18.334 -26 29.001c-57.333 -80 -144 -120 -260 -120
c-74.667 0 -146.667 24.667 -216 74l1 -21v-28c0 -148 -35 -277 -105 -387c-67.333 -104.667 -161 -184.334 -281 -239.001c-101.333 -46 -207.333 -69 -318 -69c-109.333 0 -212 18.667 -308 56zM1868 1405.01c-6.66699 -0.666992 -13 -0.999023 -19 -0.999023
c-32 0 -59.667 11.667 -83 35c-20.667 20.667 -32 45.667 -34 75c-0.666992 4 -1 8 -1 12c0 24.667 7.33301 47 22 67c4 5.33301 8.66699 10.333 14 15c20 19.333 44.333 31 73 35c8 1.33301 15.667 2 23 2c20 0 39 -4.33301 57 -13c25.333 -11.333 45.333 -29.333 60 -54
c13.333 -22.667 20 -46.334 20 -71.001v-7c-2 -35.333 -18 -62 -48 -80c-18.667 -11.333 -39 -17 -61 -17c-8 0 -15.667 0.666992 -23 2zM1561 1075.01c-12 24 -14.0049 49 -6.00488 75s23.667 45.333 47 58c118.667 62 246.334 91 383.001 87
c46.667 -1.33301 92.334 -6.33301 137.001 -15c16.667 -3.33301 32.334 -7 47 -11c6 -2 11.667 -3.66699 17 -5l12 -4c24.667 -8 43.334 -24.333 56 -49c12 -24 14 -49 6 -75s-23.667 -45.333 -47 -58s-47.666 -14.667 -73 -6h-1l-3 1l-4 1
c-3.33301 1.33301 -6.66602 2.33301 -10 3l-33 8c-33.333 6.66699 -67.666 10.667 -102.999 12c-107.333 4.66699 -206.333 -17 -297 -65c-13.333 -7.33301 -27.666 -11 -42.999 -11c-39.333 0 -67.666 18 -84.999 54z" />
    <glyph glyph-name="uni0635" unicode="&#x635;" horiz-adv-x="2916" arabic-form="isolated" 
d="M2081 162c36 0 73.667 1.66699 113 5c42 4 85.333 12 130 24c52 14 98.667 32.333 140 55c105.333 58 158 135 158 231c0 67.333 -29.333 118.333 -88 153c-22.667 13.333 -48.667 23.333 -78 30c-24 6 -47.667 9 -71 9c-129.333 0 -250 -48 -362 -144
c-88 -75.333 -168.667 -179 -242 -311c82.667 -34.667 182.667 -52 300 -52zM454 -573c-94.667 50 -168.667 122.001 -222 216.001c-56 98 -84 208.333 -84 331c0 22 1 44.667 3 68c10.667 146.667 56.667 287.667 138 423c14 23.333 34 38.333 60 45c8.66699 2 17 3 25 3
c17.333 0 34 -4.66699 50 -14c23.333 -14 38.333 -34.333 45 -61c2 -8.66699 3 -17 3 -25c0 -16.667 -4.66699 -33 -14 -49c-63.333 -106.667 -100 -216.334 -110 -329.001c-2 -20 -3 -39.333 -3 -58c0 -89.333 19.667 -168 59 -236c72.667 -128 198.667 -192 378 -192
c13.333 0 27 0.333008 41 1c18 0.666992 36.333 2 55 4c49.333 6 95.666 15.333 138.999 28c123.333 36.667 214 98.667 272 186c47.333 71.333 71 158.666 71 261.999v13c-1.33301 134.667 -40.666 292.667 -117.999 474c-5.33301 12.667 -8 25 -8 37s2.33301 24 7 36
c8.66699 24.667 25 42.667 49 54c14 6.66699 28 10 42 10c10 0 20.333 -1.66699 31 -5c25.333 -7.33301 44.333 -22.666 57 -45.999c70.667 -128.667 136 -221.667 196 -279c70.667 124 148.667 227.333 234 310c159.333 155.333 337 233 533 233h2
c108.667 -0.666992 203.334 -30.334 284.001 -89.001c100.667 -74 151 -174.333 151 -301c0 -164.667 -78.667 -294.667 -236 -390c-63.333 -38.667 -136 -68.667 -218 -90c-30 -7.33301 -60.333 -13.666 -91 -18.999c-22 -3.33301 -43.333 -6 -64 -8
c-43.333 -3.33301 -85.333 -5 -126 -5c-206.667 0 -377.334 46.667 -512.001 140l-18 13c2.66699 -28 4 -55.667 4 -83c0 -144.667 -35 -270 -105 -376c-72.667 -110 -178.667 -191.667 -318 -245c-61.333 -23.333 -126.333 -40.333 -195 -51
c-52.667 -8 -105.667 -12 -159 -12c-124 0 -233.333 25.333 -328 76z" />
    <glyph glyph-name="uni0636" unicode="&#x636;" horiz-adv-x="2916" arabic-form="isolated" 
d="M2081 162c36 0 73.667 1.66699 113 5c42 4 85.333 12 130 24c52 14 98.667 32.333 140 55c105.333 58 158 135 158 231c0 67.333 -29.333 118.333 -88 153c-22.667 13.333 -48.667 23.333 -78 30c-24 6 -47.667 9 -71 9c-129.333 0 -250 -48 -362 -144
c-88 -75.333 -168.667 -179 -242 -311c82.667 -34.667 182.667 -52 300 -52zM454 -573c-94.667 50 -168.667 122.001 -222 216.001c-56 98 -84 208.333 -84 331c0 22 1 44.667 3 68c10.667 146.667 56.667 287.667 138 423c14 23.333 34 38.333 60 45c8.66699 2 17 3 25 3
c17.333 0 34 -4.66699 50 -14c23.333 -14 38.333 -34.333 45 -61c2 -8.66699 3 -17 3 -25c0 -16.667 -4.66699 -33 -14 -49c-63.333 -106.667 -100 -216.334 -110 -329.001c-2 -20 -3 -39.333 -3 -58c0 -89.333 19.667 -168 59 -236c72.667 -128 198.667 -192 378 -192
c13.333 0 27 0.333008 41 1c18 0.666992 36.333 2 55 4c49.333 6 95.666 15.333 138.999 28c123.333 36.667 214 98.667 272 186c47.333 71.333 71 158.666 71 261.999v13c-1.33301 134.667 -40.666 292.667 -117.999 474c-5.33301 12.667 -8 25 -8 37s2.33301 24 7 36
c8.66699 24.667 25 42.667 49 54c14 6.66699 28 10 42 10c10 0 20.333 -1.66699 31 -5c25.333 -7.33301 44.333 -22.666 57 -45.999c70.667 -128.667 136 -221.667 196 -279c70.667 124 148.667 227.333 234 310c159.333 155.333 337 233 533 233h2
c108.667 -0.666992 203.334 -30.334 284.001 -89.001c100.667 -74 151 -174.333 151 -301c0 -164.667 -78.667 -294.667 -236 -390c-63.333 -38.667 -136 -68.667 -218 -90c-30 -7.33301 -60.333 -13.666 -91 -18.999c-22 -3.33301 -43.333 -6 -64 -8
c-43.333 -3.33301 -85.333 -5 -126 -5c-206.667 0 -377.334 46.667 -512.001 140l-18 13c2.66699 -28 4 -55.667 4 -83c0 -144.667 -35 -270 -105 -376c-72.667 -110 -178.667 -191.667 -318 -245c-61.333 -23.333 -126.333 -40.333 -195 -51
c-52.667 -8 -105.667 -12 -159 -12c-124 0 -233.333 25.333 -328 76zM2507 1260c0 -34.667 -13.333 -66.001 -40 -94.001c-27.333 -27.333 -57 -41 -89 -41c-33.333 0 -69 13.333 -107 40c-26.667 28.667 -40 60.334 -40 95.001c0 30.667 14.333 60.667 43 90
c29.333 30 60.333 45 93 45c33.333 0 64.666 -13.667 94 -41c30.667 -28.667 46 -60 46 -94z" />
    <glyph glyph-name="uni0637" unicode="&#x637;" horiz-adv-x="1816" arabic-form="isolated" 
d="M1457 385c63.333 58.667 94.998 122.333 94.998 191c0 15.333 -1.66699 31 -5 47c-7.33301 40.667 -21.333 72.334 -42 95.001c-14.667 15.333 -33 27 -55 35c-23.333 8.66699 -49.333 13 -78 13c-33.333 0 -70 -5.66699 -110 -17c-70 -19.333 -129.667 -49 -179 -89
c-124.667 -101.333 -248.334 -241 -371.001 -419c-3.33301 -14.667 -9.66602 -27.334 -18.999 -38.001c56.667 -5.33301 111.334 -8 164.001 -8c114.667 0 220 13 316 39c116.667 32 211.334 82.333 284.001 151zM1741 660.999c6 -30.667 9 -60.666 9 -89.999
c0 -122 -52.333 -232 -157 -330c-96.667 -91.333 -219.334 -157.333 -368.001 -198c-112 -30.667 -234.333 -46 -367 -46c-90.667 0 -186.334 7.33301 -287.001 22l-61 -108c-18.667 -34 -47.667 -51 -87 -51c-16.667 0 -32.667 4 -48 12c-23.333 13.333 -39 33.333 -47 60
c-2.66699 9.33301 -4 18.333 -4 27c0 16.667 4.33301 32.667 13 48l28 50c-89.333 20.667 -178.333 45.667 -267 75c-26 8.66699 -45 25.334 -57 50.001c-7.33301 14 -11 28.667 -11 44c0 10 1.66699 20.333 5 31c8.66699 26 25.334 45 50.001 57
c14.667 7.33301 29.334 11 44.001 11c10.667 0 21 -1.66699 31 -5c104.667 -35.333 208.667 -63.333 312 -84l54 82c38 217.333 57 433 57 647c0 179.333 -13.333 357 -40 533c-0.666992 5.33301 -1 10.666 -1 15.999c0 20.667 6.33301 39.667 19 57c16 22 37.667 35 65 39
c5.33301 0.666992 10.666 1 15.999 1c20.667 0 39.667 -6.33301 57 -19c22 -16 35 -37.667 39 -65c28 -184 42 -371.333 42 -562c0 -110.667 -4.66699 -222.667 -14 -336c62.667 69.333 126.667 130.666 192 183.999c72.667 59.333 158.334 102 257.001 128
c48 12.667 94.333 20 139 22h18c52 0 100.333 -8 145 -24c122 -44 196.667 -136.667 224 -278z" />
    <glyph glyph-name="uni0638" unicode="&#x638;" horiz-adv-x="1816" arabic-form="isolated" 
d="M1457 385c63.333 58.667 94.998 122.333 94.998 191c0 15.333 -1.66699 31 -5 47c-7.33301 40.667 -21.333 72.334 -42 95.001c-14.667 15.333 -33 27 -55 35c-23.333 8.66699 -49.333 13 -78 13c-33.333 0 -70 -5.66699 -110 -17c-70 -19.333 -129.667 -49 -179 -89
c-124.667 -101.333 -248.334 -241 -371.001 -419c-3.33301 -14.667 -9.66602 -27.334 -18.999 -38.001c56.667 -5.33301 111.334 -8 164.001 -8c114.667 0 220 13 316 39c116.667 32 211.334 82.333 284.001 151zM1741 660.999c6 -30.667 9 -60.666 9 -89.999
c0 -122 -52.333 -232 -157 -330c-96.667 -91.333 -219.334 -157.333 -368.001 -198c-112 -30.667 -234.333 -46 -367 -46c-90.667 0 -186.334 7.33301 -287.001 22l-61 -108c-18.667 -34 -47.667 -51 -87 -51c-16.667 0 -32.667 4 -48 12c-23.333 13.333 -39 33.333 -47 60
c-2.66699 9.33301 -4 18.333 -4 27c0 16.667 4.33301 32.667 13 48l28 50c-89.333 20.667 -178.333 45.667 -267 75c-26 8.66699 -45 25.334 -57 50.001c-7.33301 14 -11 28.667 -11 44c0 10 1.66699 20.333 5 31c8.66699 26 25.334 45 50.001 57
c14.667 7.33301 29.334 11 44.001 11c10.667 0 21 -1.66699 31 -5c104.667 -35.333 208.667 -63.333 312 -84l54 82c38 217.333 57 433 57 647c0 179.333 -13.333 357 -40 533c-0.666992 5.33301 -1 10.666 -1 15.999c0 20.667 6.33301 39.667 19 57c16 22 37.667 35 65 39
c5.33301 0.666992 10.666 1 15.999 1c20.667 0 39.667 -6.33301 57 -19c22 -16 35 -37.667 39 -65c28 -184 42 -371.333 42 -562c0 -110.667 -4.66699 -222.667 -14 -336c62.667 69.333 126.667 130.666 192 183.999c72.667 59.333 158.334 102 257.001 128
c48 12.667 94.333 20 139 22h18c52 0 100.333 -8 145 -24c122 -44 196.667 -136.667 224 -278zM1487 1408c0 -34.667 -13.332 -66.001 -39.999 -94.001c-27.333 -27.333 -57 -41 -89 -41c-33.333 0 -69 13.333 -107 40c-26.667 28.667 -40 60.334 -40 95.001
c0 30.667 14.333 60.667 43 90c29.333 30 60.333 45 93 45c33.333 0 64.666 -13.667 93.999 -41c30.667 -28.667 46 -60 46 -94z" />
    <glyph glyph-name="uni0639" unicode="&#x639;" horiz-adv-x="1532" arabic-form="isolated" 
d="M264 -504c-102 104 -152.998 226.334 -152.998 367.001c0 18.667 1 37.667 3 57c14 150.667 64.667 282.667 152 396c75.333 96 176 176.667 302 242c22 11.333 44.333 22 67 32c-69.333 45.333 -121 103.333 -155 174c-25.333 53.333 -38 109.333 -38 168
c0 19.333 1.33301 39 4 59c13.333 98 55 181.333 125 250c70 68 155 108.667 255 122c28 3.33301 55.333 5 82 5c66 0 128.333 -11 187 -33c80.667 -31.333 152.667 -83.333 216 -156c16 -18.667 24 -40 24 -64v-8c-2 -27.333 -13.333 -50 -34 -68
c-18.667 -15.333 -40 -23 -64 -23h-8c-27.333 1.33301 -50 12.333 -68 33c-69.333 81.333 -154.333 122 -255 122c-17.333 0 -35.333 -1.33301 -54 -4c-56 -7.33301 -103.333 -29.333 -142 -66c-38 -37.333 -60.667 -83 -68 -137c-1.33301 -10.667 -2 -21 -2 -31
c0 -42 12.333 -80.333 37 -115c26.667 -36.667 62.667 -64.667 108 -84c43.333 -19.333 97.333 -29 162 -29c31.333 0 65.333 2.33301 102 7c66 11.333 136 21 210 29c4 0.666992 7.66699 1 11 1c22.667 0 43 -7.33301 61 -22c21.333 -17.333 33.666 -39.333 36.999 -66
c0.666992 -4 1 -7.66699 1 -11c0 -22.667 -7.33301 -43.334 -22 -62.001c-16.667 -20.667 -38.667 -32.667 -66 -36l-54 -7l-54 -8l-47 -7l-47 -7c-166 -30 -306 -74.333 -420 -133c-212.667 -110 -328.667 -270.333 -348 -481c-1.33301 -12.667 -2 -25 -2 -37
c0 -88.667 32 -165.667 96 -231c49.333 -50.667 112 -88 188 -112c59.333 -18.667 122.666 -28 189.999 -28c18.667 0 37.667 0.666992 57 2c94.667 6.66699 193.334 35 296.001 85c32 15.333 62.667 32 92 50c9.33301 6 17.666 11.667 24.999 17c2.66699 2 5 3.66699 7 5
l2 1l1 1c17.333 12.667 36.333 19 57 19c5.33301 0 10.666 -0.333008 15.999 -1c26.667 -4 48.334 -17 65.001 -39c12.667 -17.333 19 -36.333 19 -57c0 -5.33301 -0.333008 -10.666 -1 -15.999c-4 -27.333 -16.667 -49 -38 -65l-2 -1l-3 -2l-9 -7l-33 -21
c-35.333 -22.667 -73 -43.667 -113 -63c-124.667 -60.667 -247 -95.334 -367 -104.001c-22.667 -1.33301 -45 -2 -67 -2c-218.667 0 -393 66.667 -523 200z" />
    <glyph glyph-name="uni063A" unicode="&#x63a;" horiz-adv-x="1532" arabic-form="isolated" 
d="M264 -504c-102 104 -152.998 226.334 -152.998 367.001c0 18.667 1 37.667 3 57c14 150.667 64.667 282.667 152 396c75.333 96 176 176.667 302 242c22 11.333 44.333 22 67 32c-69.333 45.333 -121 103.333 -155 174c-25.333 53.333 -38 109.333 -38 168
c0 19.333 1.33301 39 4 59c13.333 98 55 181.333 125 250c70 68 155 108.667 255 122c28 3.33301 55.333 5 82 5c66 0 128.333 -11 187 -33c80.667 -31.333 152.667 -83.333 216 -156c16 -18.667 24 -40 24 -64v-8c-2 -27.333 -13.333 -50 -34 -68
c-18.667 -15.333 -40 -23 -64 -23h-8c-27.333 1.33301 -50 12.333 -68 33c-69.333 81.333 -154.333 122 -255 122c-17.333 0 -35.333 -1.33301 -54 -4c-56 -7.33301 -103.333 -29.333 -142 -66c-38 -37.333 -60.667 -83 -68 -137c-1.33301 -10.667 -2 -21 -2 -31
c0 -42 12.333 -80.333 37 -115c26.667 -36.667 62.667 -64.667 108 -84c43.333 -19.333 97.333 -29 162 -29c31.333 0 65.333 2.33301 102 7c66 11.333 136 21 210 29c4 0.666992 7.66699 1 11 1c22.667 0 43 -7.33301 61 -22c21.333 -17.333 33.666 -39.333 36.999 -66
c0.666992 -4 1 -7.66699 1 -11c0 -22.667 -7.33301 -43.334 -22 -62.001c-16.667 -20.667 -38.667 -32.667 -66 -36l-54 -7l-54 -8l-47 -7l-47 -7c-166 -30 -306 -74.333 -420 -133c-212.667 -110 -328.667 -270.333 -348 -481c-1.33301 -12.667 -2 -25 -2 -37
c0 -88.667 32 -165.667 96 -231c49.333 -50.667 112 -88 188 -112c59.333 -18.667 122.666 -28 189.999 -28c18.667 0 37.667 0.666992 57 2c94.667 6.66699 193.334 35 296.001 85c32 15.333 62.667 32 92 50c9.33301 6 17.666 11.667 24.999 17c2.66699 2 5 3.66699 7 5
l2 1l1 1c17.333 12.667 36.333 19 57 19c5.33301 0 10.666 -0.333008 15.999 -1c26.667 -4 48.334 -17 65.001 -39c12.667 -17.333 19 -36.333 19 -57c0 -5.33301 -0.333008 -10.666 -1 -15.999c-4 -27.333 -16.667 -49 -38 -65l-2 -1l-3 -2l-9 -7l-33 -21
c-35.333 -22.667 -73 -43.667 -113 -63c-124.667 -60.667 -247 -95.334 -367 -104.001c-22.667 -1.33301 -45 -2 -67 -2c-218.667 0 -393 66.667 -523 200zM1049 1715c0 -34.667 -13.332 -66.001 -39.999 -94.001c-27.333 -27.333 -57 -41 -89 -41
c-33.333 0 -69 13.333 -107 40c-26.667 28.667 -40 60.334 -40 95.001c0 30.667 14.333 60.667 43 90c29.333 30 60.333 45 93 45c33.333 0 64.666 -13.667 93.999 -41c30.667 -28.667 46 -60 46 -94z" />
    <glyph glyph-name="uni0641" unicode="&#x641;" horiz-adv-x="1982" arabic-form="isolated" 
d="M1454 925c-28.667 -9.33301 -55.334 -32.666 -80.001 -69.999c-24 -36.667 -40 -79 -48 -127c-2.66699 -14.667 -4 -28.334 -4 -41.001c0 -18 2.66699 -34 8 -48c6 -16.667 16.333 -31 31 -43c32 -25.333 79 -40.333 141 -45c10.667 -0.666992 21 -1 31 -1
c50.667 0 100.334 8 149.001 24c-0.666992 18 -2.33398 36.333 -5.00098 55c-15.333 108.667 -52.666 192.667 -111.999 252c-31.333 31.333 -61 47 -89 47c-8 0 -15.333 -1 -22 -3zM965 0c-381.333 0 -632.665 75.9971 -753.998 227.997c-67.333 84 -101 174 -101 270
c0 10.667 0.333008 21.667 1 33c8.66699 108.667 58.667 214.334 150 317.001c18 20.667 40.667 32 68 34h6c24.667 0 46.667 -8.33301 66 -25c20 -18 31 -40.667 33 -68v-6c0 -24.667 -8.33301 -46.667 -25 -66c-67.333 -76.667 -101 -149.334 -101 -218.001
c0 -8 0.333008 -16 1 -24c2.66699 -26.667 11 -52.334 25 -77.001c4.66699 -9.33301 10.334 -18.666 17.001 -27.999l8 -10l3 -5l3 -4c34.667 -43.333 92.334 -77.666 173.001 -102.999c106.667 -33.333 249 -50 427 -50h65c29.333 0.666992 57 1.33398 83 2.00098
c70 3.33301 133.333 9.33301 190 18c161.333 24.667 269.666 72 324.999 142c-33.333 -4.66699 -66 -7 -98 -7c-38 0 -75.333 3.33301 -112 10c-73.333 14 -134 40.667 -182 80c-74.667 61.333 -112 141.666 -112 240.999c0 24.667 2.33301 50.667 7 78
c14.667 86 46 160.667 94 224c47.333 64 103.666 106.333 168.999 127c18 6 37 10 57 12c7.33301 0.666992 14.666 1 21.999 1c17.333 0 34.666 -1.66699 51.999 -5c64 -11.333 124 -44.666 180 -99.999c92 -92 148.333 -215 169 -369c4.66699 -36 7 -70.667 7 -104
c0 -109.333 -25.333 -203 -76 -281c-77.333 -117.333 -216.666 -195.666 -417.999 -234.999c-70 -14 -149 -23.333 -237 -28c-32.667 -2 -67.334 -3.33301 -104.001 -4h-81zM1623 1483c0 -34.667 -13.332 -66.001 -39.999 -94.001c-27.333 -27.333 -57 -41 -89 -41
c-33.333 0 -69 13.333 -107 40c-26.667 28.667 -40 60.334 -40 95.001c0 30.667 14.333 60.667 43 90c29.333 30 60.333 45 93 45c33.333 0 64.666 -13.667 93.999 -41c30.667 -28.667 46 -60 46 -94z" />
    <glyph glyph-name="uni0642" unicode="&#x642;" horiz-adv-x="1581" arabic-form="isolated" 
d="M263 -442c-115.333 115.333 -172.998 256.331 -172.998 422.998c0 196 57.333 365 172 507c17.333 21.333 39.333 33.333 66 36c4 0.666992 7.66699 1 11 1c22.667 0 43.334 -7.33301 62.001 -22c21.333 -17.333 33.333 -39.666 36 -66.999c0.666992 -4 1 -8.33301 1 -13
c0 -21.333 -7.33301 -41 -22 -59c-85.333 -106 -128 -233.667 -128 -383v-3c0 -110.667 38.333 -204 115 -280c93.333 -93.333 220.666 -140 381.999 -140c158.667 0 285 47.667 379 143c107.333 109.333 161 256 161 440v14c0 102.667 -25.667 208 -77 316
c-58.667 124 -127.667 186 -207 186c-23.333 0 -45.666 -5.33301 -66.999 -16c-16 -8.66699 -31 -20 -45 -34c-50 -51.333 -75 -122.333 -75 -213v-7c1.33301 -50.667 22.333 -93 63 -127c50.667 -43.333 117 -65 199 -65c26.667 0 55 2.33301 85 7
c5.33301 0.666992 10.666 1 15.999 1c20.667 0 39.667 -6.33301 57 -19c22 -16.667 35 -38.334 39 -65.001c0.666992 -5.33301 1 -10.666 1 -15.999c0 -21.333 -6.33301 -40.666 -19 -57.999c-16 -22 -37.667 -35 -65 -39c-35.333 -5.33301 -70 -8 -104 -8
c-48.667 0 -95.334 5.33301 -140.001 16c-76.667 17.333 -142.334 49 -197.001 95c-86 72 -130 163.333 -132 274v16c0 142 43.667 257.333 131 346c71.333 73.333 155.666 110 252.999 110c150.667 0 273 -87 367 -261c76 -141.333 114 -287.333 114 -438v-17
c0 -110.667 -18 -215 -54 -313c-38 -104 -92.333 -192 -163 -264c-133.333 -134.667 -306.666 -202 -519.999 -202c-216 0 -390 66 -522 198zM655.002 1132c-12 24 -14.0088 49 -6.00879 75s23.667 45.333 47 58c118.667 62 246.334 91 383.001 87
c46.667 -1.33301 92.334 -6.33301 137.001 -15c16.667 -3.33301 32.334 -7 47.001 -11c6 -2 11.667 -3.66699 17 -5l12 -4c24.667 -8 43.334 -24.333 56.001 -49c12 -24 14 -49 6 -75s-23.667 -45.333 -47 -58s-47.666 -14.667 -72.999 -6h-1l-3 1l-4 1
c-3.33301 1.33301 -6.66602 2.33301 -9.99902 3l-33 8c-33.333 6.66699 -67.666 10.667 -102.999 12c-107.333 4.66699 -206.333 -17 -297 -65c-13.333 -7.33301 -27.666 -11 -42.999 -11c-39.333 0 -67.666 18 -84.999 54z" />
    <glyph glyph-name="uni0643" unicode="&#x643;" horiz-adv-x="2024" arabic-form="isolated" 
d="M766 518c-7.33301 12 -9.00098 24.999 -5.00098 38.999c3.33301 13.333 11.333 23.666 24 30.999l157 90c-11.333 4 -21.666 9 -30.999 15c-32 19.333 -56.667 47 -74 83c-17.333 35.333 -24.333 72.333 -21 111c4 36 16.333 69.667 37 101s47.334 56.333 80.001 75
c62.667 35.333 130.667 42.666 204 21.999c13.333 -4 23.666 -12.333 30.999 -25c6.66699 -12 8 -25 4 -39c-4 -13.333 -12 -23.333 -24 -30c-12.667 -7.33301 -25.667 -9 -39 -5c-46 12.667 -87.667 8.33398 -125 -12.999c-39.333 -22 -61 -54 -65 -96
c-4.66699 -43.333 10.333 -75.333 45 -96c15.333 -9.33301 33.666 -14.666 54.999 -15.999c8 0 16.333 0.333008 25 1c6.66699 0.666992 13.334 1.66699 20.001 3c18 4 38 10.667 60 20l30 13l30 14c12 6 24.667 7 38 3c13.333 -4.66699 23.333 -13 30 -25
c6 -12 7.33301 -24.667 4 -38c-4 -13.333 -12 -23.666 -24 -30.999l-396 -226c-8 -4.66699 -16.333 -7 -25 -7c-20 0 -35 8.66699 -45 26zM136.999 263.999c-79.333 114 -88.001 255.334 -26.001 424.001c9.33301 25.333 26.333 44 51 56c24.667 11.333 50 12.333 76 3
c25.333 -10 43.666 -27.333 54.999 -52s12.333 -49.667 3 -75c-38 -104 -37 -185 3 -243c35.333 -50.667 100.333 -90.667 195 -120c125.333 -39.333 297.333 -59 516 -59c284 0 473.667 48 569 144c68.667 68.667 102.334 177 101.001 325
c-2.66699 272.667 -28.334 537 -77.001 793c-5.33301 27.333 -0.333008 52 15 74c15.333 22.667 36.333 36.667 63 42s51.334 0.333008 74.001 -15s36.667 -36.333 42 -63c51.333 -268.667 78.333 -545 81 -829c1.33301 -202.667 -51.667 -358.334 -159 -467.001
c-133.333 -134.667 -369.666 -202 -708.999 -202c-459.333 0 -750.333 88 -873 264z" />
    <glyph glyph-name="uni0644" unicode="&#x644;" horiz-adv-x="1483" arabic-form="isolated" 
d="M707 -659c-159.333 0 -291 41.001 -395 123.001c-140.667 111.333 -212.334 266.333 -215.001 465v13c0 78 11 160.333 33 247c18 70 42.333 140.333 73 211c10.667 25.333 28.667 43 54 53c12 4.66699 24.333 7 37 7s25.334 -2.66699 38.001 -8
c25.333 -10.667 43 -28.667 53 -54c4.66699 -12 7 -24.333 7 -37s-2.66699 -25.667 -8 -39c-20.667 -48.667 -38 -97.334 -52 -146.001c-20 -67.333 -32 -131 -36 -191c-1.33301 -15.333 -2 -30.333 -2 -45c0 -140 46.667 -247 140 -321c68.667 -53.333 158.667 -80 270 -80
h24c122.667 4 223.667 36.667 303 98c77.333 60 123.666 155.667 138.999 287c4 36 6 76 6 120c0 20 -0.333008 40.667 -1 62c-1.33301 28 -3.33301 59.333 -6 94l-3 46l-4 46c-5.33301 58.667 -8.66602 102 -9.99902 130c-8.66699 146 -23.667 366 -45 660l-21 283
c-2 30.667 -4 59.667 -6 87c-0.666992 8.66699 -1.33398 16.667 -2.00098 24v8l-1 1v8c0 24 8 45.333 24 64c18 20.667 40.667 32 68 34h8c23.333 0 44.333 -8 63 -24c20.667 -17.333 32.334 -39.666 35.001 -66.999v-9c0.666992 -7.33301 1.33398 -15.333 2.00098 -24
l6 -87l21 -284c21.333 -295.333 36.333 -516.333 45 -663c1.33301 -26 4.66602 -67.333 9.99902 -124l4 -51l4 -52c2.66699 -39.333 4.66699 -75 6 -107c0.666992 -19.333 1 -38 1 -56c0 -58.667 -3.33301 -112.334 -10 -161.001c-24 -176 -94.667 -309.667 -212 -401
c-112.667 -87.333 -251.667 -134 -417 -140h-28z" />
    <glyph glyph-name="uni0645" unicode="&#x645;" horiz-adv-x="1237" arabic-form="isolated" 
d="M857 234c26.667 0 48.666 4.33398 65.999 13.001l2 1l3 1c2.66699 2 5 3.66699 7 5c6 4.66699 11.333 11 16 19c11.333 20.667 17 51.667 17 93v7c-0.666992 65.333 -14 128.666 -40 189.999c-31.333 75.333 -71 113 -119 113c-13.333 0 -26.666 -4 -39.999 -12
c-16.667 -10 -33 -26.667 -49 -50c-40.667 -59.333 -76 -157.333 -106 -294c-1.33301 -6 -3 -11.667 -5 -17c105.333 -46 188 -69 248 -69zM179.999 -763.999c-18.667 15.333 -29.9971 35.3271 -33.9971 59.9941c-10.667 70 -20.334 142 -29.001 216
c-12.667 101.333 -22.667 199.333 -30 294c-9.33301 124.667 -14 239.334 -14 344.001c0 111.333 5.33301 211.333 16 300c4.66699 38.667 25 65.334 61 80.001c14 5.33301 27.333 8 40 8c21.333 0 41.333 -7.66699 60 -23c45.333 -37.333 104.666 -77.333 177.999 -120
c24.667 106.667 54.334 194.334 89.001 263.001c40.667 80.667 90 139 148 175c44 27.333 91.667 41 143 41h1c124 -0.666992 219.333 -67.667 286 -201c46 -91.333 69.667 -190.333 71 -297v-9c0 -82 -16.667 -149.667 -50 -203c-26.667 -42 -62.334 -73.667 -107.001 -95
c-42.667 -20.667 -92.334 -31 -149.001 -31c-96 0 -211.333 30 -346 90c-80.667 36 -161 79.333 -241 130c-1.33301 -36 -2 -73.333 -2 -112c0 -129.333 7.66699 -275 23 -437c7.33301 -75.333 16 -151.666 26 -228.999l12 -89l10 -65
c0.666992 -5.33301 1 -10.666 1 -15.999c0 -21.333 -6.33301 -40.666 -19 -57.999c-16 -22 -37.667 -35 -65 -39l-15 -1c-24 0 -45.333 8 -64 24z" />
    <glyph glyph-name="uni0646" unicode="&#x646;" horiz-adv-x="1604" arabic-form="isolated" 
d="M256 -482c-112.667 113.333 -168.998 251.329 -168.998 413.996c0 89.333 17.333 182.666 52 279.999s80 181 136 251c17.333 21.333 39.333 33.333 66 36c4 0.666992 7.66699 1 11 1c22.667 0 43.334 -7.33301 62.001 -22c21.333 -17.333 33.333 -39.666 36 -66.999
c0.666992 -4 1 -7.66699 1 -11c0 -22 -7.33301 -42.333 -22 -61c-42.667 -52.667 -77.334 -117 -104.001 -193c-26.667 -75.333 -40 -146.666 -40 -213.999v-3c0 -107.333 37 -197.666 111 -270.999c94 -94 224 -141 390 -141c209.333 0 355.666 58 438.999 174
c59.333 81.333 89.333 192 90 332v5c0 138.667 -28.333 294 -85 466c-3.33301 10.667 -5 21 -5 31c0 14.667 3.66699 29.334 11 44.001c12 24.667 31 41.334 57 50.001c10.667 3.33301 21 5 31 5c15.333 0 30.333 -3.66699 45 -11c24 -12 40.333 -31 49 -57
c24 -72 43.333 -143 58 -213c19.333 -90.667 31 -176.334 35 -257.001c0.666992 -20.667 1 -40.667 1 -60c0 -183.333 -42 -333.666 -126 -450.999c-123.333 -170.667 -323.333 -256 -600 -256c-220.667 0 -397.334 66.333 -530.001 199zM957.002 649.996
c0 -34.667 -13.332 -66.001 -39.999 -94.001c-27.333 -27.333 -57 -41 -89 -41c-33.333 0 -69 13.333 -107 40c-26.667 28.667 -40 60.334 -40 95.001c0 30.667 14.333 60.667 43 90c29.333 30 60.333 45 93 45c33.333 0 64.666 -13.667 93.999 -41
c30.667 -28.667 46 -60 46 -94z" />
    <glyph glyph-name="uni0647" unicode="&#x647;" horiz-adv-x="990" arabic-form="isolated" 
d="M214 94c-80 69.333 -119.993 159.669 -119.993 271.002c0 66.667 18.333 136 55 208c13.333 27.333 29.666 55.333 48.999 84c7.33301 11.333 15.666 23.333 24.999 36l12 17l11 15l27 37c15.333 22.667 36.333 36.667 63 42c7.33301 2 14.666 3 21.999 3
c18.667 0 36 -5.66699 52 -17c22.667 -15.333 36.667 -36.333 42 -63c1.33301 -7.33301 2 -14.333 2 -21c0 -18.667 -5.33301 -36.334 -16 -53.001l-33 -46l-9 -12l-9 -13l-20 -27c-14.667 -22 -27 -42 -37 -60c-25.333 -48 -38 -91.333 -38 -130
c0 -54.667 19.667 -97.334 59 -128.001c34.667 -26.667 77.667 -40 129 -40c23.333 0 48 3.33301 74 10c31.333 8 58.666 19.333 81.999 34c47.333 30.667 71 71.667 71 123c0 82.667 -45.333 182.334 -136 299.001c-40.667 52.667 -85.334 101 -134.001 145
c-43.333 39.333 -82 68.666 -116 87.999c-24 13.333 -39.333 33.333 -46 60c-2.66699 9.33301 -4 18.333 -4 27c0 16.667 4.33301 32.667 13 48c13.333 23.333 33.333 38.666 60 45.999c9.33301 2.66699 18.333 4 27 4c16.667 0 32.667 -4.33301 48 -13
c106 -60.667 208.667 -155 308 -283c50 -64.667 89.667 -128 119 -190c39.333 -82.667 59 -159.667 59 -231c0 -123.333 -54 -219.666 -162 -288.999c-78.667 -50.667 -166.334 -76 -263.001 -76c-104.667 0 -193.334 31.667 -266.001 95z" />
    <glyph glyph-name="uni0648" unicode="&#x648;" horiz-adv-x="1078" arabic-form="isolated" 
d="M132 -657c-18.667 14.667 -30.332 33.332 -34.999 55.999c-2 8 -3 15.667 -3 23c0 18 5.33301 35.333 16 52c14 22.667 34.333 37 61 43c161.333 36 300.666 114 417.999 234c130 132.667 195 283.334 195 452.001c0 94 -24.333 188.667 -73 284
c-58 112.667 -128.667 169 -212 169c-23.333 0 -45.666 -5.33301 -66.999 -16c-16 -8.66699 -31 -20 -45 -34c-50 -50.667 -75 -120.334 -75 -209.001v-10c1.33301 -51.333 22.333 -94 63 -128c50.667 -43.333 117 -65 199 -65c26.667 0 55 2.33301 85 7
c5.33301 0.666992 10.666 1 15.999 1c20.667 0 39.667 -6.33301 57 -19c22 -16 35 -37.667 39 -65c0.666992 -5.33301 1 -10.666 1 -15.999c0 -20.667 -6.33301 -39.667 -19 -57c-16 -22 -37.667 -35 -65 -39c-36.667 -6 -72.334 -9 -107.001 -9
c-47.333 0 -93 5.33301 -137 16c-76.667 18 -142.334 49.667 -197.001 95c-86 72 -130 163.333 -132 274v16c0 142 43.667 257.667 131 347c71.333 72.667 155.666 109 252.999 109c76 0 146.333 -22 211 -66s119.667 -107 165 -189
c36.667 -65.333 64.334 -136.666 83.001 -213.999c16 -65.333 24 -126 24 -182c0 -216.667 -79.333 -409.334 -238 -578.001c-145.333 -154 -321.666 -254.333 -528.999 -301c-7.33301 -1.33301 -14.666 -2 -21.999 -2c-22.667 0 -43 7 -61 21z" />
    <glyph glyph-name="uni0649" unicode="&#x649;" horiz-adv-x="1793" arabic-form="isolated" 
d="M413 -625c-219.333 111.333 -333.999 291.662 -343.999 540.995c-0.666992 12.667 -1 25.334 -1 38.001c0 92.667 15 191.334 45 296.001c26 90.667 62 182 108 274c12.667 24.667 31.667 41.334 57 50.001c10.667 3.33301 21 5 31 5c15.333 0 30.333 -3.66699 45 -11
c24 -12 40.333 -31 49 -57c3.33301 -10.667 5 -21.334 5 -32.001c0 -14.667 -3.33301 -29 -10 -43c-88.667 -178 -133 -339.333 -133 -484c0 -9.33301 0.333008 -18.666 1 -27.999c7.33301 -172 86.333 -296.333 237 -373c82.667 -42 174.334 -63 275.001 -63
c58 0 118.667 7 182 21c174.667 38.667 305.667 115.334 393 230.001c11.333 14.667 21 28.334 29 41.001c6 10 10.667 19 14 27c-14 4.66699 -36 9.66699 -66 15c-11.333 1.33301 -24 3 -38 5l-18 3l-17 2l-30 4l-31 4c-22.667 3.33301 -43.334 7 -62.001 11
c-46 8.66699 -85.333 20.334 -118 35.001c-104.667 46 -157 122 -157 228v8c2.66699 91.333 25.667 181 69 269c44 88.667 104.333 167.667 181 237c77.333 69.333 162.333 121.666 255 156.999c77.333 30 153 45 227 45c13.333 0 27 -0.666992 41 -2
c27.333 -2 49.666 -13.667 66.999 -35c16 -18 24 -38.667 24 -62c0 -3.33301 -0.333008 -6.66602 -1 -9.99902c-2 -26.667 -13.333 -49 -34 -67c-18.667 -15.333 -40 -23 -64 -23h-8c-8.66699 0.666992 -17.334 1 -26.001 1c-51.333 0 -105.666 -11.333 -162.999 -34
c-66.667 -27.333 -128.334 -66.333 -185.001 -117c-120 -108 -181.667 -229.333 -185 -364v-2c0 -20.667 13 -36.667 39 -48c20.667 -9.33301 49 -17.333 85 -24c14 -2.66699 30.667 -5.33398 50 -8.00098l51 -7l48 -6l47 -8c34 -6 63.333 -13.333 88 -22
c60.667 -22 101 -57 121 -105c8.66699 -20.667 13 -42.667 13 -66c0 -25.333 -5.33301 -52 -16 -80c-14 -36.667 -38.333 -77.667 -73 -123c-117.333 -153.333 -286.333 -254 -507 -302c-72 -16 -144.333 -24 -217 -24c-139.333 0 -263.666 27.667 -372.999 83z" />
    <glyph glyph-name="uni064A" unicode="&#x64a;" horiz-adv-x="1793" arabic-form="isolated" 
d="M413 -625c-219.333 111.333 -333.999 291.662 -343.999 540.995c-0.666992 12.667 -1 25.334 -1 38.001c0 92.667 15 191.334 45 296.001c26 90.667 62 182 108 274c12.667 24.667 31.667 41.334 57 50.001c10.667 3.33301 21 5 31 5c15.333 0 30.333 -3.66699 45 -11
c24 -12 40.333 -31 49 -57c3.33301 -10.667 5 -21.334 5 -32.001c0 -14.667 -3.33301 -29 -10 -43c-88.667 -178 -133 -339.333 -133 -484c0 -9.33301 0.333008 -18.666 1 -27.999c7.33301 -172 86.333 -296.333 237 -373c82.667 -42 174.334 -63 275.001 -63
c58 0 118.667 7 182 21c174.667 38.667 305.667 115.334 393 230.001c11.333 14.667 21 28.334 29 41.001c6 10 10.667 19 14 27c-14 4.66699 -36 9.66699 -66 15c-11.333 1.33301 -24 3 -38 5l-18 3l-17 2l-30 4l-31 4c-22.667 3.33301 -43.334 7 -62.001 11
c-46 8.66699 -85.333 20.334 -118 35.001c-104.667 46 -157 122 -157 228v8c2.66699 91.333 25.667 181 69 269c44 88.667 104.333 167.667 181 237c77.333 69.333 162.333 121.666 255 156.999c77.333 30 153 45 227 45c13.333 0 27 -0.666992 41 -2
c27.333 -2 49.666 -13.667 66.999 -35c16 -18 24 -38.667 24 -62c0 -3.33301 -0.333008 -6.66602 -1 -9.99902c-2 -26.667 -13.333 -49 -34 -67c-18.667 -15.333 -40 -23 -64 -23h-8c-8.66699 0.666992 -17.334 1 -26.001 1c-51.333 0 -105.666 -11.333 -162.999 -34
c-66.667 -27.333 -128.334 -66.333 -185.001 -117c-120 -108 -181.667 -229.333 -185 -364v-2c0 -20.667 13 -36.667 39 -48c20.667 -9.33301 49 -17.333 85 -24c14 -2.66699 30.667 -5.33398 50 -8.00098l51 -7l48 -6l47 -8c34 -6 63.333 -13.333 88 -22
c60.667 -22 101 -57 121 -105c8.66699 -20.667 13 -42.667 13 -66c0 -25.333 -5.33301 -52 -16 -80c-14 -36.667 -38.333 -77.667 -73 -123c-117.333 -153.333 -286.333 -254 -507 -302c-72 -16 -144.333 -24 -217 -24c-139.333 0 -263.666 27.667 -372.999 83z
M444.001 -1053c-12 24 -14.0088 49 -6.00879 75s23.667 45.333 47 58c118.667 62 246.334 91 383.001 87c46.667 -1.33301 92.334 -6.33301 137.001 -15c16.667 -3.33301 32.334 -7 47.001 -11c6 -2 11.667 -3.66699 17 -5l12 -4c24.667 -8 43.334 -24.333 56.001 -49
c12 -24 14 -49 6 -75s-23.667 -45.333 -47 -58s-47.666 -14.667 -72.999 -6h-1l-3 1l-4 1c-3.33301 1.33301 -6.66602 2.33301 -9.99902 3l-33 8c-33.333 6.66699 -67.666 10.667 -102.999 12c-107.333 4.66699 -206.333 -17 -297 -65
c-13.333 -7.33301 -27.666 -11 -42.999 -11c-39.333 0 -67.666 18 -84.999 54z" />
    <glyph glyph-name="uni066E.init" unicode="&#x66e;" horiz-adv-x="715" 
d="M-74 29c-19.333 19.333 -28.999 42.666 -28.999 69.999s9.66699 50.666 29 69.999s42.666 29 69.999 29c119.333 0 206.666 5.66699 261.999 17c77.333 16.667 131 49.334 161 98.001c12.667 21.333 19 51.333 19 90c0 30 -3.66699 65.333 -11 106
c-18 92.667 -51.333 190 -100 292c-6.66699 14 -10 28.667 -10 44c0 10.667 1.66699 21.334 5 32.001c9.33301 25.333 26 44 50 56c14 6.66699 28 10 42 10c11.333 0 22.666 -2 33.999 -6c26 -8.66699 44.667 -25.334 56 -50.001
c56.667 -116.667 95.334 -229.667 116.001 -339c10 -52 15 -100 15 -144c0 -78 -16 -143 -48 -195c-56.667 -93.333 -147.334 -154.666 -272.001 -183.999c-71.333 -16.667 -177.666 -25 -318.999 -25c-27.333 0 -50.666 9.66699 -69.999 29z" />
    <glyph glyph-name="uni066E.medi" unicode="&#x66e;" horiz-adv-x="748" 
d="M738 198c27.333 0 50.6689 -9.66895 70.002 -29.002s29 -42.666 29 -69.999s-9.66699 -50.666 -29 -69.999s-42.666 -29 -69.999 -29c-54.667 -0 -104.667 9.33301 -150 28c-57.333 23.333 -105.666 61.333 -144.999 114l-8 -9c-48 -53.333 -113.667 -90 -197 -110
c-62 -15.333 -143.333 -23 -244 -23c-27.333 0 -50.666 9.66699 -69.999 29s-29 42.666 -29 69.999s9.66699 50.666 29 69.999s42.666 29 69.999 29c155.333 0 253.666 22.333 294.999 67c28.667 32 43 84.667 43 158c0 22 -1.33301 45.333 -4 70
c-2.66699 20.667 -5.33398 43.667 -8.00098 69l-2 33l-3 32c-2 28.667 -3.66699 49.667 -5 63c-0.666992 3.33301 -1 7 -1 11c0 22 7.66699 42.333 23 61c17.333 20.667 39.666 32.334 66.999 35.001c3.33301 0.666992 7 1 11 1c22.667 0 43 -7.66699 61 -23
c21.333 -17.333 33.333 -39.666 36 -66.999c1.33301 -14 3 -35.667 5 -65l3 -40l4 -41c3.33301 -31.333 6.66602 -59.333 9.99902 -84c9.33301 -64.667 22.333 -117 39 -157c34 -82 90.667 -123 170 -123z" />
    <glyph glyph-name="uni066E.fina" unicode="&#x66e;" horiz-adv-x="2316" 
d="M449 38c-144 58.667 -243 143.33 -297 253.997c-28 58 -42 120.333 -42 187c0 59.333 11 122.333 33 189c16.667 50.667 38.667 100 66 148c23.333 40.667 47 75 71 103c18 20.667 40.667 31.667 68 33h8c24 0 45.333 -8 64 -24c20.667 -17.333 32 -39.666 34 -66.999v-8
c0 -24 -8 -45.333 -24 -64c-15.333 -17.333 -31.333 -40.333 -48 -69c-21.333 -36.667 -38.333 -74.667 -51 -114c-12.667 -38 -20 -74.333 -22 -109c-0.666992 -6 -1 -12 -1 -18c0 -38 7.33301 -71.667 22 -101c33.333 -69.333 103 -123.666 209 -162.999
c93.333 -34.667 194.333 -52 303 -52c273.333 0 487 40 641 120s270 211.333 348 394c9.33301 22.667 25 39.334 47 50.001c14 6.66699 28.333 10 43 10c8 0 16.333 -1 25 -3c24 -6 43 -19 57 -39c12 -16.667 18 -35 18 -55c0 -3.33301 -0.333008 -7 -1 -11l-1 -10l-4 -46
l-4 -47c-1.33301 -21.333 -2 -41.333 -2 -60c0 -12.667 0.333008 -24.334 1 -35.001c4.66699 -70.667 23 -123.667 55 -159c45.333 -50 126.666 -75 244 -75c27.333 0 50.666 -9.66699 70 -29c19.333 -19.333 29 -42.666 29 -69.999s-9.66699 -50.666 -29 -69.999
s-42.666 -29 -70 -29c-176 0 -306.333 46.667 -391 140c-40.667 45.333 -69.667 101 -87 167c-70 -78.667 -152.667 -143.334 -248 -194.001c-184.667 -98 -431.667 -147 -741 -147c-142 0 -273 24.333 -393 73z" />
    <glyph glyph-name="uni066F.init" unicode="&#x66f;" horiz-adv-x="932" 
d="M427 925c-28.667 -9.33301 -55.001 -32.667 -79.001 -70c-24 -36.667 -40.333 -79 -49 -127c-2.66699 -14 -4 -27 -4 -39c0 -19.333 3 -36 9 -50c6 -16.667 16.333 -31 31 -43c31.333 -25.333 78 -40.333 140 -45c10.667 -0.666992 21 -1 31 -1
c50.667 0 100.667 8 150 24c-0.666992 18 -2.33398 36.333 -5.00098 55c-15.333 108.667 -52.666 192.667 -111.999 252c-32 31.333 -62 47 -90 47c-7.33301 0 -14.666 -1 -21.999 -3zM-84.001 28.999c-19.333 19.333 -28.998 42.666 -28.998 69.999
s9.66699 50.666 29 69.999s42.666 29 69.999 29h67c28.667 0.666992 55 1.33398 79 2.00098c65.333 3.33301 123.666 9.33301 174.999 18c142 24.667 240.333 72 295 142c-33.333 -4.66699 -66 -7 -98 -7c-38.667 0 -76 3.33301 -112 10c-73.333 14 -134 40.667 -182 80
c-74.667 61.333 -112 141.333 -112 240c0 25.333 2.33301 51.666 7 78.999c14.667 86 45.667 160.667 93 224c48 64 104.333 106.333 169 127c18.667 6 37.667 10 57 12c7.33301 0.666992 15 1 23 1c17.333 0 34.333 -1.66699 51 -5c64 -11.333 124 -44.666 180 -99.999
c92 -92 148.333 -215 169 -369c4.66699 -36.667 7 -71.667 7 -105c0 -108.667 -25.333 -202 -76 -280c-76.667 -117.333 -207.334 -195.666 -392.001 -234.999c-62 -13.333 -130.667 -22.333 -206 -27c-52 -3.33301 -116.667 -5 -194 -5
c-27.333 0 -50.666 9.66699 -69.999 29z" />
    <glyph glyph-name="uni066F.medi" unicode="&#x66f;" horiz-adv-x="1001" 
d="M361 633c-23.333 -42.667 -35.333 -87.001 -36 -133.001v-8c0 -42 10.333 -78.667 31 -110c30.667 -46.667 75 -84 133 -112c55.333 28 98.333 65 129 111c22.667 34.667 34 76.334 34 125.001v4c0 51.333 -11.667 99 -35 143c-4.66699 8.66699 -10 17 -16 25
c-7.33301 10.667 -15.333 20 -24 28c-23.333 22.667 -48.333 34 -75 34c-55.333 0 -102.333 -35.667 -141 -107zM898 0.999023c-50 0.666992 -95.333 2.66504 -136 5.99805c-104.667 8 -195.334 24.667 -272.001 50c-29.333 -10 -60.666 -18.667 -93.999 -26
c-62.667 -13.333 -135.667 -22.333 -219 -27c-32.667 -2 -91.334 -3.33301 -176.001 -4c-27.333 0 -50.666 9.66699 -69.999 29s-29 42.666 -29 69.999s9.66699 50.666 29 69.999s42.666 29 69.999 29l103 1c52 1.33301 98.333 4 139 8c-19.333 20.667 -37 43 -53 67
c-41.333 64 -62 136.333 -62 217v15c2 77.333 21.667 151 59 221c36 66 81.667 117.667 137 155c56 37.333 115.333 56 178 56c59.333 0 114 -16.667 164 -50c50.667 -33.333 92.334 -80.666 125.001 -141.999c39.333 -73.333 59 -152.333 59 -237v-8
c-1.33301 -87.333 -23.666 -163.666 -66.999 -228.999c-15.333 -22.667 -32 -44 -50 -64c43.333 -4.66699 92.666 -7.66699 147.999 -9l125 -1c27.333 0 50.666 -9.66699 69.999 -29s29 -42.666 29 -69.999s-9.66699 -50.666 -29 -69.999s-42.666 -29 -69.999 -29z" />
    <glyph glyph-name="uni066F.fina" unicode="&#x66f;" horiz-adv-x="1570" 
d="M975 635c-16 -8 -31 -19.333 -45 -34c-49.333 -50.667 -74 -120 -74 -208v-10c2 -57.333 21.667 -99.333 59 -126c54.667 -39.333 155.334 -59 302.001 -59h107c-9.33301 104.667 -38.333 202.667 -87 294c-56.667 106.667 -121.334 160 -194.001 160
c-23.333 0 -46 -5.66699 -68 -17zM265 -447c-115.333 115.333 -173.002 256.332 -173.002 422.999c0 196 57.333 365 172 507c17.333 21.333 39.333 33.333 66 36c4.66699 0.666992 9 1 13 1c22 0 42 -7.33301 60 -22c21.333 -17.333 33.333 -39.666 36 -66.999
c0.666992 -4 1 -8.33301 1 -13c0 -21.333 -7.33301 -41 -22 -59c-85.333 -106 -128 -233.667 -128 -383v-3c0 -110.667 38.333 -204 115 -280c93.333 -93.333 220.666 -140 381.999 -140c158.667 0 285 47.667 379 143c76.667 77.333 126.334 178.666 149.001 303.999h-98
c-160 0 -283 22 -369 66c-122 62.667 -185 166.667 -189 312v19c0 139.333 43 253.333 129 342c72 74 157 111 255 111c142 0 259.333 -78 352 -234c74.667 -126 117.334 -265.333 128.001 -418h49c27.333 0 50.666 -9.66699 69.999 -29s29 -42.666 29 -69.999
s-9.66699 -50.666 -29 -69.999s-42.666 -29 -69.999 -29h-57c-26 -180.667 -95.333 -328.334 -208 -443.001c-133.333 -134.667 -306.666 -202 -519.999 -202c-216 0 -390 66 -522 198z" />
    <glyph glyph-name="uni0671" unicode="&#x671;" horiz-adv-x="711" arabic-form="isolated" 
d="M421 -50c-27.333 2 -49.668 12.667 -67.001 32c-14.667 16.667 -22 35.334 -22 56.001c0 2.66699 0.333008 6 1 10c14 118 21 255 21 411c0 250.667 -18.333 549 -55 895c-0.666992 3.33301 -1 6.66602 -1 9.99902c0 20.667 7.66699 39.334 23 56.001
c17.333 18.667 39.333 29 66 31c3.33301 0.666992 7 1 11 1c22.667 0 43.334 -7 62.001 -21c20.667 -15.333 32.334 -35.333 35.001 -60c38 -350.667 57 -654.667 57 -912c0 -162.667 -7.66699 -306.334 -23 -431.001c-2.66699 -22.667 -13.334 -41.667 -32.001 -57
c-18.667 -14.667 -40.667 -22 -66 -22zM469.998 1676c18.667 0 35.667 2 51 6c20.667 4.66699 37.667 12.667 51 24c11.333 8.66699 19.333 19.667 24 33s5 25.333 1 36c-3.33301 9.33301 -9.66602 16.333 -18.999 21c-8.66699 4.66699 -20.667 6.66699 -36 6
c-50.667 -2 -96.334 -27.667 -137.001 -77c-9.33301 -11.333 -18 -24 -26 -38c30.667 -8 61 -11.667 91 -11zM254.998 1527c-13.333 4.66699 -22.9961 13.333 -28.9961 26c-6 13.333 -6.66699 26.666 -2 39.999l13 33c-18.667 6 -37 10 -55 12
c-19.333 2.66699 -40 -3.66602 -62 -18.999c-6.66699 -4.66699 -13.334 -9.66699 -20.001 -15c-2 -2 -3.66699 -4 -5 -6l-2 -1v-1c-9.33301 -10.667 -21 -16.667 -35 -18c-14.667 -1.33301 -27.334 2.66699 -38.001 12s-16.667 21 -18 35s2.66699 26.667 12 38h1l1 1
c0.666992 1.33301 1.66699 2.33301 3 3c3.33301 4 6.66602 7.66699 9.99902 11c12 11.333 24.667 21 38 29c42 27.333 84.667 38.333 128 33c27.333 -3.33301 55.333 -9.66602 84 -18.999c14.667 25.333 30.334 48.333 47.001 69c60 73.333 130.667 111.666 212 114.999
c33.333 1.33301 62.666 -5 87.999 -19c31.333 -16 53.666 -40.333 66.999 -73c12 -31.333 13 -64.333 3 -99c-10 -35.333 -29.667 -64.666 -59 -87.999c-42 -34.667 -97.667 -52.334 -167 -53.001c-44.667 -0.666992 -90 6 -136 20l-13 -35c-8 -22.667 -24 -34 -48 -34
c-6 0 -12 1 -18 3z" />
    <glyph glyph-name="uni067E" unicode="&#x67e;" horiz-adv-x="2013" arabic-form="isolated" 
d="M505 37c-150 36.667 -261.333 100.334 -334 191.001c-67.333 84 -101 174 -101 270c0 10.667 0.333008 21.667 1 33c8.66699 108.667 58.667 214.334 150 317.001c18 20.667 40.667 32 68 34h6c24.667 0 46.667 -8.33301 66 -25c20 -18 31 -40.667 33 -68v-6
c0 -24.667 -8.33301 -46.667 -25 -66c-67.333 -76.667 -101 -149.334 -101 -218.001c0 -8 0.333008 -16 1 -24c2.66699 -26.667 11 -52.334 25 -77.001c4.66699 -9.33301 10.334 -18.666 17.001 -27.999l8 -10l3 -5l3 -4c52.667 -66 148.334 -110.667 287.001 -134
c48.667 -8.66699 102 -14.334 160 -17.001c21.333 -1.33301 43.333 -2 66 -2h51c217.333 0 397.333 19 540 57c142.667 38.667 231 92 265 160c10.667 20.667 16 44 16 70c0 30.667 -7.33301 65 -22 103c-20 53.333 -53.667 112 -101 176c-12.667 17.333 -19 36.333 -19 57
c0 5.33301 0.333008 10.666 1 15.999c4 27.333 17 49 39 65c17.333 12.667 36.333 19 57 19c5.33301 0 10.666 -0.333008 15.999 -1c27.333 -4 49 -17 65 -39c108 -146.667 162 -278.667 162 -396c0 -56 -12.333 -109 -37 -159c-64 -126 -204.667 -215.667 -422 -269
c-86.667 -21.333 -185.334 -36.666 -296.001 -45.999c-84 -7.33301 -172 -11 -264 -11c-153.333 -0 -281.333 12.333 -384 37zM1039 -595c6.66699 0.666992 13 0.999023 19 0.999023c32 0 59.667 -11.667 83 -35c20.667 -20.667 32 -45.667 34 -75c0.666992 -4 1 -8 1 -12
c0 -24.667 -7.33301 -47 -22 -67c-4 -5.33301 -8.66699 -10.333 -14 -15c-20 -19.333 -44.333 -31 -73 -35c-8 -1.33301 -15.667 -2 -23 -2c-20 0 -39 4.33301 -57 13c-25.333 11.333 -45.333 29.333 -60 54c-13.333 22.667 -20 46.334 -20 71.001v7c2 35.333 18 62 48 80
c18.667 11.333 39 17 61 17c8 0 15.667 -0.666992 23 -2zM1346 -265.001c12 -24 14.0029 -49 6.00293 -75s-24 -45.333 -48 -58c-118 -62 -245.667 -91 -383 -87c-46 1.33301 -91.667 6.33301 -137 15c-16 3.33301 -31.333 7 -46 11c-6 2 -11.667 3.66699 -17 5l-12 4
c-25.333 8 -44 24.333 -56 49c-12 24 -14 49 -6 75s23.667 45.333 47 58s47.666 14.667 72.999 6h1l3 -1l3 -1c4 -1.33301 7.66699 -2.33301 11 -3l33 -8c33.333 -6.66699 67.666 -10.667 102.999 -12c106.667 -4.66699 205.667 17 297 65
c13.333 7.33301 27.666 11 42.999 11c38.667 0 67 -18 85 -54z" />
    <glyph glyph-name="uni0686" unicode="&#x686;" horiz-adv-x="1647" arabic-form="isolated" 
d="M729 -794c-159.333 3.33301 -304.002 53.9961 -434.002 151.996c-146 109.333 -225 245.333 -237 408c-1.33301 18.667 -2 37.334 -2 56.001c0 142.667 40.667 271.667 122 387c78 111.333 191.667 207 341 287c148.667 80 327.667 142.667 537 188
c-114 50 -209 88 -285 114c-102.667 34 -182.334 51 -239.001 51c-100.667 0 -166.667 -54.333 -198 -163c-7.33301 -26 -23 -45.667 -47 -59c-15.333 -8.66699 -31 -13 -47 -13c-9.33301 0 -18.666 1.33301 -27.999 4c-26 8 -45.667 23.667 -59 47
c-8.66699 15.333 -13 31.333 -13 48c0 9.33301 1.33301 18.666 4 27.999c28.667 98.667 76.334 174.334 143.001 227.001s148.334 79 245.001 79c88 0 206.333 -27 355 -81c57.333 -20.667 122.666 -46.667 195.999 -78l97 -42l47 -21l45 -21
c78.667 -35.333 134.334 -59.666 167.001 -72.999c20.667 -8.66699 36.667 -23 48 -43c8.66699 -14.667 13 -30.667 13 -48c0 -4.66699 -0.333008 -9.66699 -1 -15c-3.33301 -22 -13 -41 -29 -57c-16.667 -15.333 -36 -24.333 -58 -27c-55.333 -6 -110.333 -13.333 -165 -22
c-70 -11.333 -137.667 -25 -203 -41c-169.333 -40.667 -313.333 -92.667 -432 -156c-238.667 -128.667 -358 -296.334 -358 -503.001c0 -12.667 0.333008 -25.667 1 -39c8 -105.333 62.333 -195 163 -269c94.667 -69.333 199.667 -105 315 -107h16
c98.667 0 196.667 17.333 294 52c116 42 206.333 101.667 271 179c17.333 20.667 39.666 32.334 66.999 35.001h8c24 0 45.333 -7.66699 64 -23c21.333 -17.333 33 -39.666 35 -66.999c0.666992 -3.33301 1 -6.66602 1 -9.99902c0 -23.333 -8 -44 -24 -62
c-77.333 -92 -181 -165.333 -311 -220c-129.333 -54.667 -264.666 -82 -405.999 -82h-19zM906.998 -213.004c6.66699 0.666992 13 0.999023 19 0.999023c32 0 59.667 -11.667 83 -35c20.667 -20.667 32 -45.667 34 -75c0.666992 -4 1 -8 1 -12
c0 -24.667 -7.33301 -47 -22 -67c-4 -5.33301 -8.66699 -10.333 -14 -15c-20 -19.333 -44.333 -31 -73 -35c-8 -1.33301 -15.667 -2 -23 -2c-20 0 -39 4.33301 -57 13c-25.333 11.333 -45.333 29.333 -60 54c-13.333 22.667 -20 46.334 -20 71.001v7c2 35.333 18 62 48 80
c18.667 11.333 39 17 61 17c8 0 15.667 -0.666992 23 -2zM1214 116.995c12 -24 14.0029 -49 6.00293 -75s-24 -45.333 -48 -58c-118 -62 -245.667 -91 -383 -87c-46 1.33301 -91.667 6.33301 -137 15c-16 3.33301 -31.333 7 -46 11c-6 2 -11.667 3.66699 -17 5l-12 4
c-25.333 8 -44 24.333 -56 49c-12 24 -14 49 -6 75s23.667 45.333 47 58s47.666 14.667 72.999 6h1l3 -1l3 -1c4 -1.33301 7.66699 -2.33301 11 -3l33 -8c33.333 -6.66699 67.666 -10.667 102.999 -12c106.667 -4.66699 205.667 17 297 65
c13.333 7.33301 27.666 11 42.999 11c38.667 0 67 -18 85 -54z" />
    <glyph glyph-name="uni0698" unicode="&#x698;" horiz-adv-x="1032" arabic-form="isolated" 
d="M27 -671c-8 15.333 -11.9971 30.668 -11.9971 46.001c0 10 1.66699 20 5 30c8 26 24 45.333 48 58c179.333 95.333 309.333 215.666 390 360.999c98.667 177.333 148 423.333 148 738c0 27.333 9.66699 50.666 29 69.999s42.666 29 69.999 29s50.666 -9.66699 69.999 -29
s29 -42.666 29 -69.999c0 -340 -54.667 -612.333 -164 -817c-101.333 -188 -261 -340 -479 -456c-14.667 -8 -30.334 -12 -47.001 -12c-39.333 0 -68.333 17.333 -87 52zM626.003 1217c-6.66699 -0.666992 -13 -0.999023 -19 -0.999023c-32 0 -59.667 11.667 -83 35
c-20.667 20.667 -32 45.667 -34 75c-0.666992 4 -1 8 -1 12c0 24.667 7.33301 47 22 67c4 5.33301 8.66699 10.333 14 15c20 19.333 44.333 31 73 35c8 1.33301 15.667 2 23 2c20 0 39 -4.33301 57 -13c25.333 -11.333 45.333 -29.333 60 -54
c13.333 -22.667 20 -46.334 20 -71.001v-7c-2 -35.333 -18 -62 -48 -80c-18.667 -11.333 -39 -17 -61 -17c-8 0 -15.667 0.666992 -23 2zM319.003 887.003c-12 24 -14.0088 49 -6.00879 75s23.667 45.333 47 58c118.667 62 246.334 91 383.001 87
c46.667 -1.33301 92.334 -6.33301 137.001 -15c16.667 -3.33301 32.334 -7 47.001 -11c6 -2 11.667 -3.66699 17 -5l12 -4c24.667 -8 43.334 -24.333 56.001 -49c12 -24 14 -49 6 -75s-23.667 -45.333 -47 -58s-47.666 -14.667 -72.999 -6h-1l-3 1l-4 1
c-3.33301 1.33301 -6.66602 2.33301 -9.99902 3l-33 8c-33.333 6.66699 -67.666 10.667 -102.999 12c-107.333 4.66699 -206.333 -17 -297 -65c-13.333 -7.33301 -27.666 -11 -42.999 -11c-39.333 0 -67.666 18 -84.999 54z" />
    <glyph glyph-name="uni06A9" unicode="&#x6a9;" horiz-adv-x="2320" arabic-form="isolated" 
d="M137 264c-79.333 114 -88 255.336 -26 424.003c9.33301 25.333 26.333 44 51 56c24.667 11.333 50 12.333 76 3c25.333 -10 43.666 -27.333 54.999 -52s12.333 -49.667 3 -75c-38 -104 -37 -185 3 -243c35.333 -50.667 100.333 -90.667 195 -120
c125.333 -39.333 297.333 -59 516 -59h79c34 0.666992 65.667 1.66699 95 3c78.667 3.33301 148 10 208 20c166.667 28 262.667 82 288 162c28 88 0.333008 196.333 -83 325c-72.667 112.667 -171.334 218 -296.001 316c-21.333 16.667 -33.666 38.667 -36.999 66
s3.33398 51.666 20.001 72.999s38.667 33.666 66 36.999s51.666 -3.33398 72.999 -20.001c150.667 -118.667 268.334 -247.334 353.001 -386.001c106 -173.333 136.667 -330.333 92 -471c-45.333 -144 -174 -239.333 -386 -286c-69.333 -15.333 -149 -25.666 -239 -30.999
c-61.333 -4 -139 -6 -233 -6c-459.333 0 -750.333 88 -873 264zM1130 1225c-17.333 12.667 -29.333 29 -36 49c-9.33301 26 -8 51 4 75c12 24.667 31 41.667 57 51c425.333 147.333 754 319 986 515c20.667 18 44.667 25.667 72 23c27.333 -2 49.666 -13.333 66.999 -34
c18 -21.333 25.667 -45.333 23 -72c-2 -27.333 -13.333 -50 -34 -68c-157.333 -133.333 -329.666 -246 -516.999 -338c-131.333 -64.667 -309 -135.667 -533 -213c-10 -4 -20.667 -6 -32 -6c-20.667 0 -39.667 6 -57 18z" />
    <glyph glyph-name="uni06AF" unicode="&#x6af;" horiz-adv-x="2320" arabic-form="isolated" 
d="M137 264c-79.333 114 -88 255.336 -26 424.003c9.33301 25.333 26.333 44 51 56c24.667 11.333 50 12.333 76 3c25.333 -10 43.666 -27.333 54.999 -52s12.333 -49.667 3 -75c-38 -104 -37 -185 3 -243c35.333 -50.667 100.333 -90.667 195 -120
c125.333 -39.333 297.333 -59 516 -59h79c34 0.666992 65.667 1.66699 95 3c78.667 3.33301 148 10 208 20c166.667 28 262.667 82 288 162c28 88 0.333008 196.333 -83 325c-72.667 112.667 -171.334 218 -296.001 316c-21.333 16.667 -33.666 38.667 -36.999 66
s3.33398 51.666 20.001 72.999s38.667 33.666 66 36.999s51.666 -3.33398 72.999 -20.001c150.667 -118.667 268.334 -247.334 353.001 -386.001c106 -173.333 136.667 -330.333 92 -471c-45.333 -144 -174 -239.333 -386 -286c-69.333 -15.333 -149 -25.666 -239 -30.999
c-61.333 -4 -139 -6 -233 -6c-459.333 0 -750.333 88 -873 264zM1130 1225c-17.333 12.667 -29.333 29 -36 49c-9.33301 26 -8 51 4 75c12 24.667 31 41.667 57 51c425.333 147.333 754 319 986 515c20.667 18 44.667 25.667 72 23c27.333 -2 49.666 -13.333 66.999 -34
c18 -21.333 25.667 -45.333 23 -72c-2 -27.333 -13.333 -50 -34 -68c-157.333 -133.333 -329.666 -246 -516.999 -338c-131.333 -64.667 -309 -135.667 -533 -213c-10 -4 -20.667 -6 -32 -6c-20.667 0 -39.667 6 -57 18zM1220 1670
c-2.66699 7.33301 -4.00098 14.667 -4.00098 22c0 8 1.66699 16 5 24c6.66699 14.667 17.667 25 33 31c166 62.667 358 160 576 292c9.33301 6 19.333 9 30 9c4.66699 0 9.66699 -0.666992 15 -2c16 -4 28 -13 36 -27c6 -9.33301 9 -19.333 9 -30
c0 -4.66699 -0.666992 -9.66699 -2 -15c-4 -16 -13 -28 -27 -36c-224 -136 -422 -236.667 -594 -302c-7.33301 -2.66699 -14.666 -4 -21.999 -4c-26.667 0 -45 12.667 -55 38z" />
    <glyph glyph-name="uni06BA" unicode="&#x6ba;" horiz-adv-x="1604" arabic-form="isolated" 
d="M256 -482c-112.667 113.333 -168.998 251.329 -168.998 413.996c0 89.333 17.333 182.666 52 279.999s80 181 136 251c17.333 21.333 39.333 33.333 66 36c4 0.666992 7.66699 1 11 1c22.667 0 43.334 -7.33301 62.001 -22c21.333 -17.333 33.333 -39.666 36 -66.999
c0.666992 -4 1 -7.66699 1 -11c0 -22 -7.33301 -42.333 -22 -61c-42.667 -52.667 -77.334 -117 -104.001 -193c-26.667 -75.333 -40 -146.666 -40 -213.999v-3c0 -107.333 37 -197.666 111 -270.999c94 -94 224 -141 390 -141c209.333 0 355.666 58 438.999 174
c59.333 81.333 89.333 192 90 332v5c0 138.667 -28.333 294 -85 466c-3.33301 10.667 -5 21 -5 31c0 14.667 3.66699 29.334 11 44.001c12 24.667 31 41.334 57 50.001c10.667 3.33301 21 5 31 5c15.333 0 30.333 -3.66699 45 -11c24 -12 40.333 -31 49 -57
c24 -72 43.333 -143 58 -213c19.333 -90.667 31 -176.334 35 -257.001c0.666992 -20.667 1 -40.667 1 -60c0 -183.333 -42 -333.666 -126 -450.999c-123.333 -170.667 -323.333 -256 -600 -256c-220.667 0 -397.334 66.333 -530.001 199z" />
    <glyph glyph-name="uni06C0" unicode="&#x6c0;" horiz-adv-x="993" arabic-form="isolated" 
d="M214 94c-80 69.333 -119.993 159.669 -119.993 271.002c0 66.667 18.333 136 55 208c13.333 27.333 29.666 55.333 48.999 84c7.33301 11.333 15.666 23.333 24.999 36l12 17l11 15l27 37c15.333 22.667 36.333 36.667 63 42c7.33301 2 14.666 3 21.999 3
c18.667 0 36 -5.66699 52 -17c22.667 -15.333 36.667 -36.333 42 -63c1.33301 -7.33301 2 -14.333 2 -21c0 -18.667 -5.33301 -36.334 -16 -53.001l-33 -46l-9 -12l-9 -13l-20 -27c-14.667 -22 -27 -42 -37 -60c-25.333 -48 -38 -91.333 -38 -130
c0 -54.667 19.667 -97.334 59 -128.001c34.667 -26.667 77.667 -40 129 -40c23.333 0 48 3.33301 74 10c31.333 8 58.666 19.333 81.999 34c47.333 30.667 71 71.667 71 123c0 82.667 -45.333 182.334 -136 299.001c-40.667 52.667 -85.334 101 -134.001 145
c-43.333 39.333 -82 68.666 -116 87.999c-24 13.333 -39.333 33.333 -46 60c-2.66699 9.33301 -4 18.333 -4 27c0 16.667 4.33301 32.667 13 48c13.333 23.333 33.333 38.666 60 45.999c9.33301 2.66699 18.333 4 27 4c16.667 0 32.667 -4.33301 48 -13
c106 -60.667 208.667 -155 308 -283c50 -64.667 89.667 -128 119 -190c39.333 -82.667 59 -159.667 59 -231c0 -123.333 -54 -219.666 -162 -288.999c-78.667 -50.667 -166.334 -76 -263.001 -76c-104.667 0 -193.334 31.667 -266.001 95zM271.007 1156
c-13.333 0 -24.999 4.66699 -34.999 14c-9.33301 9.33301 -14.666 20.666 -15.999 33.999c-0.666992 14 3.66602 26.333 12.999 37s21 16.667 35 18c33.333 2 70.333 11 111 27c45.333 18.667 76.333 39 93 61c5.33301 6.66699 8.66602 12.667 9.99902 18
c0.666992 4 0.666992 8.33301 0 13c-2 6.66699 -12.333 12.667 -31 18c-7.33301 1.33301 -16 3 -26 5l-14 2l-13 2l-25 4l-24 5c-17.333 4 -32.333 8.66699 -45 14c-44 20.667 -65.333 54 -64 100c2 66.667 31 125 87 175c34.667 31.333 76 55.666 124 72.999s94 24 138 20
c14 -0.666992 25.667 -6.66699 35 -18c9.33301 -10.667 13.333 -23 12 -37s-7.33301 -25.667 -18 -35s-23 -13.333 -37 -12c-30 2 -62.333 -3 -97 -15c-34.667 -12.667 -64.334 -30 -89.001 -52c-14 -12.667 -25.333 -26.334 -34 -41.001
c-11.333 -19.333 -17.333 -39.333 -18 -60v-2c4 -3.33301 14 -6.66602 30 -9.99902l21 -4l10 -2l9 -1l24 -4l23 -4c17.333 -3.33301 32.333 -7.66602 45 -12.999c24 -10 42.667 -23.667 56 -41c10.667 -13.333 17.667 -28.666 21 -45.999
c8.66699 -40 -0.666016 -78 -27.999 -114c-27.333 -36.667 -71.333 -67.334 -132 -92.001c-51.333 -21.333 -100.333 -33.666 -147 -36.999h-4z" />
    <glyph glyph-name="uni06C1" unicode="&#x6c1;" horiz-adv-x="983" arabic-form="isolated" 
d="M214 94c-80 69.333 -119.993 159.669 -119.993 271.002c0 66.667 18.333 136 55 208c13.333 27.333 29.666 55.333 48.999 84c7.33301 11.333 15.666 23.333 24.999 36l12 17l11 15l27 37c15.333 22.667 36.333 36.667 63 42c7.33301 2 14.666 3 21.999 3
c18.667 0 36 -5.66699 52 -17c22.667 -15.333 36.667 -36.333 42 -63c1.33301 -7.33301 2 -14.333 2 -21c0 -18.667 -5.33301 -36.334 -16 -53.001l-33 -46l-9 -12l-9 -13l-20 -27c-14.667 -22 -27 -42 -37 -60c-25.333 -48 -38 -91.333 -38 -130
c0 -54.667 19.667 -97.334 59 -128.001c34.667 -26.667 77.667 -40 129 -40c23.333 0 48 3.33301 74 10c31.333 8 58.666 19.333 81.999 34c47.333 30.667 71 71.667 71 123c0 82.667 -45.333 182.334 -136 299.001c-40.667 52.667 -85.334 101 -134.001 145
c-43.333 39.333 -82 68.666 -116 87.999c-24 13.333 -39.333 33.333 -46 60c-2.66699 9.33301 -4 18.333 -4 27c0 16.667 4.33301 32.667 13 48c13.333 23.333 33.333 38.666 60 45.999c9.33301 2.66699 18.333 4 27 4c16.667 0 32.667 -4.33301 48 -13
c106 -60.667 208.667 -155 308 -283c50 -64.667 89.667 -128 119 -190c39.333 -82.667 59 -159.667 59 -231c0 -123.333 -54 -219.666 -162 -288.999c-78.667 -50.667 -166.334 -76 -263.001 -76c-104.667 0 -193.334 31.667 -266.001 95z" />
    <glyph glyph-name="uni06C2.fina" unicode="&#x6c2;" horiz-adv-x="1347" 
d="M235 -3c-18 13.333 -30 31.3301 -36 53.9971c-27.333 110 -26.666 222 2.00098 336s79.667 207.667 153 281c111.333 110 240.666 145.667 387.999 107c80 -21.333 149.667 -66.666 209 -135.999c22.667 -26.667 45.667 -59.334 69 -98.001
c9.33301 -15.333 19.333 -32.666 30 -51.999l27 -51c47.333 -88.667 85.333 -148 114 -178c40 -42 89.333 -63 148 -63c27.333 0 50.666 -9.33301 69.999 -28c19.333 -19.333 29 -42.666 29 -69.999s-9.66699 -50.666 -29 -69.999s-42.666 -29 -69.999 -29
c-111.333 -0 -205.333 38.333 -282 115c-30 29.333 -59 66.333 -87 111c-11.333 18 -23 38 -35 60l-16 30l-16 29c-39.333 73.333 -70 124.333 -92 153c-36 45.333 -75.667 74 -119 86c-74.667 19.333 -141 0.333008 -199 -57c-48.667 -48 -82.667 -112.333 -102 -193
s-19.333 -159 0 -235c6.66699 -26.667 3 -51.667 -11 -75s-34.333 -38.333 -61 -45c-8 -2 -16 -3 -24 -3c-22 0 -42 7 -60 21zM248 826.997c-7.33301 12 -9.00195 25 -5.00195 39c4 13.333 12 23.666 24 30.999l157 90c-11.333 4 -21.666 9 -30.999 15
c-32 19.333 -56.667 47 -74 83c-17.333 35.333 -24.333 72.333 -21 111c4 36 16.333 69.667 37 101s47.334 56.333 80.001 75c62.667 35.333 130.667 42.666 204 21.999c13.333 -4 23.666 -12.333 30.999 -25c6.66699 -12 8 -25 4 -39c-4 -13.333 -12 -23.333 -24 -30
c-12.667 -7.33301 -25.667 -9 -39 -5c-46 13.333 -87.667 9 -125 -13c-39.333 -22 -61 -54 -65 -96c-4.66699 -43.333 10.333 -75.333 45 -96c15.333 -9.33301 33.666 -14.666 54.999 -15.999c8 0 16.333 0.333008 25 1c6.66699 0.666992 13.334 1.66699 20.001 3
c18 4 38 10.667 60 20l30 13l30 14c12.667 6 25.334 7 38.001 3c13.333 -4.66699 23.333 -13 30 -25c6 -12 7.33301 -24.667 4 -38c-4 -13.333 -12 -23.666 -24 -30.999l-396 -226c-8 -4.66699 -16.333 -7 -25 -7c-20 0 -35 8.66699 -45 26z" />
    <glyph glyph-name="uni06C3.fina" unicode="&#x6c3;" horiz-adv-x="1347" 
d="M235 -3c-18 13.333 -30 31.3301 -36 53.9971c-27.333 110 -26.666 222 2.00098 336s79.667 207.667 153 281c111.333 110 240.666 145.667 387.999 107c80 -21.333 149.667 -66.666 209 -135.999c22.667 -26.667 45.667 -59.334 69 -98.001
c9.33301 -15.333 19.333 -32.666 30 -51.999l27 -51c47.333 -88.667 85.333 -148 114 -178c40 -42 89.333 -63 148 -63c27.333 0 50.666 -9.33301 69.999 -28c19.333 -19.333 29 -42.666 29 -69.999s-9.66699 -50.666 -29 -69.999s-42.666 -29 -69.999 -29
c-111.333 -0 -205.333 38.333 -282 115c-30 29.333 -59 66.333 -87 111c-11.333 18 -23 38 -35 60l-16 30l-16 29c-39.333 73.333 -70 124.333 -92 153c-36 45.333 -75.667 74 -119 86c-74.667 19.333 -141 0.333008 -199 -57c-48.667 -48 -82.667 -112.333 -102 -193
s-19.333 -159 0 -235c6.66699 -26.667 3 -51.667 -11 -75s-34.333 -38.333 -61 -45c-8 -2 -16 -3 -24 -3c-22 0 -42 7 -60 21zM234 916.997c-12 24 -14.0088 49 -6.00879 75s23.667 45.333 47 58c118.667 62 246.334 91 383.001 87
c46.667 -1.33301 92.334 -6.33301 137.001 -15c16.667 -3.33301 32.334 -7 47.001 -11c6 -2 11.667 -3.66699 17 -5l12 -4c24.667 -8 43.334 -24.333 56.001 -49c12 -24 14 -49 6 -75s-23.667 -45.333 -47 -58s-47.666 -14.667 -72.999 -6h-1l-3 1l-4 1
c-3.33301 1.33301 -6.66602 2.33301 -9.99902 3l-33 8c-33.333 6.66699 -67.666 10.667 -102.999 12c-107.333 4.66699 -206.333 -17 -297 -65c-13.333 -7.33301 -27.666 -11 -42.999 -11c-39.333 0 -67.666 18 -84.999 54z" />
    <glyph glyph-name="uni06CC" unicode="&#x6cc;" horiz-adv-x="1793" arabic-form="isolated" 
d="M413 -625c-219.333 111.333 -333.999 291.662 -343.999 540.995c-0.666992 12.667 -1 25.334 -1 38.001c0 92.667 15 191.334 45 296.001c26 90.667 62 182 108 274c12.667 24.667 31.667 41.334 57 50.001c10.667 3.33301 21 5 31 5c15.333 0 30.333 -3.66699 45 -11
c24 -12 40.333 -31 49 -57c3.33301 -10.667 5 -21.334 5 -32.001c0 -14.667 -3.33301 -29 -10 -43c-88.667 -178 -133 -339.333 -133 -484c0 -9.33301 0.333008 -18.666 1 -27.999c7.33301 -172 86.333 -296.333 237 -373c82.667 -42 174.334 -63 275.001 -63
c58 0 118.667 7 182 21c174.667 38.667 305.667 115.334 393 230.001c11.333 14.667 21 28.334 29 41.001c6 10 10.667 19 14 27c-14 4.66699 -36 9.66699 -66 15c-11.333 1.33301 -24 3 -38 5l-18 3l-17 2l-30 4l-31 4c-22.667 3.33301 -43.334 7 -62.001 11
c-46 8.66699 -85.333 20.334 -118 35.001c-104.667 46 -157 122 -157 228v8c2.66699 91.333 25.667 181 69 269c44 88.667 104.333 167.667 181 237c77.333 69.333 162.333 121.666 255 156.999c77.333 30 153 45 227 45c13.333 0 27 -0.666992 41 -2
c27.333 -2 49.666 -13.667 66.999 -35c16 -18 24 -38.667 24 -62c0 -3.33301 -0.333008 -6.66602 -1 -9.99902c-2 -26.667 -13.333 -49 -34 -67c-18.667 -15.333 -40 -23 -64 -23h-8c-8.66699 0.666992 -17.334 1 -26.001 1c-51.333 0 -105.666 -11.333 -162.999 -34
c-66.667 -27.333 -128.334 -66.333 -185.001 -117c-120 -108 -181.667 -229.333 -185 -364v-2c0 -20.667 13 -36.667 39 -48c20.667 -9.33301 49 -17.333 85 -24c14 -2.66699 30.667 -5.33398 50 -8.00098l51 -7l48 -6l47 -8c34 -6 63.333 -13.333 88 -22
c60.667 -22 101 -57 121 -105c8.66699 -20.667 13 -42.667 13 -66c0 -25.333 -5.33301 -52 -16 -80c-14 -36.667 -38.333 -77.667 -73 -123c-117.333 -153.333 -286.333 -254 -507 -302c-72 -16 -144.333 -24 -217 -24c-139.333 0 -263.666 27.667 -372.999 83z" />
    <glyph glyph-name="uni06D2" unicode="&#x6d2;" horiz-adv-x="1688" arabic-form="isolated" 
d="M1106 -473c-323.333 0 -546.335 5.32812 -669.002 15.9951c-100.667 8.66699 -178.667 22.667 -234 42c-55.333 20 -95.666 48 -120.999 84c-14.667 20.667 -24 43 -28 67c-6 32 -2.66699 65.667 10 101c40.667 114.667 132.667 203.334 276 266.001
c142.667 62.667 324 94 544 94h62c16.667 0.666992 29 1 37 1h30c27.333 0 50.666 -9.66699 69.999 -29s29 -42.666 29 -69.999s-9.66699 -50.666 -29 -69.999s-42.666 -29 -69.999 -29h-129c-184 0 -333.333 -23.667 -448 -71
c-96.667 -39.333 -157.667 -89.666 -183 -150.999c6 -3.33301 13.667 -6.33301 23 -9c12 -4 26 -7.66699 42 -11c41.333 -8.66699 94.333 -15.334 159 -20.001c116.667 -8.66699 326.334 -13 629.001 -13h476c26.667 0 49.667 -9.66699 69 -29s29 -42.666 29 -69.999
s-9.66699 -50.666 -29 -69.999s-42.333 -29 -69 -29h-476z" />
    <glyph glyph-name="uni06D3" unicode="&#x6d3;" horiz-adv-x="1688" arabic-form="isolated" 
d="M1106 -473c-323.333 0 -546.335 5.32812 -669.002 15.9951c-100.667 8.66699 -178.667 22.667 -234 42c-55.333 20 -95.666 48 -120.999 84c-14.667 20.667 -24 43 -28 67c-6 32 -2.66699 65.667 10 101c40.667 114.667 132.667 203.334 276 266.001
c142.667 62.667 324 94 544 94h62c16.667 0.666992 29 1 37 1h30c27.333 0 50.666 -9.66699 69.999 -29s29 -42.666 29 -69.999s-9.66699 -50.666 -29 -69.999s-42.666 -29 -69.999 -29h-129c-184 0 -333.333 -23.667 -448 -71
c-96.667 -39.333 -157.667 -89.666 -183 -150.999c6 -3.33301 13.667 -6.33301 23 -9c12 -4 26 -7.66699 42 -11c41.333 -8.66699 94.333 -15.334 159 -20.001c116.667 -8.66699 326.334 -13 629.001 -13h476c26.667 0 49.667 -9.66699 69 -29s29 -42.666 29 -69.999
s-9.66699 -50.666 -29 -69.999s-42.333 -29 -69 -29h-476zM106.998 291.995c-7.33301 12 -9.00195 25 -5.00195 39c4 13.333 12 23.666 24 30.999l157 90c-11.333 4 -21.666 9 -30.999 15c-32 19.333 -56.667 47 -74 83c-17.333 35.333 -24.333 72.333 -21 111
c4 36 16.333 69.667 37 101s47.334 56.333 80.001 75c62.667 35.333 130.667 42.666 204 21.999c13.333 -4 23.666 -12.333 30.999 -25c6.66699 -12 8 -25 4 -39c-4 -13.333 -12 -23.333 -24 -30c-12.667 -7.33301 -25.667 -9 -39 -5c-46 13.333 -87.667 9 -125 -13
c-39.333 -22 -61 -54 -65 -96c-4.66699 -43.333 10.333 -75.333 45 -96c15.333 -9.33301 33.666 -14.666 54.999 -15.999c8 0 16.333 0.333008 25 1c6.66699 0.666992 13.334 1.66699 20.001 3c18 4 38 10.667 60 20l30 13l30 14c12.667 6 25.334 7 38.001 3
c13.333 -4.66699 23.333 -13 30 -25c6 -12 7.33301 -24.667 4 -38c-4 -13.333 -12 -23.666 -24 -30.999l-396 -226c-8 -4.66699 -16.333 -7 -25 -7c-20 0 -35 8.66699 -45 26z" />
    <glyph glyph-name="uni0671.fina" unicode="&#x671;" horiz-adv-x="675" arabic-form="final" 
d="M630 0c-19.333 0.666992 -37 2.00098 -53 4.00098c-36 4 -70.667 13 -104 27c-100 40 -163.667 117.667 -191 233c-12 52.667 -18 188.334 -18 407.001v191c-0.666992 72 -1.66699 135.667 -3 191c-4 114 -12 210.667 -24 290c-0.666992 5.33301 -1 10.666 -1 15.999
c0 21.333 6.33301 40.666 19 57.999c16.667 22 38.334 35 65.001 39c5.33301 0.666992 10.666 1 15.999 1c21.333 0 40.666 -6.33301 57.999 -19c22 -16.667 35 -38.334 39 -65.001c12.667 -86.667 21 -189.667 25 -309c2 -57.333 3 -123 3 -197v-256
c0.666992 -50.667 1.33398 -93.667 2.00098 -129c1.33301 -88.667 5.33301 -146.334 12 -173.001c11.333 -46.667 34 -77.667 68 -93c20 -12 61.667 -18 125 -18c27.333 0 50.666 -9.66699 69.999 -29s29 -42.666 29 -69.999s-9.66699 -50.666 -29 -69.999
s-42.666 -29 -69.999 -29h-38zM470 1676c18.667 0 35.667 2 51 6c20.667 4.66699 37.667 12.667 51 24c11.333 8.66699 19.333 19.667 24 33s5 25.333 1 36c-3.33301 9.33301 -9.66602 16.333 -18.999 21c-8.66699 4.66699 -20.667 6.66699 -36 6
c-50.667 -2 -96.334 -27.667 -137.001 -77c-9.33301 -11.333 -18 -24 -26 -38c30.667 -8 61 -11.667 91 -11zM255 1527c-13.333 4.66699 -22.9961 13.333 -28.9961 26c-6 13.333 -6.66699 26.666 -2 39.999l13 33c-18.667 6 -37 10 -55 12
c-19.333 2.66699 -40 -3.66602 -62 -18.999c-6.66699 -4.66699 -13.334 -9.66699 -20.001 -15c-2 -2 -3.66699 -4 -5 -6l-2 -1v-1c-9.33301 -10.667 -21 -16.667 -35 -18c-14.667 -1.33301 -27.334 2.66699 -38.001 12s-16.667 21 -18 35s2.66699 26.667 12 38h1l1 1
c0.666992 1.33301 1.66699 2.33301 3 3c3.33301 4 6.66602 7.66699 9.99902 11c12 11.333 24.667 21 38 29c42 27.333 84.667 38.333 128 33c27.333 -3.33301 55.333 -9.66602 84 -18.999c14.667 25.333 30.334 48.333 47.001 69c60 73.333 130.667 111.666 212 114.999
c33.333 1.33301 62.666 -5 87.999 -19c31.333 -16 53.666 -40.333 66.999 -73c12 -31.333 13 -64.333 3 -99c-10 -35.333 -29.667 -64.666 -59 -87.999c-42 -34.667 -97.667 -52.334 -167 -53.001c-44.667 -0.666992 -90 6 -136 20l-13 -35c-8 -22.667 -24 -34 -48 -34
c-6 0 -12 1 -18 3z" />
    <glyph glyph-name="uni067E.fina" unicode="&#x67e;" horiz-adv-x="2316" arabic-form="final" 
d="M449 38c-144 58.667 -243 143.33 -297 253.997c-28 58 -42 120.333 -42 187c0 59.333 11 122.333 33 189c16.667 50.667 38.667 100 66 148c23.333 40.667 47 75 71 103c18 20.667 40.667 31.667 68 33h8c24 0 45.333 -8 64 -24c20.667 -17.333 32 -39.666 34 -66.999v-8
c0 -24 -8 -45.333 -24 -64c-15.333 -17.333 -31.333 -40.333 -48 -69c-21.333 -36.667 -38.333 -74.667 -51 -114c-12.667 -38 -20 -74.333 -22 -109c-0.666992 -6 -1 -12 -1 -18c0 -38 7.33301 -71.667 22 -101c33.333 -69.333 103 -123.666 209 -162.999
c93.333 -34.667 194.333 -52 303 -52c273.333 0 487 40 641 120s270 211.333 348 394c9.33301 22.667 25 39.334 47 50.001c14 6.66699 28.333 10 43 10c8 0 16.333 -1 25 -3c24 -6 43 -19 57 -39c12 -16.667 18 -35 18 -55c0 -3.33301 -0.333008 -7 -1 -11l-1 -10l-4 -46
l-4 -47c-1.33301 -21.333 -2 -41.333 -2 -60c0 -12.667 0.333008 -24.334 1 -35.001c4.66699 -70.667 23 -123.667 55 -159c45.333 -50 126.666 -75 244 -75c27.333 0 50.666 -9.66699 70 -29c19.333 -19.333 29 -42.666 29 -69.999s-9.66699 -50.666 -29 -69.999
s-42.666 -29 -70 -29c-176 0 -306.333 46.667 -391 140c-40.667 45.333 -69.667 101 -87 167c-70 -78.667 -152.667 -143.334 -248 -194.001c-184.667 -98 -431.667 -147 -741 -147c-142 0 -273 24.333 -393 73zM1048 -595.004c6.66699 0.666992 13 0.999023 19 0.999023
c32 0 59.667 -11.667 83 -35c20.667 -20.667 32 -45.667 34 -75c0.666992 -4 1 -8 1 -12c0 -24.667 -7.33301 -47 -22 -67c-4 -5.33301 -8.66699 -10.333 -14 -15c-20 -19.333 -44.333 -31 -73 -35c-8 -1.33301 -15.667 -2 -23 -2c-20 0 -39 4.33301 -57 13
c-25.333 11.333 -45.333 29.333 -60 54c-13.333 22.667 -20 46.334 -20 71.001v7c2 35.333 18 62 48 80c18.667 11.333 39 17 61 17c8 0 15.667 -0.666992 23 -2zM1355 -265.005c12 -24 14.0029 -49 6.00293 -75s-24 -45.333 -48 -58c-118 -62 -245.667 -91 -383 -87
c-46 1.33301 -91.667 6.33301 -137 15c-16 3.33301 -31.333 7 -46 11c-6 2 -11.667 3.66699 -17 5l-12 4c-25.333 8 -44 24.333 -56 49c-12 24 -14 49 -6 75s23.667 45.333 47 58s47.666 14.667 72.999 6h1l3 -1l3 -1c4 -1.33301 7.66699 -2.33301 11 -3l33 -8
c33.333 -6.66699 67.666 -10.667 102.999 -12c106.667 -4.66699 205.667 17 297 65c13.333 7.33301 27.666 11 42.999 11c38.667 0 67 -18 85 -54z" />
    <glyph glyph-name="uni067E.init" unicode="&#x67e;" horiz-adv-x="843" arabic-form="initial" 
d="M-75 29c-19.333 19.333 -28.999 42.666 -28.999 69.999s9.66699 50.666 29 69.999s42.666 29 69.999 29c153.333 0 257.666 5.66699 312.999 17c97.333 16.667 161 49.334 191 98.001c12.667 21.333 19 51.333 19 90c0 30 -3.66699 65.333 -11 106
c-18 92.667 -51.333 190 -100 292c-6.66699 14 -10 28.667 -10 44c0 10.667 1.66699 21.334 5 32.001c9.33301 25.333 26 44 50 56c14 6.66699 28 10 42 10c11.333 0 22.666 -2 33.999 -6c26 -8.66699 44.667 -25.334 56 -50.001
c56.667 -116.667 95.334 -229.667 116.001 -339c10 -52 15 -100 15 -144c0 -78 -16 -143 -48 -195c-56.667 -93.333 -157.334 -154.666 -302.001 -183.999c-71.333 -16.667 -194.666 -25 -369.999 -25c-27.333 0 -50.666 9.66699 -69.999 29zM426.001 -595
c6.66699 0.666992 13 0.999023 19 0.999023c32 0 59.667 -11.667 83 -35c20.667 -20.667 32 -45.667 34 -75c0.666992 -4 1 -8 1 -12c0 -24.667 -7.33301 -47 -22 -67c-4 -5.33301 -8.66699 -10.333 -14 -15c-20 -19.333 -44.333 -31 -73 -35c-8 -1.33301 -15.667 -2 -23 -2
c-20 0 -39 4.33301 -57 13c-25.333 11.333 -45.333 29.333 -60 54c-13.333 22.667 -20 46.334 -20 71.001v7c2 35.333 18 62 48 80c18.667 11.333 39 17 61 17c8 0 15.667 -0.666992 23 -2zM733.001 -265.001c12 -24 14.0029 -49 6.00293 -75s-24 -45.333 -48 -58
c-118 -62 -245.667 -91 -383 -87c-46 1.33301 -91.667 6.33301 -137 15c-16 3.33301 -31.333 7 -46 11c-6 2 -11.667 3.66699 -17 5l-12 4c-25.333 8 -44 24.333 -56 49c-12 24 -14 49 -6 75s23.667 45.333 47 58s47.666 14.667 72.999 6h1l3 -1l3 -1
c4 -1.33301 7.66699 -2.33301 11 -3l33 -8c33.333 -6.66699 67.666 -10.667 102.999 -12c106.667 -4.66699 205.667 17 297 65c13.333 7.33301 27.666 11 42.999 11c38.667 0 67 -18 85 -54z" />
    <glyph glyph-name="uni067E.medi" unicode="&#x67e;" horiz-adv-x="852" arabic-form="medial" 
d="M849 198c27.333 0 50.668 -9.66895 70.001 -29.002s29 -42.666 29 -69.999s-9.66699 -50.666 -29 -69.999s-42.666 -29 -69.999 -29c-54.667 -0 -104.667 9.33301 -150 28c-57.333 23.333 -105.666 61.333 -144.999 114l-8 -9c-48 -53.333 -113.667 -90 -197 -110
c-62 -15.333 -180 -23 -354 -23c-27.333 0 -50.666 9.66699 -69.999 29s-29 42.666 -29 69.999s9.66699 50.666 29 69.999s42.666 29 69.999 29c228.667 0 363.667 22.333 405 67c28.667 32 43 84.667 43 158c0 22 -1.33301 45.333 -4 70
c-2.66699 20.667 -5.33398 43.667 -8.00098 69l-2 33l-3 32c-2 28.667 -3.66699 49.667 -5 63c-0.666992 3.33301 -1 7 -1 11c0 22 7.66699 42.333 23 61c17.333 20.667 39.666 32.334 66.999 35.001c3.33301 0.666992 7 1 11 1c22.667 0 43 -7.66699 61 -23
c21.333 -17.333 33.333 -39.666 36 -66.999c1.33301 -14 3 -35.667 5 -65l3 -40l4 -41c3.33301 -31.333 6.66602 -59.333 9.99902 -84c9.33301 -64.667 22.333 -117 39 -157c34 -82 90.667 -123 170 -123zM426.002 -595.002c6.66699 0.666992 13 0.999023 19 0.999023
c32 0 59.667 -11.667 83 -35c20.667 -20.667 32 -45.667 34 -75c0.666992 -4 1 -8 1 -12c0 -24.667 -7.33301 -47 -22 -67c-4 -5.33301 -8.66699 -10.333 -14 -15c-20 -19.333 -44.333 -31 -73 -35c-8 -1.33301 -15.667 -2 -23 -2c-20 0 -39 4.33301 -57 13
c-25.333 11.333 -45.333 29.333 -60 54c-13.333 22.667 -20 46.334 -20 71.001v7c2 35.333 18 62 48 80c18.667 11.333 39 17 61 17c8 0 15.667 -0.666992 23 -2zM733.002 -265.003c12 -24 14.0029 -49 6.00293 -75s-24 -45.333 -48 -58c-118 -62 -245.667 -91 -383 -87
c-46 1.33301 -91.667 6.33301 -137 15c-16 3.33301 -31.333 7 -46 11c-6 2 -11.667 3.66699 -17 5l-12 4c-25.333 8 -44 24.333 -56 49c-12 24 -14 49 -6 75s23.667 45.333 47 58s47.666 14.667 72.999 6h1l3 -1l3 -1c4 -1.33301 7.66699 -2.33301 11 -3l33 -8
c33.333 -6.66699 67.666 -10.667 102.999 -12c106.667 -4.66699 205.667 17 297 65c13.333 7.33301 27.666 11 42.999 11c38.667 0 67 -18 85 -54z" />
    <glyph glyph-name="uni0686.fina" unicode="&#x686;" horiz-adv-x="1702" arabic-form="final" 
d="M1694 198c27.333 0 50.6641 -9.67188 69.9971 -29.0049s29 -42.666 29 -69.999s-9.66699 -50.666 -29 -69.999s-42.666 -29 -69.999 -29c-183.333 0 -322.333 45 -417 135c-85.333 80 -136.333 195.333 -153 346c-178 -41.333 -328.667 -95 -452 -161
c-238.667 -128.667 -358 -296.334 -358 -503.001c0 -12.667 0.333008 -25.667 1 -39c8 -105.333 62.333 -195 163 -269c94.667 -69.333 199.667 -105 315 -107h16c98.667 0 196.667 17.333 294 52c116 42 206.333 101.667 271 179
c17.333 20.667 39.666 32.334 66.999 35.001h8c24 0 45.333 -7.66699 64 -23c21.333 -17.333 33 -39.666 35 -66.999c0.666992 -3.33301 1 -6.66602 1 -9.99902c0 -23.333 -8 -44 -24 -62c-77.333 -92 -181 -165.333 -311 -220c-129.333 -54.667 -264.666 -82 -405.999 -82
h-19c-159.333 3.33301 -304 54 -434 152c-146 109.333 -225 245.333 -237 408c-1.33301 18.667 -2 37.334 -2 56.001c0 142.667 40.667 271.667 122 387c78 111.333 191.667 207 341 287c148.667 80 327.667 142.667 537 188c-114 50 -209 88 -285 114
c-102.667 34 -182.334 51 -239.001 51c-100.667 0 -166.667 -54.333 -198 -163c-7.33301 -26 -22.666 -45.667 -45.999 -59c-15.333 -8.66699 -31.333 -13 -48 -13c-9.33301 0 -18.666 1.33301 -27.999 4c-26 8 -45.667 23.667 -59 47c-8.66699 15.333 -13 31.333 -13 48
c0 9.33301 1.33301 18.666 4 27.999c28.667 98.667 76.334 174.334 143.001 227.001s148.334 79 245.001 79c88 0 206.333 -27 355 -81c57.333 -20.667 122.666 -46.667 195.999 -78l97 -42l47 -21l45 -21l167 -73c20.667 -8.66699 36.667 -23 48 -43
c8.66699 -14.667 13 -30.667 13 -48c0 -4.66699 -0.333008 -9.66699 -1 -15c-3.33301 -22 -13 -41 -29 -57c-16.667 -15.333 -36 -24.333 -58 -27c-51.333 -5.33301 -102.333 -12 -153 -20c10.667 -124 49.334 -210.667 116.001 -260
c55.333 -40.667 141.666 -61 258.999 -61zM910.998 -263.005c6.66699 0.666992 13 0.999023 19 0.999023c32 0 59.667 -11.667 83 -35c20.667 -20.667 32 -45.667 34 -75c0.666992 -4 1 -8 1 -12c0 -24.667 -7.33301 -47 -22 -67c-4 -5.33301 -8.66699 -10.333 -14 -15
c-20 -19.333 -44.333 -31 -73 -35c-8 -1.33301 -15.667 -2 -23 -2c-20 0 -39 4.33301 -57 13c-25.333 11.333 -45.333 29.333 -60 54c-13.333 22.667 -20 46.334 -20 71.001v7c2 35.333 18 62 48 80c18.667 11.333 39 17 61 17c8 0 15.667 -0.666992 23 -2zM1218 66.9941
c12 -24 14.0029 -49 6.00293 -75s-24 -45.333 -48 -58c-118 -62 -245.667 -91 -383 -87c-46 1.33301 -91.667 6.33301 -137 15c-16 3.33301 -31.333 7 -46 11c-6 2 -11.667 3.66699 -17 5l-12 4c-25.333 8 -44 24.333 -56 49c-12 24 -14 49 -6 75s23.667 45.333 47 58
s47.666 14.667 72.999 6h1l3 -1l3 -1c4 -1.33301 7.66699 -2.33301 11 -3l33 -8c33.333 -6.66699 67.666 -10.667 102.999 -12c106.667 -4.66699 205.667 17 297 65c13.333 7.33301 27.666 11 42.999 11c38.667 0 67 -18 85 -54z" />
    <glyph glyph-name="uni0686.init" unicode="&#x686;" horiz-adv-x="1619" arabic-form="initial" 
d="M-64 29c-19.333 19.333 -29 42.6689 -29 70.002s9.66699 50.666 29 69.999s42.666 29 69.999 29c220.667 0 438.334 28 653.001 84c253.333 66 459.333 162.333 618 289c-130 37.333 -243 67.666 -339 90.999c-122 30 -219 49 -291 57c-25.333 2.66699 -46.333 4 -63 4
c-6.66699 -0.666992 -12.667 -1 -18 -1c-4 -0.666992 -7.33301 -1.33398 -10 -2.00098c-58 -12 -97.333 -31.333 -118 -58c-18.667 -23.333 -38 -74.666 -58 -153.999c-6.66699 -26.667 -21.667 -47 -45 -61c-16 -9.33301 -32.667 -14 -50 -14c-8 0 -16.333 1 -25 3
c-26.667 6.66699 -47 21.667 -61 45c-9.33301 16 -14 32.667 -14 50c0 8 1 16.333 3 25c26.667 105.333 57.667 181 93 227c50 64 128 107.667 234 131c16.667 3.33301 37 5 61 5c148.667 0 443 -65.333 883 -196c18.667 -5.33301 31.667 -9.33301 39 -12
c34.667 -10 57 -32.667 67 -68c2.66699 -10 4 -20 4 -30c0 -22.667 -8.33301 -43.667 -25 -63c-172 -190 -417 -333.667 -735 -431c-258.667 -79.333 -526.334 -119 -803.001 -119c-27.333 0 -50.666 9.66699 -69.999 29zM850 -594.997
c6.66699 0.666992 13 0.999023 19 0.999023c32 0 59.667 -11.667 83 -35c20.667 -20.667 32 -45.667 34 -75c0.666992 -4 1 -8 1 -12c0 -24.667 -7.33301 -47 -22 -67c-4 -5.33301 -8.66699 -10.333 -14 -15c-20 -19.333 -44.333 -31 -73 -35c-8 -1.33301 -15.667 -2 -23 -2
c-20 0 -39 4.33301 -57 13c-25.333 11.333 -45.333 29.333 -60 54c-13.333 22.667 -20 46.334 -20 71.001v7c2 35.333 18 62 48 80c18.667 11.333 39 17 61 17c8 0 15.667 -0.666992 23 -2zM1157 -264.998c12 -24 14.0029 -49 6.00293 -75s-24 -45.333 -48 -58
c-118 -62 -245.667 -91 -383 -87c-46 1.33301 -91.667 6.33301 -137 15c-16 3.33301 -31.333 7 -46 11c-6 2 -11.667 3.66699 -17 5l-12 4c-25.333 8 -44 24.333 -56 49c-12 24 -14 49 -6 75s23.667 45.333 47 58s47.666 14.667 72.999 6h1l3 -1l3 -1
c4 -1.33301 7.66699 -2.33301 11 -3l33 -8c33.333 -6.66699 67.666 -10.667 102.999 -12c106.667 -4.66699 205.667 17 297 65c13.333 7.33301 27.666 11 42.999 11c38.667 0 67 -18 85 -54z" />
    <glyph glyph-name="uni0686.medi" unicode="&#x686;" horiz-adv-x="1701" arabic-form="medial" 
d="M1708 199c26.667 0 49.6689 -9.66992 69.002 -29.0029s29 -42.666 29 -69.999s-9.66699 -50.666 -29 -69.999s-42.333 -29 -69 -29c-138.667 0 -258 22 -358 66c-99.333 44 -175 107.333 -227 190c-99.333 -49.333 -206.666 -92.333 -321.999 -129
c-268 -85.333 -535.333 -128 -802 -128c-27.333 0 -50.666 9.66699 -69.999 29s-29 42.666 -29 69.999s9.66699 50.666 29 69.999s42.666 29 69.999 29c211.333 0 427.666 30.333 648.999 91c248 68 453 162.667 615 284c-126.667 36.667 -237.334 66.334 -332.001 89.001
c-122 30 -219 49 -291 57c-25.333 2.66699 -46.333 4 -63 4c-6.66699 -0.666992 -12.667 -1 -18 -1c-4 -0.666992 -7.33301 -1.33398 -10 -2.00098c-58 -12 -97.333 -31.333 -118 -58c-18.667 -23.333 -38 -74.666 -58 -153.999c-6.66699 -26.667 -21.667 -47 -45 -61
c-16 -9.33301 -32.667 -14 -50 -14c-8 0 -16.333 1 -25 3c-26.667 6.66699 -47 21.667 -61 45c-9.33301 16 -14 32.667 -14 50c0 8 1 16.333 3 25c26.667 105.333 57.667 181 93 227c50 64 128 107.667 234 131c16.667 3.33301 37 5 61 5c148.667 0 443 -65.333 883 -196
c18.667 -5.33301 31.667 -9.33301 39 -12c36 -10.667 58.667 -33.667 68 -69c2.66699 -9.33301 4 -18.666 4 -27.999c0 -24.667 -9.66699 -46.667 -29 -66c-67.333 -69.333 -147 -133.666 -239 -192.999c39.333 -58 100.666 -100 183.999 -126c64.667 -20 141 -30 229 -30z
M782.002 -593.003c6.66699 0.666992 13 0.999023 19 0.999023c32 0 59.667 -11.667 83 -35c20.667 -20.667 32 -45.667 34 -75c0.666992 -4 1 -8 1 -12c0 -24.667 -7.33301 -47 -22 -67c-4 -5.33301 -8.66699 -10.333 -14 -15c-20 -19.333 -44.333 -31 -73 -35
c-8 -1.33301 -15.667 -2 -23 -2c-20 0 -39 4.33301 -57 13c-25.333 11.333 -45.333 29.333 -60 54c-13.333 22.667 -20 46.334 -20 71.001v7c2 35.333 18 62 48 80c18.667 11.333 39 17 61 17c8 0 15.667 -0.666992 23 -2zM1089 -263.004c12 -24 14.0029 -49 6.00293 -75
s-24 -45.333 -48 -58c-118 -62 -245.667 -91 -383 -87c-46 1.33301 -91.667 6.33301 -137 15c-16 3.33301 -31.333 7 -46 11c-6 2 -11.667 3.66699 -17 5l-12 4c-25.333 8 -44 24.333 -56 49c-12 24 -14 49 -6 75s23.667 45.333 47 58s47.666 14.667 72.999 6h1l3 -1l3 -1
c4 -1.33301 7.66699 -2.33301 11 -3l33 -8c33.333 -6.66699 67.666 -10.667 102.999 -12c106.667 -4.66699 205.667 17 297 65c13.333 7.33301 27.666 11 42.999 11c38.667 0 67 -18 85 -54z" />
    <glyph glyph-name="uni0698.fina" unicode="&#x698;" horiz-adv-x="985" arabic-form="final" 
d="M21 -691c-11.333 16.667 -16.999 34.6611 -16.999 53.9941c0 6.66699 0.666992 13.334 2 20.001c5.33301 27.333 19.333 48.333 42 63c4.66699 3.33301 12.667 8.66602 24 15.999l15 10l17 10l36 25c29.333 20.667 57 42 83 64c69.333 58.667 128.333 124 177 196
c118 174.667 177 385.334 177 632.001c0 42.667 -1.66699 86.334 -5 131.001c-0.666992 3.33301 -1 6.66602 -1 9.99902c0 22.667 8 43 24 61c17.333 20.667 39.666 32.334 66.999 35.001h8c23.333 0 44.666 -7.66699 63.999 -23
c20.667 -17.333 32.334 -39.666 35.001 -66.999c13.333 -150 45.666 -251.667 96.999 -305c18.667 -18.667 40 -31.334 64 -38.001c8.66699 -2 18 -3.66699 28 -5h24c26.667 0 49.667 -9.66699 69 -29s29 -42.666 29 -69.999s-9.66699 -50.666 -29 -69.999
s-42.333 -29 -69 -29c-94.667 0 -174 28.333 -238 85c-33.333 -159.333 -93 -302.666 -179 -429.999c-58.667 -85.333 -128.667 -162.666 -210 -231.999c-30 -25.333 -62.333 -50.333 -97 -75l-42 -28l-19 -13l-17 -11l-22 -14c-16.667 -11.333 -35 -17 -55 -17
c-35.333 0 -62.666 14.667 -81.999 44zM584.001 1226.99c-6.66699 -0.666992 -13 -0.999023 -19 -0.999023c-32 0 -59.667 11.667 -83 35c-20.667 20.667 -32 45.667 -34 75c-0.666992 4 -1 8 -1 12c0 24.667 7.33301 47 22 67c4 5.33301 8.66699 10.333 14 15
c20 19.333 44.333 31 73 35c8 1.33301 15.667 2 23 2c20 0 39 -4.33301 57 -13c25.333 -11.333 45.333 -29.333 60 -54c13.333 -22.667 20 -46.334 20 -71.001v-7c-2 -35.333 -18 -62 -48 -80c-18.667 -11.333 -39 -17 -61 -17c-8 0 -15.667 0.666992 -23 2z
M277.001 896.995c-12 24 -14.0088 49 -6.00879 75s23.667 45.333 47 58c118.667 62 246.334 91 383.001 87c46.667 -1.33301 92.334 -6.33301 137.001 -15c16.667 -3.33301 32.334 -7 47.001 -11c6 -2 11.667 -3.66699 17 -5l12 -4c24.667 -8 43.334 -24.333 56.001 -49
c12 -24 14 -49 6 -75s-23.667 -45.333 -47 -58s-47.666 -14.667 -72.999 -6h-1l-3 1l-4 1c-3.33301 1.33301 -6.66602 2.33301 -9.99902 3l-33 8c-33.333 6.66699 -67.666 10.667 -102.999 12c-107.333 4.66699 -206.333 -17 -297 -65
c-13.333 -7.33301 -27.666 -11 -42.999 -11c-39.333 0 -67.666 18 -84.999 54z" />
    <glyph glyph-name="uni06A9.fina" unicode="&#x6a9;" horiz-adv-x="2274" arabic-form="final" 
d="M1208 1214c-20.667 0 -39.6641 5.99902 -56.9971 17.999s-29.333 28.333 -36 49c-9.33301 25.333 -8 50.333 4 75s31 41.334 57 50.001c405.333 140.667 749.666 331 1033 571c20.667 18 44.667 25.667 72 23c27.333 -2 49.666 -13.333 66.999 -34
c18 -21.333 25.667 -45.333 23 -72c-2 -27.333 -13.333 -50 -34 -68c-302 -255.333 -667.667 -457.333 -1097 -606c-10.667 -4 -21.334 -6 -32.001 -6zM2273 197.999c27.333 0 50.665 -9.66992 69.999 -29.0029c19.333 -19.333 29 -42.666 29 -69.999
s-9.66699 -50.666 -29 -69.999s-42.666 -29 -69.999 -29c-184.667 0 -358.334 102.333 -521.001 307c-5.33301 -11.333 -11.666 -22 -18.999 -32c-69.333 -105.333 -191.666 -180.333 -366.999 -225c-64 -16.667 -133.667 -28.667 -209 -36
c-54.667 -4.66699 -109.667 -7 -165 -7c-459.333 0 -750.333 87.667 -873 263c-79.333 114.667 -88 256.334 -26 425.001c9.33301 25.333 26.333 43.666 51 54.999s50 12.333 76 3c25.333 -9.33301 43.666 -26.333 54.999 -51s12.333 -50 3 -76c-38 -104 -37 -185 3 -243
c35.333 -50 100.333 -90 195 -120c125.333 -39.333 297.333 -59 516 -59c140 0 262 16.333 366 49c104 32 174 75.667 210 131c35.333 52.667 35.666 120.334 0.999023 203.001c-32 57.333 -66.333 123 -103 197l-48 97l-23 49l-23 47l-59 122c-12 24.667 -13.667 50 -5 76
c9.33301 26 26.333 45 51 57c24 12 49 13.333 75 4c26 -8.66699 45 -25.334 57 -50.001l59 -124l17 -35l17 -35l35 -72l74 -147c58.667 -111.333 114.334 -204.666 167.001 -279.999c139.333 -196.667 277 -295 413 -295z" />
    <glyph glyph-name="uni06A9.init" unicode="&#x6a9;" horiz-adv-x="1147" arabic-form="initial" 
d="M0 0c-27.333 0 -50.668 9.66895 -70.001 29.002s-29 42.666 -29 69.999s9.66699 50.666 29 69.999s42.666 29 69.999 29c171.333 0 296 10 374 30c110.667 29.333 185.667 86 225 170c22.667 48 18.667 107.333 -12 178c-12 26.667 -27.667 55 -47 85
c-15.333 22.667 -32.333 45.667 -51 69c-50 60.667 -110 119.334 -180 176.001c-60.667 50 -116.667 88.667 -168 116c-24 12.667 -40 32 -48 58s-5.66699 51 7 75s32 40 58 48s51.333 5.66699 76 -7c62 -32.667 128.333 -77.667 199 -135
c80.667 -66 150.334 -134.667 209.001 -206c92 -113.333 146.667 -221.333 164 -324c12.667 -78 3.33398 -150 -27.999 -216c-65.333 -140.667 -183.666 -233.334 -354.999 -278.001c-62.667 -16 -135.334 -26.667 -218.001 -32c-32 -2 -67.333 -3.33301 -106 -4l-51 -1h-48
zM-40.002 1229c-17.333 12 -29.667 27.999 -37 47.999c-8.66699 26 -7 51.333 5 76c11.333 24 30 40.667 56 50c426 147.333 754.667 319 986 515c20.667 18 44.667 25.667 72 23c27.333 -2 50 -13.333 68 -34c17.333 -20.667 25 -44.667 23 -72
c-2.66699 -27.333 -14.334 -49.666 -35.001 -66.999c-157.333 -133.333 -329.666 -246.333 -516.999 -339c-131.333 -64.667 -308.666 -135.667 -531.999 -213c-10.667 -3.33301 -21.334 -5 -32.001 -5c-21.333 0 -40.333 6 -57 18z" />
    <glyph glyph-name="uni06A9.medi" unicode="&#x6a9;" horiz-adv-x="1196" arabic-form="medial" 
d="M1196 200c24.667 -1.33301 46.667 -11.666 66 -30.999s29 -42.666 29 -69.999s-9.66699 -50.666 -29 -69.999s-42.666 -29 -69.999 -29c-178.667 -4 -343.334 85 -494.001 267c-8 -18.667 -17.667 -36.334 -29 -53.001c-48.667 -74 -126 -129 -232 -165
c-98 -32.667 -243.667 -49 -437 -49c-29.333 0 -53.666 9.66699 -72.999 29s-29 42.666 -29 69.999c0 26.667 9.66699 49.667 29 69s43.333 29.333 72 30c282 -0.666992 450.333 41 505 125c38.667 57.333 32.667 144.666 -18 261.999l-4 12
c-41.333 76 -103 197.333 -185 364l-53 109c-12.667 24.667 -14.334 50 -5.00098 76c8.66699 25.333 25 44.333 49 57c24.667 12 50 13.667 76 5c26 -9.33301 45 -26 57 -50l54 -110c142 -289.333 251.333 -487 328 -593c126.667 -175.333 257.667 -260.333 393 -255z
M130 1207c-20.667 0 -39.665 5.99902 -56.998 17.999s-29.333 28.333 -36 49c-9.33301 25.333 -8 50.333 4 75s31 41.334 57 50.001c405.333 140.667 749.666 331 1033 571c20.667 18 44.667 25.667 72 23c27.333 -2 50 -13.333 68 -34c17.333 -21.333 25 -45.333 23 -72
c-2.66699 -27.333 -14.334 -50 -35.001 -68c-302 -255.333 -667.667 -457.333 -1097 -606c-10 -4 -20.667 -6 -32 -6z" />
    <glyph glyph-name="uni06AF.fina" unicode="&#x6af;" horiz-adv-x="2274" arabic-form="final" 
d="M1208 1214c-20.667 0 -39.6641 5.99902 -56.9971 17.999s-29.333 28.333 -36 49c-9.33301 25.333 -8 50.333 4 75s31 41.334 57 50.001c405.333 140.667 749.666 331 1033 571c20.667 18 44.667 25.667 72 23c27.333 -2 49.666 -13.333 66.999 -34
c18 -21.333 25.667 -45.333 23 -72c-2 -27.333 -13.333 -50 -34 -68c-302 -255.333 -667.667 -457.333 -1097 -606c-10.667 -4 -21.334 -6 -32.001 -6zM2273 197.999c27.333 0 50.665 -9.66992 69.999 -29.0029c19.333 -19.333 29 -42.666 29 -69.999
s-9.66699 -50.666 -29 -69.999s-42.666 -29 -69.999 -29c-184.667 0 -358.334 102.333 -521.001 307c-5.33301 -11.333 -11.666 -22 -18.999 -32c-69.333 -105.333 -191.666 -180.333 -366.999 -225c-64 -16.667 -133.667 -28.667 -209 -36
c-54.667 -4.66699 -109.667 -7 -165 -7c-459.333 0 -750.333 87.667 -873 263c-79.333 114.667 -88 256.334 -26 425.001c9.33301 25.333 26.333 43.666 51 54.999s50 12.333 76 3c25.333 -9.33301 43.666 -26.333 54.999 -51s12.333 -50 3 -76c-38 -104 -37 -185 3 -243
c35.333 -50 100.333 -90 195 -120c125.333 -39.333 297.333 -59 516 -59c140 0 262 16.333 366 49c104 32 174 75.667 210 131c35.333 52.667 35.666 120.334 0.999023 203.001c-32 57.333 -66.333 123 -103 197l-48 97l-23 49l-23 47l-59 122c-12 24.667 -13.667 50 -5 76
c9.33301 26 26.333 45 51 57c24 12 49 13.333 75 4c26 -8.66699 45 -25.334 57 -50.001l59 -124l17 -35l17 -35l35 -72l74 -147c58.667 -111.333 114.334 -204.666 167.001 -279.999c139.333 -196.667 277 -295 413 -295zM1228 1691
c-2.66699 7.33301 -4.00098 14.667 -4.00098 22c0 8 1.66699 16 5 24c6.66699 14.667 17.667 25 33 31c166 62.667 358 160 576 292c9.33301 6 19.333 9 30 9c4.66699 0 9.66699 -0.666992 15 -2c16 -4 28 -13 36 -27c6 -9.33301 9 -19.333 9 -30
c0 -4.66699 -0.666992 -9.66699 -2 -15c-4 -16 -13 -28 -27 -36c-224 -136 -422 -236.667 -594 -302c-7.33301 -2.66699 -14.666 -4 -21.999 -4c-26.667 0 -45 12.667 -55 38z" />
    <glyph glyph-name="uni06AF.init" unicode="&#x6af;" horiz-adv-x="1147" arabic-form="initial" 
d="M0 0c-27.333 0 -50.668 9.66895 -70.001 29.002s-29 42.666 -29 69.999s9.66699 50.666 29 69.999s42.666 29 69.999 29c171.333 0 296 10 374 30c110.667 29.333 185.667 86 225 170c22.667 48 18.667 107.333 -12 178c-12 26.667 -27.667 55 -47 85
c-15.333 22.667 -32.333 45.667 -51 69c-50 60.667 -110 119.334 -180 176.001c-60.667 50 -116.667 88.667 -168 116c-24 12.667 -40 32 -48 58s-5.66699 51 7 75s32 40 58 48s51.333 5.66699 76 -7c62 -32.667 128.333 -77.667 199 -135
c80.667 -66 150.334 -134.667 209.001 -206c92 -113.333 146.667 -221.333 164 -324c12.667 -78 3.33398 -150 -27.999 -216c-65.333 -140.667 -183.666 -233.334 -354.999 -278.001c-62.667 -16 -135.334 -26.667 -218.001 -32c-32 -2 -67.333 -3.33301 -106 -4l-51 -1h-48
zM-40.002 1229c-17.333 12 -29.667 27.999 -37 47.999c-8.66699 26 -7 51.333 5 76c11.333 24 30 40.667 56 50c426 147.333 754.667 319 986 515c20.667 18 44.667 25.667 72 23c27.333 -2 50 -13.333 68 -34c17.333 -20.667 25 -44.667 23 -72
c-2.66699 -27.333 -14.334 -49.666 -35.001 -66.999c-157.333 -133.333 -329.666 -246.333 -516.999 -339c-131.333 -64.667 -308.666 -135.667 -531.999 -213c-10.667 -3.33301 -21.334 -5 -32.001 -5c-21.333 0 -40.333 6 -57 18zM39.9971 1667
c-2.66699 7.33301 -4.00098 14.667 -4.00098 22c0 8 1.66699 16 5 24c6.66699 14.667 17.667 25 33 31c166 62.667 358 160 576 292c9.33301 6 19.333 9 30 9c4.66699 0 9.66699 -0.666992 15 -2c16 -4 28 -13 36 -27c6 -9.33301 9 -19.333 9 -30
c0 -4.66699 -0.666992 -9.66699 -2 -15c-4 -16 -13 -28 -27 -36c-224 -136 -422 -236.667 -594 -302c-7.33301 -2.66699 -14.666 -4 -21.999 -4c-26.667 0 -45 12.667 -55 38z" />
    <glyph glyph-name="uni06AF.medi" unicode="&#x6af;" horiz-adv-x="1196" arabic-form="medial" 
d="M1196 200c24.667 -1.33301 46.667 -11.666 66 -30.999s29 -42.666 29 -69.999s-9.66699 -50.666 -29 -69.999s-42.666 -29 -69.999 -29c-178.667 -4 -343.334 85 -494.001 267c-8 -18.667 -17.667 -36.334 -29 -53.001c-48.667 -74 -126 -129 -232 -165
c-98 -32.667 -243.667 -49 -437 -49c-29.333 0 -53.666 9.66699 -72.999 29s-29 42.666 -29 69.999c0 26.667 9.66699 49.667 29 69s43.333 29.333 72 30c282 -0.666992 450.333 41 505 125c38.667 57.333 32.667 144.666 -18 261.999l-4 12
c-41.333 76 -103 197.333 -185 364l-53 109c-12.667 24.667 -14.334 50 -5.00098 76c8.66699 25.333 25 44.333 49 57c24.667 12 50 13.667 76 5c26 -9.33301 45 -26 57 -50l54 -110c142 -289.333 251.333 -487 328 -593c126.667 -175.333 257.667 -260.333 393 -255z
M130 1207c-20.667 0 -39.665 5.99902 -56.998 17.999s-29.333 28.333 -36 49c-9.33301 25.333 -8 50.333 4 75s31 41.334 57 50.001c405.333 140.667 749.666 331 1033 571c20.667 18 44.667 25.667 72 23c27.333 -2 50 -13.333 68 -34c17.333 -21.333 25 -45.333 23 -72
c-2.66699 -27.333 -14.334 -50 -35.001 -68c-302 -255.333 -667.667 -457.333 -1097 -606c-10 -4 -20.667 -6 -32 -6zM186.002 1681c-2.66699 7.33301 -4.00098 14.667 -4.00098 22c0 8 1.66699 16 5 24c6.66699 14.667 17.667 25 33 31c166 62.667 358 160 576 292
c9.33301 6 19.333 9 30 9c4.66699 0 9.66699 -0.666992 15 -2c16 -4 28 -13 36 -27c6 -9.33301 9 -19.333 9 -30c0 -4.66699 -0.666992 -9.66699 -2 -15c-4 -16 -13 -28 -27 -36c-224 -136 -422 -236.667 -594 -302c-7.33301 -2.66699 -14.666 -4 -21.999 -4
c-26.667 0 -45 12.667 -55 38z" />
    <glyph glyph-name="uni06BA.fina" unicode="&#x6ba;" horiz-adv-x="1728" arabic-form="final" 
d="M1729 198c27.333 0 50.668 -9.6709 70.001 -29.0039s29 -42.666 29 -69.999s-9.66699 -50.666 -29 -69.999s-42.666 -29 -69.999 -29c-107.333 0 -196.333 24 -267 72v-7c0.666992 -15.333 1 -30.333 1 -45c0 -172 -39.333 -315.667 -118 -431
c-59.333 -88 -139.333 -155.333 -240 -202c-103.333 -47.333 -226.333 -71 -369 -71c-220.667 0 -397.334 66.333 -530.001 199c-112.667 113.333 -169 251.333 -169 414c0 89.333 17.333 182.666 52 279.999s80 181 136 251c17.333 21.333 39.333 33.333 66 36
c4 0.666992 7.66699 1 11 1c22.667 0 43.334 -7.33301 62.001 -22c21.333 -17.333 33.333 -39.666 36 -66.999c0.666992 -4 1 -7.66699 1 -11c0 -22 -7.33301 -42.333 -22 -61c-42.667 -52.667 -77.334 -117 -104.001 -193c-26.667 -75.333 -40 -146.666 -40 -213.999v-3
c0 -107.333 37 -197.666 111 -270.999c94 -94 224 -141 390 -141c213.333 0 362 62 446 186c56 82 84 189.333 84 322c0 11.333 -0.333008 23 -1 35c-5.33301 141.333 -39.333 290.666 -102 447.999c-4.66699 12.667 -7 25.334 -7 38.001c0 9.33301 1.33301 19 4 29
c13.333 42.667 43 65 89 67h8c41.333 0 70.666 -19 87.999 -57c75.333 -167.333 143.666 -277 204.999 -329c42.667 -36.667 102.334 -55 179.001 -55z" />
    <glyph glyph-name="uni06C0.fina" unicode="&#x6c0;" horiz-adv-x="1157" arabic-form="final" 
d="M722 236c-24.667 52.667 -44.333 116.332 -59 190.999c-6 29.333 -11.667 62.333 -17 99l-6 49l-6 48c-8.66699 70 -15.667 118.667 -21 146c-4 18.667 -8.33301 33.667 -13 45c-98 -46 -188 -122 -270 -228c-41.333 -53.333 -70.333 -103.333 -87 -150
c-14.667 -39.333 -19.334 -71.333 -14.001 -96c6 -29.333 32.667 -50.666 80 -63.999c18 -4.66699 39 -8.33398 63 -11.001c18.667 -2 38.334 -3 59.001 -3c27.333 -0.666992 50.666 -10.667 69.999 -30c18.667 -20 28 -43.333 28 -70
c-0.666992 -27.333 -10.667 -50.666 -30 -69.999c-19.333 -18.667 -42.333 -28 -69 -28h-1c-109.333 1.33301 -196.666 20.666 -261.999 57.999c-72 41.333 -116 100.333 -132 177c-14.667 69.333 -4 146 32 230c14 32.667 31.667 66 53 100c16 26 34 52 54 78
c104 134 220.333 230.667 349 290c36 16 70.333 23 103 21c25.333 -1.33301 48.666 -8 69.999 -20c44 -24.667 76 -69.334 96 -134.001c12.667 -40.667 25.334 -113 38.001 -217c20 -166 46 -279.667 78 -341c37.333 -72 97.333 -108 180 -108
c27.333 0 50.666 -9.66699 69.999 -29s29 -42.666 29 -69.999s-9.66699 -50.666 -29 -69.999s-42.666 -29 -69.999 -29c-170 0 -292 78.667 -366 236zM425.001 1128c-13.333 0 -24.999 4.66699 -34.999 14c-9.33301 9.33301 -14.666 20.666 -15.999 33.999
c-0.666992 14 3.66602 26.333 12.999 37s21 16.667 35 18c33.333 2 70.333 11 111 27c45.333 18.667 76.333 39 93 61c5.33301 6.66699 8.66602 12.667 9.99902 18c0.666992 4 0.666992 8.33301 0 13c-2 6.66699 -12.333 12.667 -31 18c-7.33301 1.33301 -16 3 -26 5l-14 2
l-13 2l-25 4l-24 5c-17.333 4 -32.333 8.66699 -45 14c-44 20.667 -65.333 54 -64 100c2 66.667 31 125 87 175c34.667 31.333 76 55.666 124 72.999s94 24 138 20c14 -0.666992 25.667 -6.66699 35 -18c9.33301 -10.667 13.333 -23 12 -37s-7.33301 -25.667 -18 -35
s-23 -13.333 -37 -12c-30 2 -62.333 -3 -97 -15c-34.667 -12.667 -64.334 -30 -89.001 -52c-14 -12.667 -25.333 -26.334 -34 -41.001c-11.333 -19.333 -17.333 -39.333 -18 -60v-2c4 -3.33301 14 -6.66602 30 -9.99902l21 -4l10 -2l9 -1l24 -4l23 -4
c17.333 -3.33301 32.333 -7.66602 45 -12.999c24 -10 42.667 -23.667 56 -41c10.667 -13.333 17.667 -28.666 21 -45.999c8.66699 -40 -0.666016 -78 -27.999 -114c-27.333 -36.667 -71.333 -67.334 -132 -92.001c-51.333 -21.333 -100.333 -33.666 -147 -36.999h-4z" />
    <glyph glyph-name="uni06C1.fina" unicode="&#x6c1;" horiz-adv-x="1347" arabic-form="final" 
d="M235 -3c-18 13.333 -30 31.3301 -36 53.9971c-27.333 110 -26.666 222 2.00098 336s79.667 207.667 153 281c111.333 110 240.666 145.667 387.999 107c80 -21.333 149.667 -66.666 209 -135.999c22.667 -26.667 45.667 -59.334 69 -98.001
c9.33301 -15.333 19.333 -32.666 30 -51.999l27 -51c47.333 -88.667 85.333 -148 114 -178c40 -42 89.333 -63 148 -63c27.333 0 50.666 -9.33301 69.999 -28c19.333 -19.333 29 -42.666 29 -69.999s-9.66699 -50.666 -29 -69.999s-42.666 -29 -69.999 -29
c-111.333 -0 -205.333 38.333 -282 115c-30 29.333 -59 66.333 -87 111c-11.333 18 -23 38 -35 60l-16 30l-16 29c-39.333 73.333 -70 124.333 -92 153c-36 45.333 -75.667 74 -119 86c-74.667 19.333 -141 0.333008 -199 -57c-48.667 -48 -82.667 -112.333 -102 -193
s-19.333 -159 0 -235c6.66699 -26.667 3 -51.667 -11 -75s-34.333 -38.333 -61 -45c-8 -2 -16 -3 -24 -3c-22 0 -42 7 -60 21z" />
    <glyph glyph-name="uni06BE.init" unicode="&#x6be;" horiz-adv-x="1522" arabic-form="initial" 
d="M470 697c-53.333 -48 -85.002 -103 -95.002 -165c-2 -12.667 -3 -25.334 -3 -38.001c0 -48 15 -93 45 -135c28.667 -40 70.334 -75.667 125.001 -107c107.333 34.667 176.333 87.667 207 159c22.667 52.667 34 101.334 34 146.001c0 34 -6.66699 65.667 -20 95
c-24 52.667 -63 84.667 -117 96c-12 2.66699 -24.333 4 -37 4c-51.333 0 -97.666 -18.333 -138.999 -55zM908.998 159c50.667 0 98.3311 5.66699 142.998 17c120.667 30 187.334 91.333 200.001 184c1.33301 9.33301 2 18.333 2 27c0 52 -19.333 104.333 -58 157
c-45.333 62 -115.333 123 -210 183l-57 34l14 -28c25.333 -56 38 -115 38 -177c0 -70.667 -16.667 -144.667 -50 -222c-28 -65.333 -71 -121 -129 -167c36.667 -5.33301 72.334 -8 107.001 -8zM635.995 1c-40 11.333 -78.332 25.0029 -114.999 41.0029
c-76 -17.333 -164.667 -29.333 -266 -36c-69.333 -4 -158 -6 -266 -6c-27.333 0 -50.666 9.66699 -69.999 29s-29 42.666 -29 69.999s9.66699 50.666 29 69.999c19.333 18.667 42.666 28 69.999 28c121.333 0 220.333 3.33301 297 10c-10.667 12 -20.667 24.333 -30 37
c-54.667 77.333 -82 160 -82 248c0 22 1.66699 44 5 66c16 110.667 69.333 206 160 286c52.667 47.333 113 79 181 95c-22.667 8 -45.334 15.333 -68.001 22c-17.333 5.33301 -34.666 10.333 -51.999 15c-26 7.33301 -45.667 23 -59 47c-8.66699 15.333 -13 31.333 -13 48
c0 8.66699 1.33301 17.667 4 27c7.33301 26.667 23 46.667 47 60c14.667 8.66699 30 13 46 13c9.33301 0 19 -1.66699 29 -5c36.667 -10 74.667 -21.333 114 -34c54 -18 106.667 -37 158 -57c140.667 -55.333 262.667 -115.666 366 -180.999
c115.333 -73.333 203.333 -151.333 264 -234c64 -87.333 96 -177.333 96 -270c0 -18.667 -1.33301 -37.334 -4 -56.001c-12 -86.667 -48.333 -160.667 -109 -222c-60.667 -60.667 -140.334 -103.334 -239.001 -128.001c-59.333 -14.667 -123.333 -22 -192 -22
c-92 0 -182.667 13 -272 39z" />
    <glyph glyph-name="uni06BE.medi" unicode="&#x6be;" horiz-adv-x="1056" arabic-form="medial" 
d="M500 690c-62.667 -35.333 -113 -103.333 -151 -204c-33.333 -89.333 -50 -182 -50 -278c40 5.33301 76 12.333 108 21c116 32.667 187.333 96.667 214 192c6.66699 24.667 10 51 10 79c0 24.667 -2.66699 50.667 -8 78c-12 58 -31 97.333 -57 118l-3 3l-5 3
c-4 1.33301 -8.66699 2 -14 2c-12 0 -26.667 -4.66699 -44 -14zM648 -604c-117.333 43.333 -229.667 133.997 -337 271.997c-83.333 106.667 -142.666 217.334 -177.999 332.001h-152c-27.333 0.666992 -50.666 10.667 -69.999 30s-29 42.333 -29 69
c0 27.333 9.66699 50.666 29 69.999s42.666 29 69.999 29h121v19c0 92.667 14 185.667 42 279c53.333 178 140 300 260 366c48 26.667 95.667 40 143 40h7c49.333 -2 94.333 -19 135 -51c62.667 -49.333 104.667 -125.333 126 -228c9.33301 -42.667 14 -84 14 -124
c0 -45.333 -6 -88.666 -18 -129.999c-46 -167.333 -163 -277.333 -351 -330c-37.333 -10.667 -78.333 -19 -123 -25c30 -77.333 73.333 -152.333 130 -225c23.333 -29.333 47.666 -56.666 72.999 -81.999c5.33301 83.333 30.666 162 75.999 236c48 80 111 142.667 189 188
c78 44.667 161.667 67 251 67c27.333 0 50.666 -9.66699 69.999 -29s29 -42.666 29 -69.999c0 -26.667 -9.66699 -49.667 -29 -69s-42.666 -29.333 -69.999 -30h-4c-53.333 0 -103.333 -14 -150 -42c-48 -28 -87 -67 -117 -117c-29.333 -48.667 -45.333 -100 -48 -154v-16
c0 -48.667 11 -94 33 -136c8.66699 -16.667 13 -32.667 13 -48c0 -22 -8.66699 -43 -26 -63c-20 -22.667 -45 -34 -75 -34c-11.333 0 -22.666 2 -33.999 6z" />
    <glyph glyph-name="uni06D2.fina" unicode="&#x6d2;" horiz-adv-x="1240" arabic-form="final" 
d="M414 -457c-100.667 8.66699 -178.67 22.6621 -234.003 41.9951c-55.333 20 -95.666 48 -120.999 84c-14.667 20.667 -24.334 43 -29.001 67c-5.33301 32 -1.66602 65.667 11.001 101c40.667 114.667 132.334 203.334 275.001 266.001c143.333 62.667 325 94 545 94h183
l33 1h160c27.333 0 50.666 -9.66699 69.999 -29s29 -42.666 29 -69.999s-9.66699 -50.666 -29 -69.999s-42.666 -29 -69.999 -29h-376c-184.667 0 -334 -23.667 -448 -71c-96.667 -39.333 -157.667 -89.666 -183 -150.999c6 -3.33301 13.667 -6.33301 23 -9
c12 -4 26 -7.66699 42 -11c40.667 -8.66699 93.334 -15.334 158.001 -20.001c116.667 -8.66699 326.667 -13 630 -13c26.667 0 49.667 -9.66699 69 -29s29 -42.666 29 -69.999s-9.66699 -50.666 -29 -69.999s-42.333 -29 -69 -29c-323.333 0 -546.333 5.33301 -669 16z" />
    <glyph glyph-name="uni06D3.fina" unicode="&#x6d3;" horiz-adv-x="1240" arabic-form="final" 
d="M414 -457c-100.667 8.66699 -178.67 22.6621 -234.003 41.9951c-55.333 20 -95.666 48 -120.999 84c-14.667 20.667 -24.334 43 -29.001 67c-5.33301 32 -1.66602 65.667 11.001 101c40.667 114.667 132.334 203.334 275.001 266.001c143.333 62.667 325 94 545 94h183
l33 1h160c27.333 0 50.666 -9.66699 69.999 -29s29 -42.666 29 -69.999s-9.66699 -50.666 -29 -69.999s-42.666 -29 -69.999 -29h-376c-184.667 0 -334 -23.667 -448 -71c-96.667 -39.333 -157.667 -89.666 -183 -150.999c6 -3.33301 13.667 -6.33301 23 -9
c12 -4 26 -7.66699 42 -11c40.667 -8.66699 93.334 -15.334 158.001 -20.001c116.667 -8.66699 326.667 -13 630 -13c26.667 0 49.667 -9.66699 69 -29s29 -42.666 29 -69.999s-9.66699 -50.666 -29 -69.999s-42.333 -29 -69 -29c-323.333 0 -546.333 5.33301 -669 16z
M173.997 267.995c-7.33301 12 -9.00195 25 -5.00195 39c4 13.333 12 23.666 24 30.999l157 90c-11.333 4 -21.666 9 -30.999 15c-32 19.333 -56.667 47 -74 83c-17.333 35.333 -24.333 72.333 -21 111c4 36 16.333 69.667 37 101s47.334 56.333 80.001 75
c62.667 35.333 130.667 42.666 204 21.999c13.333 -4 23.666 -12.333 30.999 -25c6.66699 -12 8 -25 4 -39c-4 -13.333 -12 -23.333 -24 -30c-12.667 -7.33301 -25.667 -9 -39 -5c-46 13.333 -87.667 9 -125 -13c-39.333 -22 -61 -54 -65 -96
c-4.66699 -43.333 10.333 -75.333 45 -96c15.333 -9.33301 33.666 -14.666 54.999 -15.999c8 0 16.333 0.333008 25 1c6.66699 0.666992 13.334 1.66699 20.001 3c18 4 38 10.667 60 20l30 13l30 14c12.667 6 25.334 7 38.001 3c13.333 -4.66699 23.333 -13 30 -25
c6 -12 7.33301 -24.667 4 -38c-4 -13.333 -12 -23.666 -24 -30.999l-396 -226c-8 -4.66699 -16.333 -7 -25 -7c-20 0 -35 8.66699 -45 26z" />
    <glyph glyph-name="uni0649.init" unicode="&#x649;" horiz-adv-x="723" arabic-form="initial" 
d="M-74 29c-19.333 19.333 -28.999 42.666 -28.999 69.999s9.66699 50.666 29 69.999s42.666 29 69.999 29c119.333 0 206.666 5.66699 261.999 17c77.333 16.667 131 49.334 161 98.001c12.667 21.333 19 51.333 19 90c0 30 -3.66699 65.333 -11 106
c-18 92.667 -51.333 190 -100 292c-6.66699 14 -10 28.667 -10 44c0 10.667 1.66699 21.334 5 32.001c9.33301 25.333 26 44 50 56c14 6.66699 28 10 42 10c11.333 0 22.666 -2 33.999 -6c26 -8.66699 44.667 -25.334 56 -50.001
c56.667 -116.667 95.334 -229.667 116.001 -339c10 -52 15 -100 15 -144c0 -78 -16 -143 -48 -195c-56.667 -93.333 -147.334 -154.666 -272.001 -183.999c-71.333 -16.667 -177.666 -25 -318.999 -25c-27.333 0 -50.666 9.66699 -69.999 29z" />
    <glyph glyph-name="uni0649.medi" unicode="&#x649;" horiz-adv-x="748" arabic-form="medial" 
d="M738 198c27.333 0 50.6689 -9.66895 70.002 -29.002s29 -42.666 29 -69.999s-9.66699 -50.666 -29 -69.999s-42.666 -29 -69.999 -29c-54.667 -0 -104.667 9.33301 -150 28c-57.333 23.333 -105.666 61.333 -144.999 114l-8 -9c-48 -53.333 -113.667 -90 -197 -110
c-62 -15.333 -143.333 -23 -244 -23c-27.333 0 -50.666 9.66699 -69.999 29s-29 42.666 -29 69.999s9.66699 50.666 29 69.999s42.666 29 69.999 29c155.333 0 253.666 22.333 294.999 67c28.667 32 43 84.667 43 158c0 22 -1.33301 45.333 -4 70
c-2.66699 20.667 -5.33398 43.667 -8.00098 69l-2 33l-3 32c-2 28.667 -3.66699 49.667 -5 63c-0.666992 3.33301 -1 7 -1 11c0 22 7.66699 42.333 23 61c17.333 20.667 39.666 32.334 66.999 35.001c3.33301 0.666992 7 1 11 1c22.667 0 43 -7.66699 61 -23
c21.333 -17.333 33.333 -39.666 36 -66.999c1.33301 -14 3 -35.667 5 -65l3 -40l4 -41c3.33301 -31.333 6.66602 -59.333 9.99902 -84c9.33301 -64.667 22.333 -117 39 -157c34 -82 90.667 -123 170 -123z" />
    <glyph glyph-name="uni06CC.fina" unicode="&#x6cc;" horiz-adv-x="1715" arabic-form="final" 
d="M501 -613c-117.333 38 -210.999 93.6689 -280.999 167.002c-95.333 98.667 -143 222 -143 370c0 10 0.333008 20 1 30c2.66699 67.333 15.667 150.333 39 249c9.33301 39.333 20.666 83.333 33.999 132l19 65l18 64l25 87c7.33301 26 23 45.667 47 59
c15.333 8.66699 31.333 13 48 13c8.66699 0 17.667 -1.33301 27 -4c26.667 -7.33301 46.667 -23 60 -47c8.66699 -15.333 13 -31.333 13 -48c0 -8.66699 -1.33301 -17.667 -4 -27l-26 -88l-8 -29l-9 -29l-17 -59c-12.667 -46 -23.334 -86.667 -32.001 -122
c-22 -92.667 -34.333 -167.334 -37 -224.001v-19c0 -96.667 29 -175.334 87 -236.001c50.667 -52.667 121.334 -92.667 212.001 -120c76 -22.667 153.667 -34 233 -34c155.333 0 294 29.333 416 88c46.667 22.667 83.667 47.334 111 74.001c28 26.667 42 51 42 73
c0 2 -0.666992 4.33301 -2 7c-1.33301 3.33301 -3.66602 7 -6.99902 11c-8 10.667 -19.667 22 -35 34c-19.333 14.667 -45 31.667 -77 51l-44 25l-46 25l-45 24l-45 26c-33.333 19.333 -61.333 37.333 -84 54c-24.667 18 -43.667 34 -57 48
c-20.667 23.333 -32 48.333 -34 75c-0.666992 4 -1 8 -1 12c0 6 0.666992 12 2 18c1.33301 6.66699 3.33301 13.334 6 20.001c3.33301 6.66699 7 13 11 19c5.33301 8 11.666 15.333 18.999 22c18.667 16 42.667 25.333 72 28c6.66699 0.666992 14 1 22 1
c12.667 0 27 -0.666992 43 -2c27.333 -2.66699 80.666 -10.334 159.999 -23.001l26 -4l26 -4c20 -3.33301 38.667 -6 56 -8c43.333 -6.66699 83.333 -12.334 120 -17.001c96 -11.333 180.667 -17 254 -17c27.333 0 50.666 -9.66699 69.999 -29
c19.333 -18.667 29 -41.667 29 -69s-9.66699 -50.666 -29 -69.999s-42.666 -29 -69.999 -29c-114.667 -8.66699 -260.667 12.666 -438 63.999c102 -46 160.667 -74.333 176 -85l6 -4l7 -6c6.66699 -5.33301 12.667 -10.666 18 -15.999c15.333 -14 28.666 -28.667 39.999 -44
c32.667 -42.667 49 -88.334 49 -137.001c0 -63.333 -23 -123 -69 -179c-45.333 -56 -110.666 -104.667 -195.999 -146c-149.333 -72 -316.666 -108 -501.999 -108c-104.667 0 -206.667 16 -306 48z" />
    <glyph glyph-name="uni06CC.init" unicode="&#x6cc;" horiz-adv-x="843" arabic-form="initial" 
d="M-75 29c-19.333 19.333 -28.999 42.666 -28.999 69.999s9.66699 50.666 29 69.999s42.666 29 69.999 29c153.333 0 257.666 5.66699 312.999 17c97.333 16.667 161 49.334 191 98.001c12.667 21.333 19 51.333 19 90c0 30 -3.66699 65.333 -11 106
c-18 92.667 -51.333 190 -100 292c-6.66699 14 -10 28.667 -10 44c0 10.667 1.66699 21.334 5 32.001c9.33301 25.333 26 44 50 56c14 6.66699 28 10 42 10c11.333 0 22.666 -2 33.999 -6c26 -8.66699 44.667 -25.334 56 -50.001
c56.667 -116.667 95.334 -229.667 116.001 -339c10 -52 15 -100 15 -144c0 -78 -16 -143 -48 -195c-56.667 -93.333 -157.334 -154.666 -302.001 -183.999c-71.333 -16.667 -194.666 -25 -369.999 -25c-27.333 0 -50.666 9.66699 -69.999 29zM11.001 -397
c-12 24 -14.0088 49 -6.00879 75s23.667 45.333 47 58c118.667 62 246.334 91 383.001 87c46.667 -1.33301 92.334 -6.33301 137.001 -15c16.667 -3.33301 32.334 -7 47.001 -11c6 -2 11.667 -3.66699 17 -5l12 -4c24.667 -8 43.334 -24.333 56.001 -49c12 -24 14 -49 6 -75
s-23.667 -45.333 -47 -58s-47.666 -14.667 -72.999 -6h-1l-3 1l-4 1c-3.33301 1.33301 -6.66602 2.33301 -9.99902 3l-33 8c-33.333 6.66699 -67.666 10.667 -102.999 12c-107.333 4.66699 -206.333 -17 -297 -65c-13.333 -7.33301 -27.666 -11 -42.999 -11
c-39.333 0 -67.666 18 -84.999 54z" />
    <glyph glyph-name="uni06CC.medi" unicode="&#x6cc;" horiz-adv-x="852" arabic-form="medial" 
d="M849 198c27.333 0 50.668 -9.66895 70.001 -29.002s29 -42.666 29 -69.999s-9.66699 -50.666 -29 -69.999s-42.666 -29 -69.999 -29c-54.667 -0 -104.667 9.33301 -150 28c-57.333 23.333 -105.666 61.333 -144.999 114l-8 -9c-48 -53.333 -113.667 -90 -197 -110
c-62 -15.333 -180 -23 -354 -23c-27.333 0 -50.666 9.66699 -69.999 29s-29 42.666 -29 69.999s9.66699 50.666 29 69.999s42.666 29 69.999 29c228.667 0 363.667 22.333 405 67c28.667 32 43 84.667 43 158c0 22 -1.33301 45.333 -4 70
c-2.66699 20.667 -5.33398 43.667 -8.00098 69l-2 33l-3 32c-2 28.667 -3.66699 49.667 -5 63c-0.666992 3.33301 -1 7 -1 11c0 22 7.66699 42.333 23 61c17.333 20.667 39.666 32.334 66.999 35.001c3.33301 0.666992 7 1 11 1c22.667 0 43 -7.66699 61 -23
c21.333 -17.333 33.333 -39.666 36 -66.999c1.33301 -14 3 -35.667 5 -65l3 -40l4 -41c3.33301 -31.333 6.66602 -59.333 9.99902 -84c9.33301 -64.667 22.333 -117 39 -157c34 -82 90.667 -123 170 -123zM11.002 -397.002c-12 24 -14.0088 49 -6.00879 75
s23.667 45.333 47 58c118.667 62 246.334 91 383.001 87c46.667 -1.33301 92.334 -6.33301 137.001 -15c16.667 -3.33301 32.334 -7 47.001 -11c6 -2 11.667 -3.66699 17 -5l12 -4c24.667 -8 43.334 -24.333 56.001 -49c12 -24 14 -49 6 -75s-23.667 -45.333 -47 -58
s-47.666 -14.667 -72.999 -6h-1l-3 1l-4 1c-3.33301 1.33301 -6.66602 2.33301 -9.99902 3l-33 8c-33.333 6.66699 -67.666 10.667 -102.999 12c-107.333 4.66699 -206.333 -17 -297 -65c-13.333 -7.33301 -27.666 -11 -42.999 -11c-39.333 0 -67.666 18 -84.999 54z" />
    <glyph glyph-name="uni0651064C" unicode="&#xfc5e;" arabic-form="isolated" 
d="M292 1908c5.33301 -36.667 2.33398 -71.335 -8.99902 -104.002c-10.667 -33.333 -28.667 -60.333 -54 -81c-30 -25.333 -65.333 -38 -106 -38c-20.667 0 -40 3.66699 -58 11c-22 8.66699 -41.667 21.667 -59 39c-13.333 -16 -28.333 -29.333 -45 -40
c-28.667 -18 -59.334 -27 -92.001 -27c-25.333 0 -48.666 5.33301 -69.999 16c-50 26 -79 69.333 -87 130c-6 44.667 2.66699 91 26 139c6 12.667 15.667 21.334 29 26.001s26.333 4 39 -2c13.333 -6 22.333 -15.667 27 -29s3.66699 -26.666 -3 -39.999
c-6 -12 -10.333 -24 -13 -36c-4 -16 -5 -30.667 -3 -44c3.33301 -25.333 14 -42.666 32 -51.999c18.667 -9.33301 38.667 -7.33301 60 6s36.666 35 45.999 65c8.66699 25.333 12.334 58 11.001 98c-0.666992 14 3.66602 26.333 12.999 37c10 10 22 15.333 36 16
c14.667 0.666992 27 -4 37 -14c10.667 -9.33301 16 -21.333 16 -36c1.33301 -36.667 -0.666992 -69 -6 -97l3 -10c3.33301 -24 16.333 -40.333 39 -49c23.333 -8.66699 44.333 -5.33398 63 9.99902c24 20 33 50.333 27 91c-4.66699 31.333 -22 71 -52 119
c-7.33301 12 -9.33301 24.667 -6 38c3.33301 14 11 24.667 23 32c12 8 24.667 10.333 38 7c14 -3.33301 24.667 -11 32 -23c38 -60 60 -112.667 66 -158zM98.001 2507c-10.667 -8.66699 -19.001 -19.333 -25.001 -32c-6.66699 -14.667 -8.66699 -30 -6 -46
c8.66699 -47.333 48.667 -83 120 -107c34.667 56.667 47 106 37 148c-5.33301 22.667 -19.666 39 -42.999 49c-10 4.66699 -20.333 7 -31 7c-18.667 0 -36 -6.33301 -52 -19zM-165 2042c-13.333 15.333 -16.667 32.333 -10 51l5 16l7 16c24 64 29.667 106.333 17 127
c-6 10 -12.333 17 -19 21c-2.66699 1.33301 -5 2.33301 -7 3h-5c-23.333 2.66699 -49.666 -12 -78.999 -44c-9.33301 -10.667 -21.333 -16.334 -36 -17c-14 -0.666992 -26 4 -36 14c-10.667 9.33301 -16.334 21 -17.001 35c-0.666992 14.667 4 27 14 37
c52 57.333 106.667 83.333 164 78c18.667 -2 36.334 -7.66699 53.001 -17c21.333 -12.667 39.666 -31 54.999 -55c26 -42 30.667 -93 14 -153c62 22.667 115 51.667 159 87l-12 5c-77.333 38 -122.666 92.667 -135.999 164c-6 33.333 -3 66 9 98
c12.667 31.333 32.667 58 60 80c58.667 46 121.334 54.333 188.001 25c54 -24 87.667 -63.667 101 -119c14 -58.667 3 -124 -33 -196l10 -1c14 -2 25 -8.66699 33 -20c8.66699 -11.333 12 -24 10 -38s-8.66699 -25.333 -20 -34s-24 -12 -38 -10
c-20.667 3.33301 -40.334 6.66602 -59.001 10c-48 -51.333 -110.333 -94 -187 -128c-28.667 -12.667 -58.334 -23.667 -89.001 -33c-22.667 -7.33301 -45 -13.333 -67 -18l-11 -1c-15.333 0 -28 5.66699 -38 17z" />
    <glyph glyph-name="uni0651064D" unicode="&#xfc5f;" arabic-form="isolated" 
d="M292 1908c5.33301 -36.667 2.33398 -71.335 -8.99902 -104.002c-10.667 -33.333 -28.667 -60.333 -54 -81c-30 -25.333 -65.333 -38 -106 -38c-20.667 0 -40 3.66699 -58 11c-22 8.66699 -41.667 21.667 -59 39c-13.333 -16 -28.333 -29.333 -45 -40
c-28.667 -18 -59.334 -27 -92.001 -27c-25.333 0 -48.666 5.33301 -69.999 16c-50 26 -79 69.333 -87 130c-6 44.667 2.66699 91 26 139c6 12.667 15.667 21.334 29 26.001s26.333 4 39 -2c13.333 -6 22.333 -15.667 27 -29s3.66699 -26.666 -3 -39.999
c-6 -12 -10.333 -24 -13 -36c-4 -16 -5 -30.667 -3 -44c3.33301 -25.333 14 -42.666 32 -51.999c18.667 -9.33301 38.667 -7.33301 60 6s36.666 35 45.999 65c8.66699 25.333 12.334 58 11.001 98c-0.666992 14 3.66602 26.333 12.999 37c10 10 22 15.333 36 16
c14.667 0.666992 27 -4 37 -14c10.667 -9.33301 16 -21.333 16 -36c1.33301 -36.667 -0.666992 -69 -6 -97l3 -10c3.33301 -24 16.333 -40.333 39 -49c23.333 -8.66699 44.333 -5.33398 63 9.99902c24 20 33 50.333 27 91c-4.66699 31.333 -22 71 -52 119
c-7.33301 12 -9.33301 24.667 -6 38c3.33301 14 11 24.667 23 32c12 8 24.667 10.333 38 7c14 -3.33301 24.667 -11 32 -23c38 -60 60 -112.667 66 -158zM-257.999 1174c-4.66699 13.333 -4 26.335 2 39.002c6 13.333 15.667 22.333 29 27l433 153
c13.333 5.33301 26.333 4.66602 39 -2.00098c12.667 -6 21.334 -15.667 26.001 -29c5.33301 -13.333 4.66602 -26.333 -2.00098 -39c-6 -12.667 -15.667 -21.334 -29 -26.001l-432 -154c-6 -2 -11.667 -3 -17 -3c-24.667 0 -41 11.333 -49 34zM-257.999 1430
c-4.66699 13.333 -4 26.667 2 40c6 12.667 15.667 21.334 29 26.001l433 154c13.333 4.66699 26.333 4 39 -2c12.667 -6.66699 21.334 -16.667 26.001 -30c5.33301 -13.333 4.66602 -26.333 -2.00098 -39c-6 -12.667 -15.667 -21.334 -29 -26.001l-432 -154
c-6 -2 -11.667 -3 -17 -3c-24.667 0 -41 11.333 -49 34z" />
    <glyph glyph-name="uni0651064E" unicode="&#xfc60;" arabic-form="isolated" 
d="M292 1908c5.33301 -36.667 2.33398 -71.335 -8.99902 -104.002c-10.667 -33.333 -28.667 -60.333 -54 -81c-30 -25.333 -65.333 -38 -106 -38c-20.667 0 -40 3.66699 -58 11c-22 8.66699 -41.667 21.667 -59 39c-13.333 -16 -28.333 -29.333 -45 -40
c-28.667 -18 -59.334 -27 -92.001 -27c-25.333 0 -48.666 5.33301 -69.999 16c-50 26 -79 69.333 -87 130c-6 44.667 2.66699 91 26 139c6 12.667 15.667 21.334 29 26.001s26.333 4 39 -2c13.333 -6 22.333 -15.667 27 -29s3.66699 -26.666 -3 -39.999
c-6 -12 -10.333 -24 -13 -36c-4 -16 -5 -30.667 -3 -44c3.33301 -25.333 14 -42.666 32 -51.999c18.667 -9.33301 38.667 -7.33301 60 6s36.666 35 45.999 65c8.66699 25.333 12.334 58 11.001 98c-0.666992 14 3.66602 26.333 12.999 37c10 10 22 15.333 36 16
c14.667 0.666992 27 -4 37 -14c10.667 -9.33301 16 -21.333 16 -36c1.33301 -36.667 -0.666992 -69 -6 -97l3 -10c3.33301 -24 16.333 -40.333 39 -49c23.333 -8.66699 44.333 -5.33398 63 9.99902c24 20 33 50.333 27 91c-4.66699 31.333 -22 71 -52 119
c-7.33301 12 -9.33301 24.667 -6 38c3.33301 14 11 24.667 23 32c12 8 24.667 10.333 38 7c14 -3.33301 24.667 -11 32 -23c38 -60 60 -112.667 66 -158zM-255.999 2145c-4.66699 13.333 -4 26.667 2 40.001c6 12.667 15.667 21.334 29 26l433 154
c13.333 4.66699 26.333 4 39 -2c12.667 -6.66699 21.334 -16.667 26.001 -30c5.33301 -13.333 4.66602 -26.333 -2.00098 -39c-6 -12.667 -15.667 -21.334 -29 -26.001l-432 -154c-6 -2 -11.667 -3 -17 -3c-24.667 0 -41 11.333 -49 34z" />
    <glyph glyph-name="uni0651064F" unicode="&#xfc61;" arabic-form="isolated" 
d="M292 1908c5.33301 -36.667 2.33398 -71.335 -8.99902 -104.002c-10.667 -33.333 -28.667 -60.333 -54 -81c-30 -25.333 -65.333 -38 -106 -38c-20.667 0 -40 3.66699 -58 11c-22 8.66699 -41.667 21.667 -59 39c-13.333 -16 -28.333 -29.333 -45 -40
c-28.667 -18 -59.334 -27 -92.001 -27c-25.333 0 -48.666 5.33301 -69.999 16c-50 26 -79 69.333 -87 130c-6 44.667 2.66699 91 26 139c6 12.667 15.667 21.334 29 26.001s26.333 4 39 -2c13.333 -6 22.333 -15.667 27 -29s3.66699 -26.666 -3 -39.999
c-6 -12 -10.333 -24 -13 -36c-4 -16 -5 -30.667 -3 -44c3.33301 -25.333 14 -42.666 32 -51.999c18.667 -9.33301 38.667 -7.33301 60 6s36.666 35 45.999 65c8.66699 25.333 12.334 58 11.001 98c-0.666992 14 3.66602 26.333 12.999 37c10 10 22 15.333 36 16
c14.667 0.666992 27 -4 37 -14c10.667 -9.33301 16 -21.333 16 -36c1.33301 -36.667 -0.666992 -69 -6 -97l3 -10c3.33301 -24 16.333 -40.333 39 -49c23.333 -8.66699 44.333 -5.33398 63 9.99902c24 20 33 50.333 27 91c-4.66699 31.333 -22 71 -52 119
c-7.33301 12 -9.33301 24.667 -6 38c3.33301 14 11 24.667 23 32c12 8 24.667 10.333 38 7c14 -3.33301 24.667 -11 32 -23c38 -60 60 -112.667 66 -158zM29.001 2563l-9.99902 -5.00098l-9 -4c-18 -10 -32.667 -23.667 -44 -41c-11.333 -16.667 -16.333 -32.667 -15 -48
c3.33301 -38.667 48.666 -72.667 135.999 -102c26 51.333 36 97.666 30 139c-4 24.667 -15 43.334 -33 56.001c-8 6 -17.667 9 -29 9c-8 0 -16.667 -1.33301 -26 -4zM-268.998 2109c-4 13.333 -2.33398 26.333 4.99902 39c7.33301 12 18 19.667 32 23
c114.667 30 198 66 250 108c-106.667 42.667 -163 101.667 -169 177c-3.33301 35.333 5.33398 70.333 26.001 105c20 34 48.333 61.333 85 82c68 38.667 129.333 38.334 184 -1c41.333 -30 66 -71.333 74 -124c8.66699 -56 -1.66602 -117 -30.999 -183l12 -2
c14 -3.33301 24.667 -11 32 -23c8 -12 10.333 -24.667 7 -38c-3.33301 -14 -11 -25 -23 -33c-12 -7.33301 -24.667 -9.33301 -38 -6l-11 2l-12 3l-25 6c-38.667 -44 -90.334 -81 -155.001 -111c-48 -22 -108.333 -42.333 -181 -61c-4 -1.33301 -8.33301 -2 -13 -2
c-26 0 -42.333 13 -49 39z" />
    <glyph glyph-name="uni06510650" unicode="&#xfc62;" arabic-form="isolated" 
d="M292 1908c5.33301 -36.667 2.33398 -71.335 -8.99902 -104.002c-10.667 -33.333 -28.667 -60.333 -54 -81c-30 -25.333 -65.333 -38 -106 -38c-20.667 0 -40 3.66699 -58 11c-22 8.66699 -41.667 21.667 -59 39c-13.333 -16 -28.333 -29.333 -45 -40
c-28.667 -18 -59.334 -27 -92.001 -27c-25.333 0 -48.666 5.33301 -69.999 16c-50 26 -79 69.333 -87 130c-6 44.667 2.66699 91 26 139c6 12.667 15.667 21.334 29 26.001s26.333 4 39 -2c13.333 -6 22.333 -15.667 27 -29s3.66699 -26.666 -3 -39.999
c-6 -12 -10.333 -24 -13 -36c-4 -16 -5 -30.667 -3 -44c3.33301 -25.333 14 -42.666 32 -51.999c18.667 -9.33301 38.667 -7.33301 60 6s36.666 35 45.999 65c8.66699 25.333 12.334 58 11.001 98c-0.666992 14 3.66602 26.333 12.999 37c10 10 22 15.333 36 16
c14.667 0.666992 27 -4 37 -14c10.667 -9.33301 16 -21.333 16 -36c1.33301 -36.667 -0.666992 -69 -6 -97l3 -10c3.33301 -24 16.333 -40.333 39 -49c23.333 -8.66699 44.333 -5.33398 63 9.99902c24 20 33 50.333 27 91c-4.66699 31.333 -22 71 -52 119
c-7.33301 12 -9.33301 24.667 -6 38c3.33301 14 11 24.667 23 32c12 8 24.667 10.333 38 7c14 -3.33301 24.667 -11 32 -23c38 -60 60 -112.667 66 -158zM-263.999 1386c-4.66699 13.333 -4 26.335 2 39.002c6 13.333 15.667 22.333 29 27l433 153
c13.333 5.33301 26.333 4.66602 39 -2.00098c12.667 -6 21.334 -15.667 26.001 -29c5.33301 -13.333 4.66602 -26.333 -2.00098 -39c-6 -12.667 -15.667 -21.334 -29 -26.001l-432 -154c-6 -2 -11.667 -3 -17 -3c-24.667 0 -41 11.333 -49 34z" />
    <glyph glyph-name="uniFC63" unicode="&#xfc63;" arabic-form="isolated" 
d="M292 1908c5.33301 -36.667 2.33398 -71.335 -8.99902 -104.002c-10.667 -33.333 -28.667 -60.333 -54 -81c-30 -25.333 -65.333 -38 -106 -38c-20.667 0 -40 3.66699 -58 11c-22 8.66699 -41.667 21.667 -59 39c-13.333 -16 -28.333 -29.333 -45 -40
c-28.667 -18 -59.334 -27 -92.001 -27c-25.333 0 -48.666 5.33301 -69.999 16c-50 26 -79 69.333 -87 130c-6 44.667 2.66699 91 26 139c6 12.667 15.667 21.334 29 26.001s26.333 4 39 -2c13.333 -6 22.333 -15.667 27 -29s3.66699 -26.666 -3 -39.999
c-6 -12 -10.333 -24 -13 -36c-4 -16 -5 -30.667 -3 -44c3.33301 -25.333 14 -42.666 32 -51.999c18.667 -9.33301 38.667 -7.33301 60 6s36.666 35 45.999 65c8.66699 25.333 12.334 58 11.001 98c-0.666992 14 3.66602 26.333 12.999 37c10 10 22 15.333 36 16
c14.667 0.666992 27 -4 37 -14c10.667 -9.33301 16 -21.333 16 -36c1.33301 -36.667 -0.666992 -69 -6 -97l3 -10c3.33301 -24 16.333 -40.333 39 -49c23.333 -8.66699 44.333 -5.33398 63 9.99902c24 20 33 50.333 27 91c-4.66699 31.333 -22 71 -52 119
c-7.33301 12 -9.33301 24.667 -6 38c3.33301 14 11 24.667 23 32c12 8 24.667 10.333 38 7c14 -3.33301 24.667 -11 32 -23c38 -60 60 -112.667 66 -158zM-23.999 2133c-13.333 3.33301 -24.002 10.999 -32.002 22.999c-7.33301 12 -9.66602 25 -6.99902 39
c28.667 126.667 30.334 254 5.00098 382c-2.66699 14 0 26.667 8 38c8 12 19 19.333 33 22s27 0 39 -8c11.333 -8 18.333 -19 21 -33c28 -141.333 26.333 -282.666 -5 -423.999c-6 -26.667 -22.667 -40 -50 -40z" />
    <glyph glyph-name="fathatan_01" unicode="&#xfe70;" arabic-form="isolated" 
d="M-260 1640c-4.66699 13.333 -4 26.335 2 39.002c6 13.333 15.667 22.333 29 27l433 153c13.333 5.33301 26.333 4.66602 39 -2.00098c12.667 -6 21.334 -15.667 26.001 -29c5.33301 -13.333 4.66602 -26.333 -2.00098 -39c-6 -12.667 -15.667 -21.334 -29 -26.001
l-432 -154c-6 -2 -11.667 -3 -17 -3c-24.667 0 -41 11.333 -49 34zM-260 1896c-4.66699 13.333 -4 26.667 2 40c6 12.667 15.667 21.334 29 26.001l433 154c13.333 4.66699 26.333 4 39 -2c12.667 -6.66699 21.334 -16.667 26.001 -30
c5.33301 -13.333 4.66602 -26.333 -2.00098 -39c-6 -12.667 -15.667 -21.334 -29 -26.001l-432 -154c-6 -2 -11.667 -3 -17 -3c-24.667 0 -41 11.333 -49 34z" />
    <glyph glyph-name="dammatan_01" unicode="&#xfe72;" arabic-form="isolated" 
d="M98 1968c-10.667 -8.66699 -19.001 -19.333 -25.001 -32c-6.66699 -14.667 -8.66699 -30 -6 -46c8.66699 -47.333 48.667 -83 120 -107c34.667 56.667 47 106 37 148c-5.33301 22.667 -19.666 39 -42.999 49c-10 4.66699 -20.333 7 -31 7c-18.667 0 -36 -6.33301 -52 -19
zM-165.001 1503c-13.333 15.333 -16.667 32.335 -10 51.002l5 16l7 16c24 64 29.667 106.333 17 127c-6 10 -12.333 17 -19 21c-2.66699 1.33301 -5 2.33301 -7 3h-5c-23.333 2.66699 -49.666 -12 -78.999 -44c-9.33301 -10.667 -21.333 -16.334 -36 -17.001
c-14 -0.666992 -26 4 -36 14c-10.667 9.33301 -16.334 21 -17.001 35c-0.666992 14.667 4 27 14 37c52 57.333 106.667 83.333 164 78c18.667 -2 36.334 -7.66699 53.001 -17c21.333 -12.667 39.666 -31 54.999 -55c26 -42 30.667 -93 14 -153c62 22.667 115 51.667 159 87
l-12 5c-77.333 38 -122.666 92.667 -135.999 164c-6 33.333 -3 66 9 98c12.667 31.333 32.667 58 60 80c58.667 46 121.334 54.333 188.001 25c54 -24 87.667 -63.667 101 -119c14 -58.667 3 -124 -33 -196l10 -1c14 -2 25 -8.66699 33 -20c8.66699 -11.333 12 -24 10 -38
s-8.66699 -25.333 -20 -34s-24 -12 -38 -10c-20.667 3.33301 -40.334 6.66602 -59.001 9.99902c-48 -51.333 -110.333 -94 -187 -128c-28.667 -12.667 -58.334 -23.667 -89.001 -33c-22.667 -7.33301 -45 -13.333 -67 -18l-11 -1c-15.333 0 -28 5.66699 -38 17z" />
    <glyph glyph-name="kasratan_01" unicode="&#xfe74;" arabic-form="isolated" 
d="M-267 -763c-4.66699 13.333 -4 26.335 2 39.002c6 13.333 15.667 22.333 29 27l433 153c13.333 5.33301 26.333 4.66602 39 -2.00098c12.667 -6 21.334 -15.667 26.001 -29c5.33301 -13.333 4.66602 -26.333 -2.00098 -39c-6 -12.667 -15.667 -21.334 -29 -26.001
l-432 -154c-6 -2 -11.667 -3 -17 -3c-24.667 0 -41 11.333 -49 34zM-267 -506.998c-4.66699 13.333 -4 26.667 2 40c6 12.667 15.667 21.334 29 26.001l433 154c13.333 4.66699 26.333 4 39 -2c12.667 -6.66699 21.334 -16.667 26.001 -30
c5.33301 -13.333 4.66602 -26.333 -2.00098 -39c-6 -12.667 -15.667 -21.334 -29 -26.001l-432 -154c-6 -2 -11.667 -3 -17 -3c-24.667 0 -41 11.333 -49 34z" />
    <glyph glyph-name="fatha_01" unicode="&#xfe76;" arabic-form="isolated" 
d="M-260 1633c-4.66699 13.333 -4 26.667 2 40c6 12.667 15.667 21.334 29 26.001l433 154c13.333 4.66699 26.333 4 39 -2c12.667 -6.66699 21.334 -16.667 26.001 -30c5.33301 -13.333 4.66602 -26.333 -2.00098 -39c-6 -12.667 -15.667 -21.334 -29 -26.001l-432 -154
c-6 -2 -11.667 -3 -17 -3c-24.667 0 -41 11.333 -49 34z" />
    <glyph glyph-name="damma_01" unicode="&#xfe78;" arabic-form="isolated" 
d="M29 2016l-9.99902 -5l-9 -4c-18 -10 -32.667 -23.667 -44 -41c-11.333 -16.667 -16.333 -32.667 -15 -48c3.33301 -38.667 48.666 -72.667 135.999 -102c26 51.333 36 97.666 30 138.999c-4 24.667 -15 43.334 -33 56.001c-8 6 -17.667 9 -29 9
c-8 0 -16.667 -1.33301 -26 -4zM-268.999 1562c-4 13.333 -2.33398 26.333 4.99902 39c7.33301 12 18 19.667 32 23c114.667 30 198 66 250 108c-106.667 42.667 -163 101.667 -169 177c-3.33301 35.333 5.33398 70.333 26.001 105c20 34 48.333 61.333 85 82
c68 38.667 129.333 38.334 184 -1c41.333 -30 66 -71.333 74 -124c8.66699 -56 -1.66602 -117 -30.999 -183l12 -2c14 -3.33301 24.667 -11 32 -23c8 -12 10.333 -24.667 7 -38c-3.33301 -14 -11 -25 -23 -33c-12 -7.33301 -24.667 -9.33301 -38 -6l-11 2l-12 3l-25 6
c-38.667 -44 -90.334 -81 -155.001 -111c-48 -22 -108.333 -42.333 -181 -61c-4 -1.33301 -8.33301 -2 -13 -2c-26 0 -42.333 13 -49 39z" />
    <glyph glyph-name="kasra_01" unicode="&#xfe7a;" arabic-form="isolated" 
d="M-263 -517c-4.66699 13.333 -4 26.335 2 39.002c6 13.333 15.667 22.333 29 27l433 153c13.333 5.33301 26.333 4.66602 39 -2.00098c12.667 -6 21.334 -15.667 26.001 -29c5.33301 -13.333 4.66602 -26.333 -2.00098 -39c-6 -12.667 -15.667 -21.334 -29 -26.001
l-432 -154c-6 -2 -11.667 -3 -17 -3c-24.667 0 -41 11.333 -49 34z" />
    <glyph glyph-name="shadda_01" unicode="&#xfe7c;" arabic-form="isolated" 
d="M292 1908c5.33301 -36.667 2.33398 -71.335 -8.99902 -104.002c-10.667 -33.333 -28.667 -60.333 -54 -81c-30 -25.333 -65.333 -38 -106 -38c-20.667 0 -40 3.66699 -58 11c-22 8.66699 -41.667 21.667 -59 39c-13.333 -16 -28.333 -29.333 -45 -40
c-28.667 -18 -59.334 -27 -92.001 -27c-25.333 0 -48.666 5.33301 -69.999 16c-50 26 -79 69.333 -87 130c-6 44.667 2.66699 91 26 139c6 12.667 15.667 21.334 29 26.001s26.333 4 39 -2c13.333 -6 22.333 -15.667 27 -29s3.66699 -26.666 -3 -39.999
c-6 -12 -10.333 -24 -13 -36c-4 -16 -5 -30.667 -3 -44c3.33301 -25.333 14 -42.666 32 -51.999c18.667 -9.33301 38.667 -7.33301 60 6s36.666 35 45.999 65c8.66699 25.333 12.334 58 11.001 98c-0.666992 14 3.66602 26.333 12.999 37c10 10 22 15.333 36 16
c14.667 0.666992 27 -4 37 -14c10.667 -9.33301 16 -21.333 16 -36c1.33301 -36.667 -0.666992 -69 -6 -97l3 -10c3.33301 -24 16.333 -40.333 39 -49c23.333 -8.66699 44.333 -5.33398 63 9.99902c24 20 33 50.333 27 91c-4.66699 31.333 -22 71 -52 119
c-7.33301 12 -9.33301 24.667 -6 38c3.33301 14 11 24.667 23 32c12 8 24.667 10.333 38 7c14 -3.33301 24.667 -11 32 -23c38 -60 60 -112.667 66 -158z" />
    <glyph glyph-name="sukun_01" unicode="&#xfe7e;" arabic-form="isolated" 
d="M13 1782c23.333 -0.666992 42.333 6.33398 57 21.001c11.333 11.333 20 26.666 26 45.999c5.33301 16 8 32.333 8 49c0 31.333 -13.667 59 -41 83c-4 4 -8 7.33301 -12 10c-6 4 -12 7.33301 -18 10c-16 7.33301 -32.333 10 -49 8c-15.333 -1.33301 -29.333 -6 -42 -14
c-9.33301 -6.66699 -17.333 -14.667 -24 -24c-20 -28 -25.667 -59.667 -17 -95c6.66699 -28.667 20 -51.667 40 -69c20 -16.667 43.667 -25 71 -25h1zM12 1679c-51.333 0 -96.333 16 -135 48s-64 74 -76 126c-15.333 65.333 -4.33301 124.333 33 177
c34 48 80.667 75.333 140 82c58.667 6 111.334 -12 158.001 -54c50 -44.667 75 -98 75 -160c0 -69.333 -21.667 -125.333 -65 -168c-34.667 -34 -77.334 -51 -128.001 -51h-2z" />
    <glyph glyph-name="uni0622.fina" unicode="&#x622;" horiz-adv-x="750" arabic-form="final" 
d="M705 0c-19.333 0.666992 -37 2.00098 -53 4.00098c-36 4 -70.667 13 -104 27c-100 40 -163.667 117.667 -191 233c-12 52.667 -18 188.334 -18 407.001v191c-0.666992 72 -1.66699 135.667 -3 191c-4 114 -12 210.667 -24 290c-0.666992 5.33301 -1 10.666 -1 15.999
c0 21.333 6.33301 40.666 19 57.999c16.667 22 38.334 35 65.001 39c5.33301 0.666992 10.666 1 15.999 1c21.333 0 40.666 -6.33301 57.999 -19c22 -16.667 35 -38.334 39 -65.001c12.667 -86.667 21 -189.667 25 -309c2 -57.333 3 -123 3 -197v-256
c0.666992 -50.667 1.33398 -93.667 2.00098 -129c1.33301 -88.667 5.33301 -146.334 12 -173.001c11.333 -46.667 34 -77.667 68 -93c20 -12 61.667 -18 125 -18c27.333 0 50.666 -9.66699 69.999 -29s29 -42.666 29 -69.999s-9.66699 -50.666 -29 -69.999
s-42.666 -29 -69.999 -29h-38zM15 1534c-18 12 -28.999 28.667 -32.999 50c-4.66699 22 -1 42 11 60l10 14l10 15c8 12 16 22.667 24 32c19.333 24 39.666 44 60.999 60c56.667 42.667 122.667 57.334 198 44.001c22.667 -4 49 -10.333 79 -19l41 -12l41 -14l49 -16l48 -14
c34.667 -9.33301 63 -14.666 85 -15.999c76.667 -4 141.334 30.667 194.001 104c12.667 18 30 28.667 52 32c21.333 3.33301 41 -1.33398 59 -14.001c17.333 -12.667 27.666 -30 30.999 -52c4 -21.333 -0.666992 -40.666 -14 -57.999
c-86.667 -120.667 -196.667 -177.334 -330 -170.001c-31.333 2 -68 8.33301 -110 19c-16.667 4.66699 -35.667 10.334 -57 17.001l-57 18c-66 22 -112 35 -138 39c-28.667 5.33301 -52.667 1.66602 -72 -11.001c-18.667 -12.667 -42.667 -41.334 -72 -86.001
c-15.333 -23.333 -37.333 -35 -66 -35c-16 0 -30.667 4.33301 -44 13z" />
    <glyph glyph-name="uni0623.fina" unicode="&#x623;" horiz-adv-x="640" arabic-form="final" 
d="M595 0c-19.333 0.666992 -37 2.00098 -53 4.00098c-36 4 -70.667 13 -104 27c-100 40 -163.667 117.667 -191 233c-12 52.667 -18 188.334 -18 407.001v191c-0.666992 72 -1.66699 135.667 -3 191c-4 114 -12 210.667 -24 290c-0.666992 5.33301 -1 10.666 -1 15.999
c0 21.333 6.33301 40.666 19 57.999c16.667 22 38.334 35 65.001 39c5.33301 0.666992 10.666 1 15.999 1c21.333 0 40.666 -6.33301 57.999 -19c22 -16.667 35 -38.334 39 -65.001c12.667 -86.667 21 -189.667 25 -309c2 -57.333 3 -123 3 -197v-256
c0.666992 -50.667 1.33398 -93.667 2.00098 -129c1.33301 -88.667 5.33301 -146.334 12 -173.001c11.333 -46.667 34 -77.667 68 -93c20 -12 61.667 -18 125 -18c27.333 0 50.666 -9.66699 69.999 -29s29 -42.666 29 -69.999s-9.66699 -50.666 -29 -69.999
s-42.666 -29 -69.999 -29h-38zM33 1481c-7.33301 12 -9.00195 25 -5.00195 39c4 13.333 12 23.666 24 30.999l157 90c-11.333 4 -21.666 9 -30.999 15c-32 19.333 -56.667 47 -74 83c-17.333 35.333 -24.333 72.333 -21 111c4 36 16.333 69.667 37 101
s47.334 56.333 80.001 75c62.667 35.333 130.667 42.666 204 21.999c13.333 -4 23.666 -12.333 30.999 -25c6.66699 -12 8 -25 4 -39c-4 -13.333 -12 -23.333 -24 -30c-12.667 -7.33301 -25.667 -9 -39 -5c-46 13.333 -87.667 9 -125 -13c-39.333 -22 -61 -54 -65 -96
c-4.66699 -43.333 10.333 -75.333 45 -96c15.333 -9.33301 33.666 -14.666 54.999 -15.999c8 0 16.333 0.333008 25 1c6.66699 0.666992 13.334 1.66699 20.001 3c18 4 38 10.667 60 20l30 13l30 14c12.667 6 25.334 7 38.001 3c13.333 -4.66699 23.333 -13 30 -25
c6 -12 7.33301 -24.667 4 -38c-4 -13.333 -12 -23.666 -24 -30.999l-396 -226c-8 -4.66699 -16.333 -7 -25 -7c-20 0 -35 8.66699 -45 26z" />
    <glyph glyph-name="uni0624.fina" unicode="&#x624;" horiz-adv-x="1043" arabic-form="final" 
d="M429 637c-16 -8.66699 -31.001 -19.999 -45.001 -33.999c-50 -50.667 -75 -120.334 -75 -209.001v-10c1.33301 -59.333 24.666 -103.333 69.999 -132c56.667 -35.333 143.334 -53 260.001 -53h142v1c0 94 -24.333 188.667 -73 284c-58 112.667 -128.667 169 -212 169
c-23.333 0 -45.666 -5.33301 -66.999 -16zM128.999 -659.999c-18.667 14.667 -30.3359 33.3311 -35.0029 55.998c-2 8 -3 15.667 -3 23c0 18 5.33301 35.333 16 52c14 22.667 34.333 37 61 43c126 28 241.333 84.333 346 169c112.667 90.667 190.334 196.667 233.001 318
h-108c-155.333 0 -277 28 -365 84c-105.333 66.667 -159.333 164.667 -162 294v16c0 142 43.667 257.667 131 347c71.333 72.667 155.666 109 252.999 109c76 0 146.333 -22 211 -66s119.667 -107 165 -189c36.667 -65.333 64.334 -136.666 83.001 -213.999
c16 -65.333 24 -126 24 -182v-2h65c27.333 0 50.666 -9.66699 69.999 -29s29 -42.666 29 -69.999s-9.66699 -50.333 -29 -69c-19.333 -19.333 -42.666 -29.333 -69.999 -30h-90c-36 -138.667 -107 -264.667 -213 -378c-145.333 -154 -321.666 -254.333 -528.999 -301
c-7.33301 -1.33301 -14.666 -2 -21.999 -2c-22.667 0 -43 7 -61 21zM199.997 925.998c-7.33301 12 -9.00195 25 -5.00195 39c4 13.333 12 23.666 24 30.999l157 90c-11.333 4 -21.666 9 -30.999 15c-32 19.333 -56.667 47 -74 83c-17.333 35.333 -24.333 72.333 -21 111
c4 36 16.333 69.667 37 101s47.334 56.333 80.001 75c62.667 35.333 130.667 42.666 204 21.999c13.333 -4 23.666 -12.333 30.999 -25c6.66699 -12 8 -25 4 -39c-4 -13.333 -12 -23.333 -24 -30c-12.667 -7.33301 -25.667 -9 -39 -5c-46 13.333 -87.667 9 -125 -13
c-39.333 -22 -61 -54 -65 -96c-4.66699 -43.333 10.333 -75.333 45 -96c15.333 -9.33301 33.666 -14.666 54.999 -15.999c8 0 16.333 0.333008 25 1c6.66699 0.666992 13.334 1.66699 20.001 3c18 4 38 10.667 60 20l30 13l30 14c12.667 6 25.334 7 38.001 3
c13.333 -4.66699 23.333 -13 30 -25c6 -12 7.33301 -24.667 4 -38c-4 -13.333 -12 -23.666 -24 -30.999l-396 -226c-8 -4.66699 -16.333 -7 -25 -7c-20 0 -35 8.66699 -45 26z" />
    <glyph glyph-name="uni0625.fina" unicode="&#x625;" horiz-adv-x="640" arabic-form="final" 
d="M595 0c-19.333 0.666992 -37 2.00098 -53 4.00098c-36 4 -70.667 13 -104 27c-100 40 -163.667 117.667 -191 233c-12 52.667 -18 188.334 -18 407.001v191c-0.666992 72 -1.66699 135.667 -3 191c-4 114 -12 210.667 -24 290c-0.666992 5.33301 -1 10.666 -1 15.999
c0 21.333 6.33301 40.666 19 57.999c16.667 22 38.334 35 65.001 39c5.33301 0.666992 10.666 1 15.999 1c21.333 0 40.666 -6.33301 57.999 -19c22 -16.667 35 -38.334 39 -65.001c12.667 -86.667 21 -189.667 25 -309c2 -57.333 3 -123 3 -197v-256
c0.666992 -50.667 1.33398 -93.667 2.00098 -129c1.33301 -88.667 5.33301 -146.334 12 -173.001c11.333 -46.667 34 -77.667 68 -93c20 -12 61.667 -18 125 -18c27.333 0 50.666 -9.66699 69.999 -29s29 -42.666 29 -69.999s-9.66699 -50.666 -29 -69.999
s-42.666 -29 -69.999 -29h-38zM98 -688.999c-7.33301 12 -9.00195 25 -5.00195 39c4 13.333 12 23.666 24 30.999l157 90c-11.333 4 -21.666 9 -30.999 15c-32 19.333 -56.667 47 -74 83c-17.333 35.333 -24.333 72.333 -21 111c4 36 16.333 69.667 37 101
s47.334 56.333 80.001 75c62.667 35.333 130.667 42.666 204 21.999c13.333 -4 23.666 -12.333 30.999 -25c6.66699 -12 8 -25 4 -39c-4 -13.333 -12 -23.333 -24 -30c-12.667 -7.33301 -25.667 -9 -39 -5c-46 13.333 -87.667 9 -125 -13c-39.333 -22 -61 -54 -65 -96
c-4.66699 -43.333 10.333 -75.333 45 -96c15.333 -9.33301 33.666 -14.666 54.999 -15.999c8 0 16.333 0.333008 25 1c6.66699 0.666992 13.334 1.66699 20.001 3c18 4 38 10.667 60 20l30 13l30 14c12.667 6 25.334 7 38.001 3c13.333 -4.66699 23.333 -13 30 -25
c6 -12 7.33301 -24.667 4 -38c-4 -13.333 -12 -23.666 -24 -30.999l-396 -226c-8 -4.66699 -16.333 -7 -25 -7c-20 0 -35 8.66699 -45 26z" />
    <glyph glyph-name="uni0626.fina" unicode="&#x626;" horiz-adv-x="1715" arabic-form="final" 
d="M501 -613c-117.333 38 -210.999 93.6689 -280.999 167.002c-95.333 98.667 -143 222 -143 370c0 10 0.333008 20 1 30c2.66699 67.333 15.667 150.333 39 249c9.33301 39.333 20.666 83.333 33.999 132l19 65l18 64l25 87c7.33301 26 23 45.667 47 59
c15.333 8.66699 31.333 13 48 13c8.66699 0 17.667 -1.33301 27 -4c26.667 -7.33301 46.667 -23 60 -47c8.66699 -15.333 13 -31.333 13 -48c0 -8.66699 -1.33301 -17.667 -4 -27l-26 -88l-8 -29l-9 -29l-17 -59c-12.667 -46 -23.334 -86.667 -32.001 -122
c-22 -92.667 -34.333 -167.334 -37 -224.001v-19c0 -96.667 29 -175.334 87 -236.001c50.667 -52.667 121.334 -92.667 212.001 -120c76 -22.667 153.667 -34 233 -34c155.333 0 294 29.333 416 88c46.667 22.667 83.667 47.334 111 74.001c28 26.667 42 51 42 73
c0 2 -0.666992 4.33301 -2 7c-1.33301 3.33301 -3.66602 7 -6.99902 11c-8 10.667 -19.667 22 -35 34c-19.333 14.667 -45 31.667 -77 51l-44 25l-46 25l-45 24l-45 26c-33.333 19.333 -61.333 37.333 -84 54c-24.667 18 -43.667 34 -57 48
c-20.667 23.333 -32 48.333 -34 75c-0.666992 4 -1 8 -1 12c0 6 0.666992 12 2 18c1.33301 6.66699 3.33301 13.334 6 20.001c3.33301 6.66699 7 13 11 19c5.33301 8 11.666 15.333 18.999 22c18.667 16 42.667 25.333 72 28c6.66699 0.666992 14 1 22 1
c12.667 0 27 -0.666992 43 -2c27.333 -2.66699 80.666 -10.334 159.999 -23.001l26 -4l26 -4c20 -3.33301 38.667 -6 56 -8c43.333 -6.66699 83.333 -12.334 120 -17.001c96 -11.333 180.667 -17 254 -17c27.333 0 50.666 -9.66699 69.999 -29
c19.333 -18.667 29 -41.667 29 -69s-9.66699 -50.666 -29 -69.999s-42.666 -29 -69.999 -29c-114.667 -8.66699 -260.667 12.666 -438 63.999c102 -46 160.667 -74.333 176 -85l6 -4l7 -6c6.66699 -5.33301 12.667 -10.666 18 -15.999c15.333 -14 28.666 -28.667 39.999 -44
c32.667 -42.667 49 -88.334 49 -137.001c0 -63.333 -23 -123 -69 -179c-45.333 -56 -110.666 -104.667 -195.999 -146c-149.333 -72 -316.666 -108 -501.999 -108c-104.667 0 -206.667 16 -306 48zM384.001 775.002c-7.33301 12 -9.00195 25 -5.00195 39
c4 13.333 12 23.666 24 30.999l157 90c-11.333 4 -21.666 9 -30.999 15c-32 19.333 -56.667 47 -74 83c-17.333 35.333 -24.333 72.333 -21 111c4 36 16.333 69.667 37 101s47.334 56.333 80.001 75c62.667 35.333 130.667 42.666 204 21.999
c13.333 -4 23.666 -12.333 30.999 -25c6.66699 -12 8 -25 4 -39c-4 -13.333 -12 -23.333 -24 -30c-12.667 -7.33301 -25.667 -9 -39 -5c-46 13.333 -87.667 9 -125 -13c-39.333 -22 -61 -54 -65 -96c-4.66699 -43.333 10.333 -75.333 45 -96
c15.333 -9.33301 33.666 -14.666 54.999 -15.999c8 0 16.333 0.333008 25 1c6.66699 0.666992 13.334 1.66699 20.001 3c18 4 38 10.667 60 20l30 13l30 14c12.667 6 25.334 7 38.001 3c13.333 -4.66699 23.333 -13 30 -25c6 -12 7.33301 -24.667 4 -38
c-4 -13.333 -12 -23.666 -24 -30.999l-396 -226c-8 -4.66699 -16.333 -7 -25 -7c-20 0 -35 8.66699 -45 26z" />
    <glyph glyph-name="uni0626.init" unicode="&#x626;" horiz-adv-x="838" arabic-form="initial" 
d="M-75 29c-19.333 19.333 -28.999 42.666 -28.999 69.999s9.66699 50.666 29 69.999s42.666 29 69.999 29c153.333 0 257.666 5.66699 312.999 17c97.333 16.667 161 49.334 191 98.001c12.667 21.333 19 51.333 19 90c0 30 -3.66699 65.333 -11 106
c-18 92.667 -51.333 190 -100 292c-6.66699 14 -10 28.667 -10 44c0 10.667 1.66699 21.334 5 32.001c9.33301 25.333 26 44 50 56c14 6.66699 28 10 42 10c11.333 0 22.666 -2 33.999 -6c26 -8.66699 44.667 -25.334 56 -50.001
c56.667 -116.667 95.334 -229.667 116.001 -339c10 -52 15 -100 15 -144c0 -78 -16 -143 -48 -195c-56.667 -93.333 -157.334 -154.666 -302.001 -183.999c-71.333 -16.667 -194.666 -25 -369.999 -25c-27.333 0 -50.666 9.66699 -69.999 29zM163.001 1008
c-7.33301 12 -9.00195 25 -5.00195 39c4 13.333 12 23.666 24 30.999l157 90c-11.333 4 -21.666 9 -30.999 15c-32 19.333 -56.667 47 -74 83c-17.333 35.333 -24.333 72.333 -21 111c4 36 16.333 69.667 37 101s47.334 56.333 80.001 75
c62.667 35.333 130.667 42.666 204 21.999c13.333 -4 23.666 -12.333 30.999 -25c6.66699 -12 8 -25 4 -39c-4 -13.333 -12 -23.333 -24 -30c-12.667 -7.33301 -25.667 -9 -39 -5c-46 13.333 -87.667 9 -125 -13c-39.333 -22 -61 -54 -65 -96
c-4.66699 -43.333 10.333 -75.333 45 -96c15.333 -9.33301 33.666 -14.666 54.999 -15.999c8 0 16.333 0.333008 25 1c6.66699 0.666992 13.334 1.66699 20.001 3c18 4 38 10.667 60 20l30 13l30 14c12.667 6 25.334 7 38.001 3c13.333 -4.66699 23.333 -13 30 -25
c6 -12 7.33301 -24.667 4 -38c-4 -13.333 -12 -23.666 -24 -30.999l-396 -226c-8 -4.66699 -16.333 -7 -25 -7c-20 0 -35 8.66699 -45 26z" />
    <glyph glyph-name="uni0626.medi" unicode="&#x626;" horiz-adv-x="852" arabic-form="medial" 
d="M849 198c27.333 0 50.668 -9.66895 70.001 -29.002s29 -42.666 29 -69.999s-9.66699 -50.666 -29 -69.999s-42.666 -29 -69.999 -29c-54.667 -0 -104.667 9.33301 -150 28c-57.333 23.333 -105.666 61.333 -144.999 114l-8 -9c-48 -53.333 -113.667 -90 -197 -110
c-62 -15.333 -180 -23 -354 -23c-27.333 0 -50.666 9.66699 -69.999 29s-29 42.666 -29 69.999s9.66699 50.666 29 69.999s42.666 29 69.999 29c228.667 0 363.667 22.333 405 67c28.667 32 43 84.667 43 158c0 22 -1.33301 45.333 -4 70
c-2.66699 20.667 -5.33398 43.667 -8.00098 69l-2 33l-3 32c-2 28.667 -3.66699 49.667 -5 63c-0.666992 3.33301 -1 7 -1 11c0 22 7.66699 42.333 23 61c17.333 20.667 39.666 32.334 66.999 35.001c3.33301 0.666992 7 1 11 1c22.667 0 43 -7.66699 61 -23
c21.333 -17.333 33.333 -39.666 36 -66.999c1.33301 -14 3 -35.667 5 -65l3 -40l4 -41c3.33301 -31.333 6.66602 -59.333 9.99902 -84c9.33301 -64.667 22.333 -117 39 -157c34 -82 90.667 -123 170 -123zM133.002 836.998c-7.33301 12 -9.00195 25 -5.00195 39
c4 13.333 12 23.666 24 30.999l157 90c-11.333 4 -21.666 9 -30.999 15c-32 19.333 -56.667 47 -74 83c-17.333 35.333 -24.333 72.333 -21 111c4 36 16.333 69.667 37 101s47.334 56.333 80.001 75c62.667 35.333 130.667 42.666 204 21.999
c13.333 -4 23.666 -12.333 30.999 -25c6.66699 -12 8 -25 4 -39c-4 -13.333 -12 -23.333 -24 -30c-12.667 -7.33301 -25.667 -9 -39 -5c-46 13.333 -87.667 9 -125 -13c-39.333 -22 -61 -54 -65 -96c-4.66699 -43.333 10.333 -75.333 45 -96
c15.333 -9.33301 33.666 -14.666 54.999 -15.999c8 0 16.333 0.333008 25 1c6.66699 0.666992 13.334 1.66699 20.001 3c18 4 38 10.667 60 20l30 13l30 14c12.667 6 25.334 7 38.001 3c13.333 -4.66699 23.333 -13 30 -25c6 -12 7.33301 -24.667 4 -38
c-4 -13.333 -12 -23.666 -24 -30.999l-396 -226c-8 -4.66699 -16.333 -7 -25 -7c-20 0 -35 8.66699 -45 26z" />
    <glyph glyph-name="uni0627.fina" unicode="&#x627;" horiz-adv-x="624" arabic-form="final" 
d="M586 0c-19.333 0.666992 -37 2.00195 -53 4.00195c-36 4 -70.667 13 -104 27c-100 40 -163.667 117.667 -191 233c-12 52.667 -18 201.667 -18 447v231c-0.666992 72 -1.66699 135.667 -3 191c-4 140.667 -12 250.667 -24 330c-0.666992 5.33301 -1 10.666 -1 15.999
c0 21.333 6.33301 40.666 19 57.999c16.667 22 38.334 35 65.001 39c5.33301 0.666992 10.666 1 15.999 1c21.333 0 40.666 -6.33301 57.999 -19c22 -16.667 35 -38.334 39 -65.001c12.667 -86.667 21 -203 25 -349c2 -57.333 3 -123 3 -197v-336
c0.666992 -50.667 1.33398 -93.667 2.00098 -129c1.33301 -88.667 5.33301 -146.334 12 -173.001c11.333 -46.667 34 -77.667 68 -93c20 -12 61.667 -18 125 -18c27.333 0 50.666 -9.66699 69.999 -29s29 -42.666 29 -69.999s-9.66699 -50.666 -29 -69.999
s-42.666 -29 -69.999 -29h-38z" />
    </font>
</defs>
</svg>
